%TF.GenerationSoftware,KiCad,Pcbnew,10.0.1*%
%TF.CreationDate,2026-05-03T19:34:38-07:00*%
%TF.ProjectId,LSwarm Drone PCB,4c537761-726d-4204-9472-6f6e65205043,rev?*%
%TF.SameCoordinates,Original*%
%TF.FileFunction,Copper,L1,Top*%
%TF.FilePolarity,Positive*%
%FSLAX46Y46*%
G04 Gerber Fmt 4.6, Leading zero omitted, Abs format (unit mm)*
G04 Created by KiCad (PCBNEW 10.0.1) date 2026-05-03 19:34:38*
%MOMM*%
%LPD*%
G01*
G04 APERTURE LIST*
G04 Aperture macros list*
%AMRoundRect*
0 Rectangle with rounded corners*
0 $1 Rounding radius*
0 $2 $3 $4 $5 $6 $7 $8 $9 X,Y pos of 4 corners*
0 Add a 4 corners polygon primitive as box body*
4,1,4,$2,$3,$4,$5,$6,$7,$8,$9,$2,$3,0*
0 Add four circle primitives for the rounded corners*
1,1,$1+$1,$2,$3*
1,1,$1+$1,$4,$5*
1,1,$1+$1,$6,$7*
1,1,$1+$1,$8,$9*
0 Add four rect primitives between the rounded corners*
20,1,$1+$1,$2,$3,$4,$5,0*
20,1,$1+$1,$4,$5,$6,$7,0*
20,1,$1+$1,$6,$7,$8,$9,0*
20,1,$1+$1,$8,$9,$2,$3,0*%
G04 Aperture macros list end*
%TA.AperFunction,SMDPad,CuDef*%
%ADD10RoundRect,0.250000X0.650000X-1.000000X0.650000X1.000000X-0.650000X1.000000X-0.650000X-1.000000X0*%
%TD*%
%TA.AperFunction,SMDPad,CuDef*%
%ADD11RoundRect,0.250000X-0.650000X1.000000X-0.650000X-1.000000X0.650000X-1.000000X0.650000X1.000000X0*%
%TD*%
%TA.AperFunction,SMDPad,CuDef*%
%ADD12RoundRect,0.225000X-0.250000X0.225000X-0.250000X-0.225000X0.250000X-0.225000X0.250000X0.225000X0*%
%TD*%
%TA.AperFunction,SMDPad,CuDef*%
%ADD13RoundRect,0.225000X0.250000X-0.225000X0.250000X0.225000X-0.250000X0.225000X-0.250000X-0.225000X0*%
%TD*%
%TA.AperFunction,SMDPad,CuDef*%
%ADD14RoundRect,0.200000X0.200000X0.275000X-0.200000X0.275000X-0.200000X-0.275000X0.200000X-0.275000X0*%
%TD*%
%TA.AperFunction,SMDPad,CuDef*%
%ADD15R,1.050000X0.700000*%
%TD*%
%TA.AperFunction,SMDPad,CuDef*%
%ADD16RoundRect,0.225000X-0.225000X-0.250000X0.225000X-0.250000X0.225000X0.250000X-0.225000X0.250000X0*%
%TD*%
%TA.AperFunction,SMDPad,CuDef*%
%ADD17RoundRect,0.200000X-0.200000X-0.275000X0.200000X-0.275000X0.200000X0.275000X-0.200000X0.275000X0*%
%TD*%
%TA.AperFunction,SMDPad,CuDef*%
%ADD18RoundRect,0.150000X-0.587500X-0.150000X0.587500X-0.150000X0.587500X0.150000X-0.587500X0.150000X0*%
%TD*%
%TA.AperFunction,SMDPad,CuDef*%
%ADD19R,1.524000X0.600000*%
%TD*%
%TA.AperFunction,SMDPad,CuDef*%
%ADD20R,0.700000X1.200000*%
%TD*%
%TA.AperFunction,SMDPad,CuDef*%
%ADD21RoundRect,0.225000X0.225000X0.250000X-0.225000X0.250000X-0.225000X-0.250000X0.225000X-0.250000X0*%
%TD*%
%TA.AperFunction,SMDPad,CuDef*%
%ADD22RoundRect,0.147500X-0.147500X-0.172500X0.147500X-0.172500X0.147500X0.172500X-0.147500X0.172500X0*%
%TD*%
%TA.AperFunction,SMDPad,CuDef*%
%ADD23R,1.700000X0.700000*%
%TD*%
%TA.AperFunction,SMDPad,CuDef*%
%ADD24R,0.270000X0.600000*%
%TD*%
%TA.AperFunction,SMDPad,CuDef*%
%ADD25R,0.600000X0.270000*%
%TD*%
%TA.AperFunction,ComponentPad*%
%ADD26O,1.200000X2.000000*%
%TD*%
%TA.AperFunction,ComponentPad*%
%ADD27O,1.200000X1.800000*%
%TD*%
%TA.AperFunction,SMDPad,CuDef*%
%ADD28R,0.300000X1.300000*%
%TD*%
%TA.AperFunction,SMDPad,CuDef*%
%ADD29R,0.800000X1.700000*%
%TD*%
%TA.AperFunction,SMDPad,CuDef*%
%ADD30RoundRect,0.150000X0.587500X0.150000X-0.587500X0.150000X-0.587500X-0.150000X0.587500X-0.150000X0*%
%TD*%
%TA.AperFunction,SMDPad,CuDef*%
%ADD31R,0.300000X0.300000*%
%TD*%
%TA.AperFunction,SMDPad,CuDef*%
%ADD32R,0.600000X1.070000*%
%TD*%
%TA.AperFunction,ComponentPad*%
%ADD33R,1.700000X1.700000*%
%TD*%
%TA.AperFunction,ComponentPad*%
%ADD34C,1.700000*%
%TD*%
%TA.AperFunction,SMDPad,CuDef*%
%ADD35RoundRect,0.250000X1.000000X0.650000X-1.000000X0.650000X-1.000000X-0.650000X1.000000X-0.650000X0*%
%TD*%
%TA.AperFunction,SMDPad,CuDef*%
%ADD36RoundRect,0.250000X0.250000X0.475000X-0.250000X0.475000X-0.250000X-0.475000X0.250000X-0.475000X0*%
%TD*%
%TA.AperFunction,SMDPad,CuDef*%
%ADD37R,0.600000X0.300000*%
%TD*%
%TA.AperFunction,SMDPad,CuDef*%
%ADD38RoundRect,0.200000X0.275000X-0.200000X0.275000X0.200000X-0.275000X0.200000X-0.275000X-0.200000X0*%
%TD*%
%TA.AperFunction,SMDPad,CuDef*%
%ADD39RoundRect,0.250000X-0.375000X-1.075000X0.375000X-1.075000X0.375000X1.075000X-0.375000X1.075000X0*%
%TD*%
%TA.AperFunction,SMDPad,CuDef*%
%ADD40RoundRect,0.250000X-0.250000X-0.475000X0.250000X-0.475000X0.250000X0.475000X-0.250000X0.475000X0*%
%TD*%
%TA.AperFunction,SMDPad,CuDef*%
%ADD41RoundRect,0.162500X-0.650000X-0.162500X0.650000X-0.162500X0.650000X0.162500X-0.650000X0.162500X0*%
%TD*%
%TA.AperFunction,SMDPad,CuDef*%
%ADD42RoundRect,0.050000X-0.350000X-0.050000X0.350000X-0.050000X0.350000X0.050000X-0.350000X0.050000X0*%
%TD*%
%TA.AperFunction,SMDPad,CuDef*%
%ADD43RoundRect,0.050000X-0.050000X-0.350000X0.050000X-0.350000X0.050000X0.350000X-0.050000X0.350000X0*%
%TD*%
%TA.AperFunction,HeatsinkPad*%
%ADD44R,3.400000X3.400000*%
%TD*%
%TA.AperFunction,SMDPad,CuDef*%
%ADD45RoundRect,0.250000X-0.420000X-0.945000X0.420000X-0.945000X0.420000X0.945000X-0.420000X0.945000X0*%
%TD*%
%TA.AperFunction,SMDPad,CuDef*%
%ADD46RoundRect,0.218750X0.218750X0.381250X-0.218750X0.381250X-0.218750X-0.381250X0.218750X-0.381250X0*%
%TD*%
%TA.AperFunction,SMDPad,CuDef*%
%ADD47R,1.100000X0.600000*%
%TD*%
%TA.AperFunction,SMDPad,CuDef*%
%ADD48R,1.000000X1.050000*%
%TD*%
%TA.AperFunction,SMDPad,CuDef*%
%ADD49R,1.050000X2.200000*%
%TD*%
%TA.AperFunction,SMDPad,CuDef*%
%ADD50RoundRect,0.200000X-0.275000X0.200000X-0.275000X-0.200000X0.275000X-0.200000X0.275000X0.200000X0*%
%TD*%
%TA.AperFunction,SMDPad,CuDef*%
%ADD51RoundRect,0.250000X-0.450000X-0.350000X0.450000X-0.350000X0.450000X0.350000X-0.450000X0.350000X0*%
%TD*%
%TA.AperFunction,SMDPad,CuDef*%
%ADD52RoundRect,0.062500X-0.337500X-0.062500X0.337500X-0.062500X0.337500X0.062500X-0.337500X0.062500X0*%
%TD*%
%TA.AperFunction,SMDPad,CuDef*%
%ADD53RoundRect,0.062500X-0.062500X-0.337500X0.062500X-0.337500X0.062500X0.337500X-0.062500X0.337500X0*%
%TD*%
%TA.AperFunction,HeatsinkPad*%
%ADD54R,3.700000X3.700000*%
%TD*%
%TA.AperFunction,SMDPad,CuDef*%
%ADD55RoundRect,0.250000X-0.350000X0.450000X-0.350000X-0.450000X0.350000X-0.450000X0.350000X0.450000X0*%
%TD*%
%TA.AperFunction,SMDPad,CuDef*%
%ADD56RoundRect,0.150000X-0.512500X-0.150000X0.512500X-0.150000X0.512500X0.150000X-0.512500X0.150000X0*%
%TD*%
%TA.AperFunction,SMDPad,CuDef*%
%ADD57RoundRect,0.250000X-1.075000X0.375000X-1.075000X-0.375000X1.075000X-0.375000X1.075000X0.375000X0*%
%TD*%
%TA.AperFunction,SMDPad,CuDef*%
%ADD58R,0.700000X1.050000*%
%TD*%
%TA.AperFunction,ComponentPad*%
%ADD59RoundRect,0.250000X-0.350000X-0.625000X0.350000X-0.625000X0.350000X0.625000X-0.350000X0.625000X0*%
%TD*%
%TA.AperFunction,ComponentPad*%
%ADD60O,1.200000X1.750000*%
%TD*%
%TA.AperFunction,ViaPad*%
%ADD61C,0.600000*%
%TD*%
%TA.AperFunction,ViaPad*%
%ADD62C,1.200000*%
%TD*%
%TA.AperFunction,ViaPad*%
%ADD63C,0.800000*%
%TD*%
%TA.AperFunction,ViaPad*%
%ADD64C,0.500000*%
%TD*%
%TA.AperFunction,Conductor*%
%ADD65C,0.200000*%
%TD*%
%TA.AperFunction,Conductor*%
%ADD66C,0.300000*%
%TD*%
%TA.AperFunction,Conductor*%
%ADD67C,0.500000*%
%TD*%
%TA.AperFunction,Conductor*%
%ADD68C,0.400000*%
%TD*%
%TA.AperFunction,Conductor*%
%ADD69C,1.000000*%
%TD*%
G04 APERTURE END LIST*
D10*
%TO.P,D3,2,A_2*%
%TO.N,Net-(D3-A)*%
X19062500Y-75050000D03*
%TO.P,D3,1,K_1*%
%TO.N,BATT_SW+*%
X19062500Y-79050000D03*
%TD*%
D11*
%TO.P,D1,2,A_2*%
%TO.N,Net-(D1-A)*%
X17500000Y-23500000D03*
%TO.P,D1,1,K_1*%
%TO.N,BATT_SW+*%
X17500000Y-19500000D03*
%TD*%
D12*
%TO.P,C14,1*%
%TO.N,+3.3V*%
X43994259Y-55668116D03*
%TO.P,C14,2*%
%TO.N,GND*%
X43994259Y-57218116D03*
%TD*%
D13*
%TO.P,C24,1*%
%TO.N,+3.3V*%
X44000000Y-60325000D03*
%TO.P,C24,2*%
%TO.N,GND*%
X44000000Y-58775000D03*
%TD*%
D14*
%TO.P,R28,1*%
%TO.N,Net-(Q7-G)*%
X65325000Y-71500000D03*
%TO.P,R28,2*%
%TO.N,BATT+*%
X63675000Y-71500000D03*
%TD*%
D15*
%TO.P,SW3,1,1_1*%
%TO.N,Net-(R3-Pad2)*%
X41600000Y-37070000D03*
%TO.P,SW3,2,2_2*%
%TO.N,unconnected-(SW3-Pad2)*%
X37400000Y-37070000D03*
%TO.P,SW3,3,3_3*%
%TO.N,unconnected-(SW3-Pad3)*%
X41600000Y-34930000D03*
%TO.P,SW3,4,4_4*%
%TO.N,GND*%
X37400000Y-34930000D03*
%TD*%
D16*
%TO.P,C62,1*%
%TO.N,Net-(C62-Pad1)*%
X25467668Y-42495906D03*
%TO.P,C62,2*%
%TO.N,+3.3V*%
X27017668Y-42495906D03*
%TD*%
%TO.P,C56,1*%
%TO.N,+3.3V*%
X57405902Y-38489611D03*
%TO.P,C56,2*%
%TO.N,GND*%
X58955902Y-38489611D03*
%TD*%
%TO.P,C60,1*%
%TO.N,Net-(ESP32-LNA_IN)*%
X71225000Y-44000000D03*
%TO.P,C60,2*%
%TO.N,GND*%
X72775000Y-44000000D03*
%TD*%
D17*
%TO.P,R24,1*%
%TO.N,GND*%
X72388073Y-77572768D03*
%TO.P,R24,2*%
%TO.N,Net-(Q4-G)*%
X74038073Y-77572768D03*
%TD*%
D14*
%TO.P,R21,1*%
%TO.N,RP2350_GPIO_20*%
X28887500Y-76550000D03*
%TO.P,R21,2*%
%TO.N,Net-(Q3-G)*%
X27237500Y-76550000D03*
%TD*%
%TO.P,R22,1*%
%TO.N,GND*%
X28887500Y-79550000D03*
%TO.P,R22,2*%
%TO.N,Net-(Q3-G)*%
X27237500Y-79550000D03*
%TD*%
D18*
%TO.P,Q4,1,G_1*%
%TO.N,Net-(Q4-G)*%
X76562500Y-74550000D03*
%TO.P,Q4,2,S_2*%
%TO.N,GND*%
X76562500Y-76450000D03*
%TO.P,Q4,3,D_3*%
%TO.N,Net-(D4-A)*%
X78437500Y-75500000D03*
%TD*%
D17*
%TO.P,R15,1*%
%TO.N,+3.3V*%
X67387850Y-53465768D03*
%TO.P,R15,2*%
%TO.N,RP2350_GPIO_14*%
X69037850Y-53465768D03*
%TD*%
D19*
%TO.P,SW1,1,1_1*%
%TO.N,unconnected-(SW1-Pad1)*%
X24591365Y-50213391D03*
%TO.P,SW1,2,2_2*%
%TO.N,Net-(Q7-G)*%
X24591365Y-53213391D03*
%TO.P,SW1,3,3_3*%
%TO.N,GND*%
X24591365Y-54713391D03*
D20*
%TO.P,SW1,4,4_4*%
%TO.N,unconnected-(SW1-Pad4)_2*%
X23491365Y-48863391D03*
%TO.N,unconnected-(SW1-Pad4)_3*%
X21191365Y-48863391D03*
%TO.N,unconnected-(SW1-Pad4)*%
X23491365Y-56063391D03*
%TO.N,unconnected-(SW1-Pad4)_1*%
X21191365Y-56063391D03*
%TD*%
D21*
%TO.P,C50,1*%
%TO.N,RP2350_GPIO_15*%
X42275000Y-68500000D03*
%TO.P,C50,2*%
%TO.N,GND*%
X40725000Y-68500000D03*
%TD*%
D12*
%TO.P,C13,1*%
%TO.N,+1V1*%
X47047703Y-56225000D03*
%TO.P,C13,2*%
%TO.N,GND*%
X47047703Y-57775000D03*
%TD*%
D16*
%TO.P,C8,1*%
%TO.N,RP2350_XIN*%
X53725000Y-48000000D03*
%TO.P,C8,2*%
%TO.N,GND*%
X55275000Y-48000000D03*
%TD*%
D17*
%TO.P,R30,1*%
%TO.N,+3.3V*%
X33271205Y-43777934D03*
%TO.P,R30,2*%
%TO.N,RP2350_GPIO_11*%
X34921205Y-43777934D03*
%TD*%
D12*
%TO.P,C16,1*%
%TO.N,+3.3V*%
X41000000Y-55325000D03*
%TO.P,C16,2*%
%TO.N,GND*%
X41000000Y-56875000D03*
%TD*%
%TO.P,C18,1*%
%TO.N,+3.3V*%
X34500000Y-55275000D03*
%TO.P,C18,2*%
%TO.N,GND*%
X34500000Y-56825000D03*
%TD*%
%TO.P,C11,1*%
%TO.N,+1V1*%
X47000000Y-59496554D03*
%TO.P,C11,2*%
%TO.N,GND*%
X47000000Y-61046554D03*
%TD*%
D22*
%TO.P,L8,1,1_1*%
%TO.N,Net-(ESP32-LNA_IN)*%
X71725000Y-42500000D03*
%TO.P,L8,2,2_2*%
%TO.N,Net-(JP1-SIG)*%
X72695000Y-42500000D03*
%TD*%
D23*
%TO.P,BUZZER2,1,+_1*%
%TO.N,Net-(BUZZER2-+)*%
X32400000Y-67000000D03*
%TO.P,BUZZER2,2,-_2*%
%TO.N,GND*%
X37000000Y-67000000D03*
%TO.P,BUZZER2,3,NC_3*%
%TO.N,unconnected-(BUZZER2-NC-Pad3)*%
X32400000Y-63500000D03*
%TD*%
D16*
%TO.P,C40,1*%
%TO.N,Net-(C40-Pad1)*%
X36925000Y-43493384D03*
%TO.P,C40,2*%
%TO.N,+3.3V*%
X38475000Y-43493384D03*
%TD*%
%TO.P,C67,1*%
%TO.N,GND*%
X67725000Y-66500000D03*
%TO.P,C67,2*%
%TO.N,+5V*%
X69275000Y-66500000D03*
%TD*%
D24*
%TO.P,U1,1,SDO/SA0_1*%
%TO.N,RP2350_GPIO_9*%
X41750000Y-48830000D03*
%TO.P,U1,2,SDX_2*%
%TO.N,GND*%
X41250000Y-48830000D03*
%TO.P,U1,3,SCX_3*%
X40750000Y-48830000D03*
%TO.P,U1,4,INT1_4*%
%TO.N,RP2350_GPIO_5*%
X40250000Y-48830000D03*
D25*
%TO.P,U1,5,VDDIO_5*%
%TO.N,+3.3V*%
X40080000Y-49500000D03*
%TO.P,U1,6,GND_6*%
%TO.N,GND*%
X40080000Y-50000000D03*
%TO.P,U1,7,GND_7*%
X40080000Y-50500000D03*
D24*
%TO.P,U1,8,VDD_8*%
%TO.N,+3.3V*%
X40250000Y-51170000D03*
%TO.P,U1,9,INT2_9*%
%TO.N,RP2350_GPIO_6*%
X40750000Y-51170000D03*
%TO.P,U1,10,OCS_AUX_10*%
%TO.N,unconnected-(U1-OCS_AUX-Pad10)*%
X41250000Y-51170000D03*
%TO.P,U1,11,SDO_AUX_11*%
%TO.N,unconnected-(U1-SDO_AUX-Pad11)*%
X41750000Y-51170000D03*
D25*
%TO.P,U1,12,CS_12*%
%TO.N,RP2350_GPIO_10*%
X41920000Y-50500000D03*
%TO.P,U1,13,SCL_13*%
%TO.N,RP2350_GPIO_7*%
X41920000Y-50000000D03*
%TO.P,U1,14,SDA_14*%
%TO.N,RP2350_GPIO_8*%
X41920000Y-49500000D03*
%TD*%
D21*
%TO.P,C49,1*%
%TO.N,RP2350_GPIO_14*%
X80285000Y-30750000D03*
%TO.P,C49,2*%
%TO.N,GND*%
X78735000Y-30750000D03*
%TD*%
D12*
%TO.P,C17,1*%
%TO.N,+3.3V*%
X38000000Y-55275000D03*
%TO.P,C17,2*%
%TO.N,GND*%
X38000000Y-56825000D03*
%TD*%
D26*
%TO.P,USB1,0,SH_0*%
%TO.N,Net-(C26-Pad2)*%
X54580000Y-26740000D03*
%TO.P,USB1,1,SH_1*%
X45920000Y-26740000D03*
D27*
%TO.P,USB1,2,SH_2*%
X45920000Y-22560000D03*
%TO.P,USB1,3,SH_3*%
X54580000Y-22560000D03*
D28*
%TO.P,USB1,A1,GND_A1*%
%TO.N,GND*%
X53600000Y-27500000D03*
%TO.P,USB1,A4,VBUS_A4*%
%TO.N,unconnected-(USB1-VBUS-PadA4)*%
X52800000Y-27500000D03*
%TO.P,USB1,A5,CC1_A5*%
%TO.N,Net-(USB1-CC1)*%
X51500000Y-27500000D03*
%TO.P,USB1,A6,DP1_A6*%
%TO.N,Net-(USB1-DP1)*%
X50500000Y-27500000D03*
%TO.P,USB1,A7,DN1_A7*%
%TO.N,Net-(USB1-DN1)*%
X50000000Y-27500000D03*
%TO.P,USB1,A8,SBU1_A8*%
%TO.N,unconnected-(USB1-SBU1-PadA8)*%
X49000000Y-27500000D03*
%TO.P,USB1,A9,VBUS_A9*%
%TO.N,unconnected-(USB1-VBUS-PadA4)*%
X47700000Y-27500000D03*
%TO.P,USB1,A12,GND_A12*%
%TO.N,GND*%
X46900000Y-27500000D03*
%TO.P,USB1,B1,GND_B1*%
X47200000Y-27500000D03*
%TO.P,USB1,B4,VBUS_B4*%
%TO.N,unconnected-(USB1-VBUS-PadA4)*%
X48000000Y-27500000D03*
%TO.P,USB1,B5,CC2_B5*%
%TO.N,Net-(USB1-CC2)*%
X48500000Y-27500000D03*
%TO.P,USB1,B6,DP2_B6*%
%TO.N,Net-(USB1-DP1)*%
X49500000Y-27500000D03*
%TO.P,USB1,B7,DN2_B7*%
%TO.N,Net-(USB1-DN1)*%
X51000000Y-27500000D03*
%TO.P,USB1,B8,SBU2_B8*%
%TO.N,unconnected-(USB1-SBU2-PadB8)*%
X52000000Y-27500000D03*
%TO.P,USB1,B9,VBUS_B9*%
%TO.N,unconnected-(USB1-VBUS-PadA4)*%
X52500000Y-27500000D03*
%TO.P,USB1,B12,GND_B12*%
%TO.N,GND*%
X53300000Y-27500000D03*
%TD*%
D16*
%TO.P,C58,1*%
%TO.N,+3.3V*%
X59225000Y-35000000D03*
%TO.P,C58,2*%
%TO.N,GND*%
X60775000Y-35000000D03*
%TD*%
%TO.P,C5,1*%
%TO.N,+3.3V*%
X45225000Y-34500000D03*
%TO.P,C5,2*%
%TO.N,GND*%
X46775000Y-34500000D03*
%TD*%
D29*
%TO.P,STATUS1,1,GND_1*%
%TO.N,GND*%
X29770000Y-37800000D03*
%TO.P,STATUS1,2,DIN_2*%
%TO.N,Net-(STATUS1-DIN)*%
X31230000Y-37800000D03*
%TO.P,STATUS1,3,VDD_3*%
%TO.N,+3.3V*%
X31230000Y-43200000D03*
%TO.P,STATUS1,4,DOUT_4*%
%TO.N,unconnected-(STATUS1-DOUT-Pad4)*%
X29770000Y-43200000D03*
%TD*%
D30*
%TO.P,Q1,1,G_1*%
%TO.N,Net-(Q1-G)*%
X22437500Y-23450000D03*
%TO.P,Q1,2,S_2*%
%TO.N,GND*%
X22437500Y-21550000D03*
%TO.P,Q1,3,D_3*%
%TO.N,Net-(D1-A)*%
X20562500Y-22500000D03*
%TD*%
D17*
%TO.P,R19,1*%
%TO.N,Net-(U4-B)*%
X59175000Y-66500000D03*
%TO.P,R19,2*%
%TO.N,RP2350_GPIO_25_5.5V*%
X60825000Y-66500000D03*
%TD*%
D31*
%TO.P,U5,1,VDDIO_1*%
%TO.N,+3.3V*%
X41750000Y-44220000D03*
%TO.P,U5,2,SCK_2*%
%TO.N,RP2350_GPIO_7*%
X41250000Y-44220000D03*
%TO.P,U5,3,VSS_3*%
%TO.N,GND*%
X40720000Y-44500000D03*
%TO.P,U5,4,SDI_4*%
%TO.N,RP2350_GPIO_8*%
X40720000Y-45000000D03*
%TO.P,U5,5,SDO_5*%
%TO.N,RP2350_GPIO_9*%
X40720000Y-45500000D03*
%TO.P,U5,6,CSB_6*%
%TO.N,RP2350_GPIO_11*%
X41250000Y-45780000D03*
%TO.P,U5,7,INT_7*%
%TO.N,RP2350_GPIO_4*%
X41750000Y-45780000D03*
%TO.P,U5,8,VSS_8*%
%TO.N,GND*%
X42280000Y-45500000D03*
%TO.P,U5,9,VSS_9*%
X42280000Y-45000000D03*
%TO.P,U5,10,VDD_10*%
%TO.N,+3.3V*%
X42280000Y-44500000D03*
%TD*%
D21*
%TO.P,C52,1*%
%TO.N,Net-(C52-Pad1)*%
X69317835Y-38180723D03*
%TO.P,C52,2*%
%TO.N,GND*%
X67767835Y-38180723D03*
%TD*%
D16*
%TO.P,C26,1*%
%TO.N,GND*%
X39725000Y-25000000D03*
%TO.P,C26,2*%
%TO.N,Net-(C26-Pad2)*%
X41275000Y-25000000D03*
%TD*%
D14*
%TO.P,R35,1*%
%TO.N,RP2350_USB_DP*%
X41325000Y-28500000D03*
%TO.P,R35,2*%
%TO.N,Net-(USB1-DP1)*%
X39675000Y-28500000D03*
%TD*%
D21*
%TO.P,C71,1*%
%TO.N,GND*%
X65275000Y-63000000D03*
%TO.P,C71,2*%
%TO.N,RP2350_GPIO_26_ADC*%
X63725000Y-63000000D03*
%TD*%
%TO.P,C47,1*%
%TO.N,GND*%
X22275000Y-85500000D03*
%TO.P,C47,2*%
%TO.N,+5V*%
X20725000Y-85500000D03*
%TD*%
D12*
%TO.P,C64,1*%
%TO.N,GND*%
X34601169Y-35392422D03*
%TO.P,C64,2*%
%TO.N,+3.3V*%
X34601169Y-36942422D03*
%TD*%
D14*
%TO.P,R26,1*%
%TO.N,GND*%
X65325000Y-65500000D03*
%TO.P,R26,2*%
%TO.N,RP2350_GPIO_26_ADC*%
X63675000Y-65500000D03*
%TD*%
D16*
%TO.P,C9,1*%
%TO.N,Net-(RP2350-RUN)*%
X29350907Y-46482823D03*
%TO.P,C9,2*%
%TO.N,GND*%
X30900907Y-46482823D03*
%TD*%
D17*
%TO.P,R9,1*%
%TO.N,Net-(LED1-DIN)*%
X22500000Y-15000000D03*
%TO.P,R9,2*%
%TO.N,RP2350_GPIO_25_5.5V*%
X24150000Y-15000000D03*
%TD*%
D32*
%TO.P,Q7,1,G_1*%
%TO.N,Net-(Q7-G)*%
X57896736Y-71431135D03*
%TO.P,Q7,2,S_2*%
%TO.N,BATT+*%
X59796736Y-71431135D03*
%TO.P,Q7,3,D_3*%
%TO.N,BATT_SW+*%
X58846736Y-68951135D03*
%TD*%
D33*
%TO.P,J1,1,Pin_1_1*%
%TO.N,+3.3V*%
X41420000Y-64000000D03*
D34*
%TO.P,J1,2,Pin_2_2*%
%TO.N,GND*%
X43960000Y-64000000D03*
%TO.P,J1,3,Pin_3_3*%
%TO.N,RP2350_SWCLK*%
X46500000Y-64000000D03*
%TO.P,J1,4,Pin_4_4*%
%TO.N,RP2350_SWDIO*%
X49040000Y-64000000D03*
%TD*%
D35*
%TO.P,D2,1,K_1*%
%TO.N,BATT_SW+*%
X79981577Y-15234712D03*
%TO.P,D2,2,A_2*%
%TO.N,Net-(D2-A)*%
X75981577Y-15234712D03*
%TD*%
D17*
%TO.P,R10,1*%
%TO.N,Net-(STATUS1-DIN)*%
X33675000Y-40500000D03*
%TO.P,R10,2*%
%TO.N,RP2350_GPIO_24*%
X35325000Y-40500000D03*
%TD*%
D36*
%TO.P,C15,1*%
%TO.N,+3.3V*%
X38425000Y-53000000D03*
%TO.P,C15,2*%
%TO.N,GND*%
X36525000Y-53000000D03*
%TD*%
D37*
%TO.P,U3,1,FB_1*%
%TO.N,Net-(U3-FB)*%
X59750000Y-54000000D03*
%TO.P,U3,2,EN_2*%
%TO.N,BATT_SW+*%
X59750000Y-53500000D03*
%TO.P,U3,3,VIN_3*%
X59750000Y-53000000D03*
%TO.P,U3,4,GND_4*%
%TO.N,GND*%
X58250000Y-53000000D03*
%TO.P,U3,5,SW_5*%
%TO.N,Net-(U3-SW)*%
X58250000Y-53500000D03*
%TO.P,U3,6,VOUT_6*%
%TO.N,+5V*%
X58250000Y-54000000D03*
%TD*%
D21*
%TO.P,C41,1*%
%TO.N,GND*%
X38466138Y-40482198D03*
%TO.P,C41,2*%
%TO.N,Net-(C40-Pad1)*%
X36916138Y-40482198D03*
%TD*%
D38*
%TO.P,R29,1*%
%TO.N,GND*%
X27500000Y-45825000D03*
%TO.P,R29,2*%
%TO.N,RP2350_GPIO_5*%
X27500000Y-44175000D03*
%TD*%
D33*
%TO.P,J7,1,Pin_1_1*%
%TO.N,BATT_SW+*%
X87275000Y-89500000D03*
D34*
%TO.P,J7,2,Pin_2_2*%
%TO.N,Net-(D4-A)*%
X84735000Y-89500000D03*
%TD*%
D14*
%TO.P,R12,1*%
%TO.N,RP2350_GPIO_18*%
X26825000Y-23500000D03*
%TO.P,R12,2*%
%TO.N,Net-(Q1-G)*%
X25175000Y-23500000D03*
%TD*%
D17*
%TO.P,R32,1*%
%TO.N,Net-(USB1-CC1)*%
X43175000Y-28500000D03*
%TO.P,R32,2*%
%TO.N,GND*%
X44825000Y-28500000D03*
%TD*%
D39*
%TO.P,L5,1,1_1*%
%TO.N,Net-(U3-SW)*%
X52599011Y-59810216D03*
%TO.P,L5,2,2_2*%
%TO.N,+5V*%
X55399011Y-59810216D03*
%TD*%
D40*
%TO.P,C45,1*%
%TO.N,GND*%
X68550000Y-58500000D03*
%TO.P,C45,2*%
%TO.N,Net-(C44-Pad1)*%
X70450000Y-58500000D03*
%TD*%
D41*
%TO.P,FLASH1,1,~{CS}_1*%
%TO.N,RP2350_QSPI_SS*%
X43912500Y-38095000D03*
%TO.P,FLASH1,2,DO/IO_{1}_2*%
%TO.N,RP2350_QSPI_SD1*%
X43912500Y-39365000D03*
%TO.P,FLASH1,3,~{WP}/IO_{2}_3*%
%TO.N,RP2350_QSPI_SD2*%
X43912500Y-40635000D03*
%TO.P,FLASH1,4,GND_4*%
%TO.N,GND*%
X43912500Y-41905000D03*
%TO.P,FLASH1,5,DI/IO_{0}_5*%
%TO.N,RP2350_QSPI_SD0*%
X51087500Y-41905000D03*
%TO.P,FLASH1,6,CLK_6*%
%TO.N,RP2350_QSPI_SCLK*%
X51087500Y-40635000D03*
%TO.P,FLASH1,7,~{HOLD}/~{RESET}/IO_{3}_7*%
%TO.N,RP2350_QSPI_SD3*%
X51087500Y-39365000D03*
%TO.P,FLASH1,8,VCC_8*%
%TO.N,+3.3V*%
X51087500Y-38095000D03*
%TD*%
D14*
%TO.P,R18,1*%
%TO.N,GND*%
X66825000Y-56500000D03*
%TO.P,R18,2*%
%TO.N,Net-(U3-FB)*%
X65175000Y-56500000D03*
%TD*%
D42*
%TO.P,RP2350,1,IOVDD_1*%
%TO.N,+3.3V*%
X44050000Y-46250000D03*
%TO.P,RP2350,2,GPIO0_2*%
%TO.N,RP2350_GPIO_0*%
X44050000Y-46650000D03*
%TO.P,RP2350,3,GPIO1_3*%
%TO.N,RP2350_GPIO_1*%
X44050000Y-47050000D03*
%TO.P,RP2350,4,GPIO2_4*%
%TO.N,RP2350_GPIO_2*%
X44050000Y-47450000D03*
%TO.P,RP2350,5,GPIO3_5*%
%TO.N,RP2350_GPIO_3*%
X44050000Y-47850000D03*
%TO.P,RP2350,6,DVDD_6*%
%TO.N,+1V1*%
X44050000Y-48250000D03*
%TO.P,RP2350,7,GPIO4_7*%
%TO.N,RP2350_GPIO_4*%
X44050000Y-48650000D03*
%TO.P,RP2350,8,GPIO5_8*%
%TO.N,RP2350_GPIO_5*%
X44050000Y-49050000D03*
%TO.P,RP2350,9,GPIO6_9*%
%TO.N,RP2350_GPIO_6*%
X44050000Y-49450000D03*
%TO.P,RP2350,10,GPIO7_10*%
%TO.N,RP2350_GPIO_7*%
X44050000Y-49850000D03*
%TO.P,RP2350,11,IOVDD_11*%
%TO.N,+3.3V*%
X44050000Y-50250000D03*
%TO.P,RP2350,12,GPIO8_12*%
%TO.N,RP2350_GPIO_8*%
X44050000Y-50650000D03*
%TO.P,RP2350,13,GPIO9_13*%
%TO.N,RP2350_GPIO_9*%
X44050000Y-51050000D03*
%TO.P,RP2350,14,GPIO10_14*%
%TO.N,RP2350_GPIO_10*%
X44050000Y-51450000D03*
%TO.P,RP2350,15,GPIO11_15*%
%TO.N,RP2350_GPIO_11*%
X44050000Y-51850000D03*
D43*
%TO.P,RP2350,16,GPIO12_16*%
%TO.N,RP2350_GPIO_12*%
X44700000Y-52500000D03*
%TO.P,RP2350,17,GPIO13_17*%
%TO.N,RP2350_GPIO_13*%
X45100000Y-52500000D03*
%TO.P,RP2350,18,GPIO14_18*%
%TO.N,RP2350_GPIO_14*%
X45500000Y-52500000D03*
%TO.P,RP2350,19,GPIO15_19*%
%TO.N,RP2350_GPIO_15*%
X45900000Y-52500000D03*
%TO.P,RP2350,20,IOVDD_20*%
%TO.N,+3.3V*%
X46300000Y-52500000D03*
%TO.P,RP2350,21,XIN_21*%
%TO.N,RP2350_XIN*%
X46700000Y-52500000D03*
%TO.P,RP2350,22,XOUT_22*%
%TO.N,RP2350_XOUT*%
X47100000Y-52500000D03*
%TO.P,RP2350,23,DVDD_23*%
%TO.N,+1V1*%
X47500000Y-52500000D03*
%TO.P,RP2350,24,SWCLK_24*%
%TO.N,RP2350_SWCLK*%
X47900000Y-52500000D03*
%TO.P,RP2350,25,SWDIO_25*%
%TO.N,RP2350_SWDIO*%
X48300000Y-52500000D03*
%TO.P,RP2350,26,RUN_26*%
%TO.N,Net-(RP2350-RUN)*%
X48700000Y-52500000D03*
%TO.P,RP2350,27,GPIO16_27*%
%TO.N,RP2350_GPIO_16*%
X49100000Y-52500000D03*
%TO.P,RP2350,28,GPIO17_28*%
%TO.N,RP2350_GPIO_17*%
X49500000Y-52500000D03*
%TO.P,RP2350,29,GPIO18_29*%
%TO.N,RP2350_GPIO_18*%
X49900000Y-52500000D03*
%TO.P,RP2350,30,IOVDD_30*%
%TO.N,+3.3V*%
X50300000Y-52500000D03*
D42*
%TO.P,RP2350,31,GPIO19_31*%
%TO.N,RP2350_GPIO_19*%
X50950000Y-51850000D03*
%TO.P,RP2350,32,GPIO20_32*%
%TO.N,RP2350_GPIO_20*%
X50950000Y-51450000D03*
%TO.P,RP2350,33,GPIO21_33*%
%TO.N,RP2350_GPIO_21*%
X50950000Y-51050000D03*
%TO.P,RP2350,34,GPIO22_34*%
%TO.N,RP2350_GPIO_22*%
X50950000Y-50650000D03*
%TO.P,RP2350,35,GPIO23_35*%
%TO.N,RP2350_GPIO_23*%
X50950000Y-50250000D03*
%TO.P,RP2350,36,GPIO24_36*%
%TO.N,RP2350_GPIO_24*%
X50950000Y-49850000D03*
%TO.P,RP2350,37,GPIO25_37*%
%TO.N,RP2350_GPIO_25*%
X50950000Y-49450000D03*
%TO.P,RP2350,38,IOVDD_38*%
%TO.N,+3.3V*%
X50950000Y-49050000D03*
%TO.P,RP2350,39,DVDD_39*%
%TO.N,+1V1*%
X50950000Y-48650000D03*
%TO.P,RP2350,40,GPIO26/ADC0_40*%
%TO.N,RP2350_GPIO_26_ADC*%
X50950000Y-48250000D03*
%TO.P,RP2350,41,GPIO27/ADC1_41*%
%TO.N,RP2350_GPIO_27_ADC*%
X50950000Y-47850000D03*
%TO.P,RP2350,42,GPIO28/ADC2_42*%
%TO.N,RP2350_GPIO_28_ADC*%
X50950000Y-47450000D03*
%TO.P,RP2350,43,GPIO29/ADC3_43*%
%TO.N,RP2350_GPIO_29_ADC*%
X50950000Y-47050000D03*
%TO.P,RP2350,44,ADC_AVDD_44*%
%TO.N,+3.3V*%
X50950000Y-46650000D03*
%TO.P,RP2350,45,IOVDD_45*%
X50950000Y-46250000D03*
D43*
%TO.P,RP2350,46,VREG_AVDD_46*%
%TO.N,Net-(RP2350-VREG_AVDD)*%
X50300000Y-45600000D03*
%TO.P,RP2350,47,VREG_PGND_47*%
%TO.N,GND*%
X49900000Y-45600000D03*
%TO.P,RP2350,48,VREG_LX_48*%
%TO.N,Net-(RP2350-VREG_LX)*%
X49500000Y-45600000D03*
%TO.P,RP2350,49,VREG_VIN_49*%
%TO.N,+3.3V*%
X49100000Y-45600000D03*
%TO.P,RP2350,50,VREG_FB_50*%
%TO.N,+1V1*%
X48700000Y-45600000D03*
%TO.P,RP2350,51,USB_DM_51*%
%TO.N,RP2350_USB_DM*%
X48300000Y-45600000D03*
%TO.P,RP2350,52,USB_DP_52*%
%TO.N,RP2350_USB_DP*%
X47900000Y-45600000D03*
%TO.P,RP2350,53,USB_OTP_VDD_53*%
%TO.N,+3.3V*%
X47500000Y-45600000D03*
%TO.P,RP2350,54,QSPI_IOVDD_54*%
X47100000Y-45600000D03*
%TO.P,RP2350,55,QSPI_SD3_55*%
%TO.N,RP2350_QSPI_SD3*%
X46700000Y-45600000D03*
%TO.P,RP2350,56,QSPI_SCLK_56*%
%TO.N,RP2350_QSPI_SCLK*%
X46300000Y-45600000D03*
%TO.P,RP2350,57,QSPI_SD0_57*%
%TO.N,RP2350_QSPI_SD0*%
X45900000Y-45600000D03*
%TO.P,RP2350,58,QSPI_SD2_58*%
%TO.N,RP2350_QSPI_SD2*%
X45500000Y-45600000D03*
%TO.P,RP2350,59,QSPI_SD1_59*%
%TO.N,RP2350_QSPI_SD1*%
X45100000Y-45600000D03*
%TO.P,RP2350,60,~{QSPI_SS}_60*%
%TO.N,RP2350_QSPI_SS*%
X44700000Y-45600000D03*
D44*
%TO.P,RP2350,61,GND_61*%
%TO.N,GND*%
X47500000Y-49050000D03*
%TD*%
D45*
%TO.P,C72,1*%
%TO.N,GND*%
X52460000Y-68500000D03*
%TO.P,C72,2*%
%TO.N,BATT_SW+*%
X55540000Y-68500000D03*
%TD*%
D22*
%TO.P,L7,1,1_1*%
%TO.N,ESP32_VDD_3P3*%
X56515000Y-46000000D03*
%TO.P,L7,2,2_2*%
%TO.N,+3.3V*%
X57485000Y-46000000D03*
%TD*%
D46*
%TO.P,L6,1,1_1*%
%TO.N,ESP32_40M_X0*%
X69765727Y-41407983D03*
%TO.P,L6,2,2_2*%
%TO.N,Net-(C52-Pad1)*%
X67640727Y-41407983D03*
%TD*%
D14*
%TO.P,R7,1*%
%TO.N,Net-(C7-Pad1)*%
X54325000Y-56000000D03*
%TO.P,R7,2*%
%TO.N,RP2350_XOUT*%
X52675000Y-56000000D03*
%TD*%
D17*
%TO.P,R8,1*%
%TO.N,GND*%
X32750907Y-46482823D03*
%TO.P,R8,2*%
%TO.N,Net-(R8-Pad2)*%
X34400907Y-46482823D03*
%TD*%
D47*
%TO.P,U4,1,VCCA_1*%
%TO.N,+3.3V*%
X58150000Y-61050000D03*
%TO.P,U4,2,GND_2*%
%TO.N,GND*%
X58150000Y-62000000D03*
%TO.P,U4,3,A_3*%
%TO.N,RP2350_GPIO_25*%
X58150000Y-62950000D03*
%TO.P,U4,4,B_4*%
%TO.N,Net-(U4-B)*%
X60850000Y-62950000D03*
%TO.P,U4,5,DIR_5*%
%TO.N,+3.3V*%
X60850000Y-62000000D03*
%TO.P,U4,6,VCCB_6*%
%TO.N,+5V*%
X60850000Y-61050000D03*
%TD*%
D21*
%TO.P,C53,1*%
%TO.N,+3.3V*%
X60275000Y-44500000D03*
%TO.P,C53,2*%
%TO.N,GND*%
X58725000Y-44500000D03*
%TD*%
D14*
%TO.P,R17,1*%
%TO.N,Net-(U3-FB)*%
X63325000Y-56000000D03*
%TO.P,R17,2*%
%TO.N,+5V*%
X61675000Y-56000000D03*
%TD*%
D17*
%TO.P,R34,1*%
%TO.N,Net-(USB1-DN1)*%
X60175000Y-28500000D03*
%TO.P,R34,2*%
%TO.N,RP2350_USB_DM*%
X61825000Y-28500000D03*
%TD*%
D48*
%TO.P,JP1,1,SIG_1*%
%TO.N,Net-(JP1-SIG)*%
X73500000Y-48240000D03*
D49*
%TO.P,JP1,2,GND_2*%
%TO.N,GND*%
X74970000Y-49760000D03*
%TO.P,JP1,3,GND_3*%
X72030000Y-49760000D03*
%TD*%
D12*
%TO.P,C10,1*%
%TO.N,+1V1*%
X50000000Y-59496554D03*
%TO.P,C10,2*%
%TO.N,GND*%
X50000000Y-61046554D03*
%TD*%
D16*
%TO.P,C65,1*%
%TO.N,GND*%
X58225000Y-50500000D03*
%TO.P,C65,2*%
%TO.N,BATT_SW+*%
X59775000Y-50500000D03*
%TD*%
D50*
%TO.P,R27,1*%
%TO.N,RP2350_GPIO_22*%
X29700000Y-64925000D03*
%TO.P,R27,2*%
%TO.N,Net-(BUZZER2-+)*%
X29700000Y-66575000D03*
%TD*%
D12*
%TO.P,C19,1*%
%TO.N,+3.3V*%
X31500000Y-55050000D03*
%TO.P,C19,2*%
%TO.N,GND*%
X31500000Y-56600000D03*
%TD*%
%TO.P,C12,1*%
%TO.N,+1V1*%
X50000000Y-56271554D03*
%TO.P,C12,2*%
%TO.N,GND*%
X50000000Y-57821554D03*
%TD*%
D17*
%TO.P,R20,1*%
%TO.N,GND*%
X74731250Y-21000000D03*
%TO.P,R20,2*%
%TO.N,Net-(Q2-G)*%
X76381250Y-21000000D03*
%TD*%
D16*
%TO.P,C44,1*%
%TO.N,Net-(C44-Pad1)*%
X70225000Y-60500000D03*
%TO.P,C44,2*%
%TO.N,+5V*%
X71775000Y-60500000D03*
%TD*%
D40*
%TO.P,C43,1*%
%TO.N,GND*%
X67050000Y-63000000D03*
%TO.P,C43,2*%
%TO.N,+5V*%
X68950000Y-63000000D03*
%TD*%
D16*
%TO.P,C68,1*%
%TO.N,+3.3V*%
X36950000Y-46493384D03*
%TO.P,C68,2*%
%TO.N,GND*%
X38500000Y-46493384D03*
%TD*%
D21*
%TO.P,C51,1*%
%TO.N,ESP32_VDD_3P3*%
X60275000Y-47500000D03*
%TO.P,C51,2*%
%TO.N,GND*%
X58725000Y-47500000D03*
%TD*%
D33*
%TO.P,J4,1,Pin_1_1*%
%TO.N,BATT_SW+*%
X14775000Y-10500000D03*
D34*
%TO.P,J4,2,Pin_2_2*%
%TO.N,Net-(D1-A)*%
X12235000Y-10500000D03*
%TD*%
D18*
%TO.P,Q2,1,G_1*%
%TO.N,Net-(Q2-G)*%
X78618750Y-21050000D03*
%TO.P,Q2,2,S_2*%
%TO.N,GND*%
X78618750Y-22950000D03*
%TO.P,Q2,3,D_3*%
%TO.N,Net-(D2-A)*%
X80493750Y-22000000D03*
%TD*%
D17*
%TO.P,R25,1*%
%TO.N,BATT_SW+*%
X63675000Y-60000000D03*
%TO.P,R25,2*%
%TO.N,RP2350_GPIO_26_ADC*%
X65325000Y-60000000D03*
%TD*%
%TO.P,R16,1*%
%TO.N,+3.3V*%
X59175000Y-31500000D03*
%TO.P,R16,2*%
%TO.N,RP2350_GPIO_15*%
X60825000Y-31500000D03*
%TD*%
D51*
%TO.P,Y1,1,1_1*%
%TO.N,RP2350_XIN*%
X53500000Y-52850000D03*
%TO.P,Y1,2,G_2*%
%TO.N,GND*%
X55700000Y-52850000D03*
%TO.P,Y1,3,3_3*%
%TO.N,Net-(C7-Pad1)*%
X55700000Y-51150000D03*
%TO.P,Y1,4,G_4*%
%TO.N,GND*%
X53500000Y-51150000D03*
%TD*%
D16*
%TO.P,C48,1*%
%TO.N,GND*%
X78000000Y-84500000D03*
%TO.P,C48,2*%
%TO.N,+5V*%
X79550000Y-84500000D03*
%TD*%
%TO.P,C4,1*%
%TO.N,GND*%
X41725000Y-33000000D03*
%TO.P,C4,2*%
%TO.N,Net-(RP2350-VREG_AVDD)*%
X43275000Y-33000000D03*
%TD*%
D14*
%TO.P,R3,1*%
%TO.N,RP2350_QSPI_SS*%
X41825000Y-41000000D03*
%TO.P,R3,2*%
%TO.N,Net-(R3-Pad2)*%
X40175000Y-41000000D03*
%TD*%
D15*
%TO.P,SW4,1,1_1*%
%TO.N,RP2350_GPIO_14*%
X71910000Y-28680000D03*
%TO.P,SW4,2,2_2*%
%TO.N,unconnected-(SW4-Pad2)*%
X76110000Y-28680000D03*
%TO.P,SW4,3,3_3*%
%TO.N,unconnected-(SW4-Pad3)*%
X71910000Y-30820000D03*
%TO.P,SW4,4,4_4*%
%TO.N,GND*%
X76110000Y-30820000D03*
%TD*%
D52*
%TO.P,ESP32,1,LNA_IN_1*%
%TO.N,Net-(ESP32-LNA_IN)*%
X62125000Y-43675000D03*
%TO.P,ESP32,2,VDD3P3_2*%
%TO.N,ESP32_VDD_3P3*%
X62125000Y-44175000D03*
%TO.P,ESP32,3,VDD3P3_3*%
X62125000Y-44675000D03*
%TO.P,ESP32,4,XTAL_32K_P_4*%
%TO.N,unconnected-(ESP32-XTAL_32K_P-Pad4)*%
X62125000Y-45175000D03*
%TO.P,ESP32,5,XTAL_32K_N_5*%
%TO.N,unconnected-(ESP32-XTAL_32K_N-Pad5)*%
X62125000Y-45675000D03*
%TO.P,ESP32,6,GPIO2_6*%
%TO.N,RP2350_GPIO_12*%
X62125000Y-46175000D03*
%TO.P,ESP32,7,CHIP_EN_7*%
%TO.N,RP2350_GPIO_14*%
X62125000Y-46675000D03*
%TO.P,ESP32,8,GPIO3_8*%
%TO.N,unconnected-(ESP32-GPIO3-Pad8)*%
X62125000Y-47175000D03*
D53*
%TO.P,ESP32,9,MTMS_9*%
%TO.N,unconnected-(ESP32-MTMS-Pad9)*%
X62825000Y-47875000D03*
%TO.P,ESP32,10,MTDI_10*%
%TO.N,unconnected-(ESP32-MTDI-Pad10)*%
X63325000Y-47875000D03*
%TO.P,ESP32,11,VDD3P3_RTC_11*%
%TO.N,+3.3V*%
X63825000Y-47875000D03*
%TO.P,ESP32,12,MTCK_12*%
%TO.N,unconnected-(ESP32-MTCK-Pad12)*%
X64325000Y-47875000D03*
%TO.P,ESP32,13,MTDO_13*%
%TO.N,unconnected-(ESP32-MTDO-Pad13)*%
X64825000Y-47875000D03*
%TO.P,ESP32,14,GPIO8_14*%
%TO.N,Net-(ESP32-GPIO8)*%
X65325000Y-47875000D03*
%TO.P,ESP32,15,GPIO9_15*%
%TO.N,RP2350_GPIO_15*%
X65825000Y-47875000D03*
%TO.P,ESP32,16,GPIO10_16*%
%TO.N,RP2350_GPIO_13*%
X66325000Y-47875000D03*
D52*
%TO.P,ESP32,17,VDD3P3_CPU_17*%
%TO.N,+3.3V*%
X67025000Y-47175000D03*
%TO.P,ESP32,18,VDD_SPI_18*%
X67025000Y-46675000D03*
%TO.P,ESP32,19,SPIHD_19*%
%TO.N,unconnected-(ESP32-SPIHD-Pad19)*%
X67025000Y-46175000D03*
%TO.P,ESP32,20,SPIWP_20*%
%TO.N,unconnected-(ESP32-SPIWP-Pad20)*%
X67025000Y-45675000D03*
%TO.P,ESP32,21,SPICS0_21*%
%TO.N,unconnected-(ESP32-SPICS0-Pad21)*%
X67025000Y-45175000D03*
%TO.P,ESP32,22,SPICLK_22*%
%TO.N,unconnected-(ESP32-SPICLK-Pad22)*%
X67025000Y-44675000D03*
%TO.P,ESP32,23,SPID_23*%
%TO.N,unconnected-(ESP32-SPID-Pad23)*%
X67025000Y-44175000D03*
%TO.P,ESP32,24,SPIQ_24*%
%TO.N,unconnected-(ESP32-SPIQ-Pad24)*%
X67025000Y-43675000D03*
D53*
%TO.P,ESP32,25,GPIO18_25*%
%TO.N,unconnected-(ESP32-GPIO18-Pad25)*%
X66325000Y-42975000D03*
%TO.P,ESP32,26,GPIO19_26*%
%TO.N,unconnected-(ESP32-GPIO19-Pad26)*%
X65825000Y-42975000D03*
%TO.P,ESP32,27,U0RXD_27*%
%TO.N,RP2350_GPIO_16*%
X65325000Y-42975000D03*
%TO.P,ESP32,28,U0TXD_28*%
%TO.N,RP2350_GPIO_17*%
X64825000Y-42975000D03*
%TO.P,ESP32,29,XTAL_N_29*%
%TO.N,ESP32_40M_X1*%
X64325000Y-42975000D03*
%TO.P,ESP32,30,XTAL_P_30*%
%TO.N,ESP32_40M_X0*%
X63825000Y-42975000D03*
%TO.P,ESP32,31,VDDA_31*%
%TO.N,+3.3V*%
X63325000Y-42975000D03*
%TO.P,ESP32,32,VDDA_32*%
X62825000Y-42975000D03*
D54*
%TO.P,ESP32,33,GND_33*%
%TO.N,GND*%
X64575000Y-45425000D03*
%TD*%
D14*
%TO.P,R6,1*%
%TO.N,Net-(RP2350-VREG_AVDD)*%
X50325000Y-34500000D03*
%TO.P,R6,2*%
%TO.N,+3.3V*%
X48675000Y-34500000D03*
%TD*%
D17*
%TO.P,R31,1*%
%TO.N,+3.3V*%
X39891327Y-53824738D03*
%TO.P,R31,2*%
%TO.N,RP2350_GPIO_10*%
X41541327Y-53824738D03*
%TD*%
D16*
%TO.P,C54,1*%
%TO.N,+3.3V*%
X57405902Y-41489611D03*
%TO.P,C54,2*%
%TO.N,GND*%
X58955902Y-41489611D03*
%TD*%
D21*
%TO.P,C61,1*%
%TO.N,Net-(JP1-SIG)*%
X75500000Y-40500000D03*
%TO.P,C61,2*%
%TO.N,GND*%
X73950000Y-40500000D03*
%TD*%
D16*
%TO.P,C46,1*%
%TO.N,GND*%
X83500000Y-21500000D03*
%TO.P,C46,2*%
%TO.N,+5V*%
X85050000Y-21500000D03*
%TD*%
D40*
%TO.P,C71C,1*%
%TO.N,GND*%
X53050000Y-71500000D03*
%TO.P,C71C,2*%
%TO.N,BATT_SW+*%
X54950000Y-71500000D03*
%TD*%
D13*
%TO.P,C20,1*%
%TO.N,+3.3V*%
X31500000Y-59825000D03*
%TO.P,C20,2*%
%TO.N,GND*%
X31500000Y-58275000D03*
%TD*%
D17*
%TO.P,R23,1*%
%TO.N,RP2350_GPIO_21*%
X72350000Y-74500000D03*
%TO.P,R23,2*%
%TO.N,Net-(Q4-G)*%
X74000000Y-74500000D03*
%TD*%
D14*
%TO.P,R14,1*%
%TO.N,+3.3V*%
X69095605Y-50534712D03*
%TO.P,R14,2*%
%TO.N,Net-(ESP32-GPIO8)*%
X67445605Y-50534712D03*
%TD*%
D13*
%TO.P,C21,1*%
%TO.N,+3.3V*%
X34500000Y-60050000D03*
%TO.P,C21,2*%
%TO.N,GND*%
X34500000Y-58500000D03*
%TD*%
D12*
%TO.P,C38,1*%
%TO.N,+3.3V*%
X34500000Y-50225000D03*
%TO.P,C38,2*%
%TO.N,GND*%
X34500000Y-51775000D03*
%TD*%
D14*
%TO.P,R11,1*%
%TO.N,GND*%
X26825000Y-20500000D03*
%TO.P,R11,2*%
%TO.N,Net-(Q1-G)*%
X25175000Y-20500000D03*
%TD*%
D33*
%TO.P,J5,1,Pin_1_1*%
%TO.N,BATT_SW+*%
X87017208Y-10500000D03*
D34*
%TO.P,J5,2,Pin_2_2*%
%TO.N,Net-(D2-A)*%
X84477208Y-10500000D03*
%TD*%
D13*
%TO.P,C23,1*%
%TO.N,+3.3V*%
X41000000Y-60375000D03*
%TO.P,C23,2*%
%TO.N,GND*%
X41000000Y-58825000D03*
%TD*%
D18*
%TO.P,Q3,1,G_1*%
%TO.N,Net-(Q3-G)*%
X22562500Y-76550000D03*
%TO.P,Q3,2,S_2*%
%TO.N,GND*%
X22562500Y-78450000D03*
%TO.P,Q3,3,D_3*%
%TO.N,Net-(D3-A)*%
X24437500Y-77500000D03*
%TD*%
D16*
%TO.P,C57,1*%
%TO.N,+3.3V*%
X60725000Y-38000000D03*
%TO.P,C57,2*%
%TO.N,GND*%
X62275000Y-38000000D03*
%TD*%
D21*
%TO.P,C7,1*%
%TO.N,Net-(C7-Pad1)*%
X54775000Y-45000000D03*
%TO.P,C7,2*%
%TO.N,GND*%
X53225000Y-45000000D03*
%TD*%
D15*
%TO.P,SW5,1,1_1*%
%TO.N,RP2350_GPIO_15*%
X63900000Y-32430000D03*
%TO.P,SW5,2,2_2*%
%TO.N,unconnected-(SW5-Pad2)*%
X68100000Y-32430000D03*
%TO.P,SW5,3,3_3*%
%TO.N,unconnected-(SW5-Pad3)*%
X63900000Y-34570000D03*
%TO.P,SW5,4,4_4*%
%TO.N,GND*%
X68100000Y-34570000D03*
%TD*%
D55*
%TO.P,Y3,1,1_1*%
%TO.N,Net-(C52-Pad1)*%
X64150000Y-38400000D03*
%TO.P,Y3,2,G_2*%
%TO.N,GND*%
X64150000Y-40600000D03*
%TO.P,Y3,3,3_3*%
%TO.N,ESP32_40M_X1*%
X65850000Y-40600000D03*
%TO.P,Y3,4,G_4*%
%TO.N,GND*%
X65850000Y-38400000D03*
%TD*%
D17*
%TO.P,R13,1*%
%TO.N,RP2350_GPIO_19*%
X74731250Y-24000000D03*
%TO.P,R13,2*%
%TO.N,Net-(Q2-G)*%
X76381250Y-24000000D03*
%TD*%
D16*
%TO.P,C39,1*%
%TO.N,+3.3V*%
X36725000Y-49500000D03*
%TO.P,C39,2*%
%TO.N,GND*%
X38275000Y-49500000D03*
%TD*%
%TO.P,C3,1*%
%TO.N,+3.3V*%
X52128835Y-35794681D03*
%TO.P,C3,2*%
%TO.N,GND*%
X53678835Y-35794681D03*
%TD*%
%TO.P,C66,1*%
%TO.N,GND*%
X53225000Y-64000000D03*
%TO.P,C66,2*%
%TO.N,+3.3V*%
X54775000Y-64000000D03*
%TD*%
D10*
%TO.P,D4,1,K_1*%
%TO.N,BATT_SW+*%
X83000000Y-78500000D03*
%TO.P,D4,2,A_2*%
%TO.N,Net-(D4-A)*%
X83000000Y-74500000D03*
%TD*%
D56*
%TO.P,U12,1,VIN_1*%
%TO.N,BATT_SW+*%
X62362500Y-51000000D03*
%TO.P,U12,2,GND_2*%
%TO.N,GND*%
X62362500Y-51950000D03*
%TO.P,U12,3,EN_3*%
%TO.N,BATT_SW+*%
X62362500Y-52900000D03*
%TO.P,U12,4,NC_4*%
%TO.N,unconnected-(U12-NC-Pad4)*%
X64637500Y-52900000D03*
%TO.P,U12,5,VOUT_5*%
%TO.N,+3.3V*%
X64637500Y-51000000D03*
%TD*%
D36*
%TO.P,C42,1*%
%TO.N,BATT_SW+*%
X59950000Y-57000000D03*
%TO.P,C42,2*%
%TO.N,GND*%
X58050000Y-57000000D03*
%TD*%
D14*
%TO.P,R33,1*%
%TO.N,GND*%
X57325000Y-28500000D03*
%TO.P,R33,2*%
%TO.N,Net-(USB1-CC2)*%
X55675000Y-28500000D03*
%TD*%
D16*
%TO.P,C59,1*%
%TO.N,+3.3V*%
X53725000Y-41500000D03*
%TO.P,C59,2*%
%TO.N,GND*%
X55275000Y-41500000D03*
%TD*%
D13*
%TO.P,C22,1*%
%TO.N,+3.3V*%
X38000000Y-60100000D03*
%TO.P,C22,2*%
%TO.N,GND*%
X38000000Y-58550000D03*
%TD*%
D57*
%TO.P,L1,1,1_1*%
%TO.N,+1V1*%
X56275000Y-32600000D03*
%TO.P,L1,2,2_2*%
%TO.N,Net-(RP2350-VREG_LX)*%
X56275000Y-35400000D03*
%TD*%
D33*
%TO.P,J6,1,Pin_1_1*%
%TO.N,BATT_SW+*%
X16000000Y-89500000D03*
D34*
%TO.P,J6,2,Pin_2_2*%
%TO.N,Net-(D3-A)*%
X13460000Y-89500000D03*
%TD*%
D21*
%TO.P,C6,1*%
%TO.N,GND*%
X53275000Y-32500000D03*
%TO.P,C6,2*%
%TO.N,+1V1*%
X51725000Y-32500000D03*
%TD*%
D36*
%TO.P,C63,1*%
%TO.N,GND*%
X27280062Y-38846484D03*
%TO.P,C63,2*%
%TO.N,Net-(C62-Pad1)*%
X25380062Y-38846484D03*
%TD*%
D58*
%TO.P,SW2,1,1_1*%
%TO.N,Net-(RP2350-RUN)*%
X29430000Y-52600000D03*
%TO.P,SW2,2,2_2*%
%TO.N,unconnected-(SW2-Pad2)*%
X29430000Y-48400000D03*
%TO.P,SW2,3,3_3*%
%TO.N,Net-(R8-Pad2)*%
X31570000Y-52600000D03*
%TO.P,SW2,4,4_4*%
%TO.N,unconnected-(SW2-Pad4)*%
X31570000Y-48400000D03*
%TD*%
D21*
%TO.P,C55,1*%
%TO.N,ESP32_40M_X1*%
X62275000Y-41000000D03*
%TO.P,C55,2*%
%TO.N,GND*%
X60725000Y-41000000D03*
%TD*%
D59*
%TO.P,J3,1,Pin_1_1*%
%TO.N,BATT+*%
X50500000Y-78550000D03*
D60*
%TO.P,J3,2,Pin_2_2*%
%TO.N,GND*%
X52500000Y-78550000D03*
%TD*%
D61*
%TO.N,+3.3V*%
X52000000Y-46500000D03*
D62*
%TO.N,BATT_SW+*%
X61100000Y-59949998D03*
D61*
%TO.N,GND*%
X43965615Y-65485677D03*
X76027306Y-49765730D03*
%TO.N,+3.3V*%
X43750000Y-45750000D03*
X40000000Y-60900000D03*
X57808519Y-43342951D03*
X36732092Y-50450245D03*
X61719669Y-61780331D03*
X38300000Y-44119201D03*
X36948969Y-45515309D03*
X50626085Y-52873915D03*
X35500000Y-50500000D03*
X32086113Y-43200930D03*
X63000000Y-58500000D03*
X62279905Y-42500000D03*
X39711585Y-51230721D03*
X58266819Y-45998630D03*
X28000000Y-42500000D03*
X64318750Y-50681250D03*
X60272916Y-45482139D03*
X45900000Y-46500000D03*
X33000000Y-43200930D03*
X34630257Y-38008611D03*
X39501087Y-53002738D03*
X61851473Y-50200000D03*
X39407406Y-49214960D03*
%TO.N,GND*%
X67748088Y-38928787D03*
D62*
X22101161Y-79688086D03*
D61*
X38346129Y-66972534D03*
X66144811Y-46961931D03*
X58947326Y-39367964D03*
X33500000Y-58500000D03*
X38457019Y-41512884D03*
X34500000Y-53000000D03*
D62*
X54450000Y-78550000D03*
D61*
X37002628Y-58554768D03*
X69000000Y-34500000D03*
X87699691Y-16933828D03*
X70970000Y-49760000D03*
X58500000Y-28500000D03*
X55270364Y-42486060D03*
X24594266Y-55515345D03*
X33532269Y-56806671D03*
X53242748Y-33482233D03*
D62*
X22432795Y-20323588D03*
D63*
X66414740Y-64914740D03*
D61*
X49000000Y-57771554D03*
X73786694Y-44038688D03*
X30905594Y-45408145D03*
X27489969Y-46838110D03*
D62*
X48500000Y-70500000D03*
D61*
X60777737Y-35888596D03*
X41000000Y-48830000D03*
X58199997Y-52500000D03*
X22275000Y-84380529D03*
X17713500Y-86695189D03*
X53245647Y-29218019D03*
X40051033Y-58830330D03*
X74720419Y-19647844D03*
D62*
X50500000Y-69500000D03*
X58218153Y-49464184D03*
D61*
X67511481Y-58492627D03*
X27284717Y-37673313D03*
X40620558Y-32994259D03*
X89075870Y-85769126D03*
D62*
X76549583Y-77500000D03*
D61*
X40000000Y-57000000D03*
X67767907Y-56502457D03*
X55266537Y-46974296D03*
X38500000Y-48500000D03*
D63*
X71000000Y-77500000D03*
D61*
X39500000Y-43500000D03*
D63*
X82994669Y-22494669D03*
D62*
X49224338Y-69446525D03*
D61*
X46770364Y-33400491D03*
X38500000Y-45500000D03*
X58955938Y-40607993D03*
X30501087Y-58210315D03*
X42996102Y-58770050D03*
X53214195Y-62878353D03*
X28860587Y-37793872D03*
X36400933Y-34918799D03*
X66671674Y-38429331D03*
X48900001Y-47680697D03*
X53664702Y-34730873D03*
X78720061Y-31826740D03*
X61369873Y-51954072D03*
X49187636Y-61031361D03*
X65321489Y-66546470D03*
X42964388Y-45901057D03*
X58725000Y-44500000D03*
X36925127Y-56780837D03*
D62*
X50000000Y-70611093D03*
X78983198Y-24369958D03*
D61*
X50299999Y-44499996D03*
X47982052Y-61057195D03*
X65256425Y-64026790D03*
D62*
X58056008Y-58224034D03*
D61*
X55424848Y-53760367D03*
X40718697Y-69551667D03*
X34609780Y-34393509D03*
X60712646Y-40091315D03*
D63*
X66140130Y-64000000D03*
X76500000Y-84500000D03*
D61*
X32749952Y-45426856D03*
X72725000Y-40500000D03*
X39522931Y-26063514D03*
X62279905Y-38971844D03*
X43878353Y-42739485D03*
D62*
X51375039Y-70628108D03*
D61*
X29884603Y-79537457D03*
X67725000Y-67500000D03*
X52228244Y-44991106D03*
X57095429Y-62528100D03*
X53503827Y-49919627D03*
X46748412Y-29540943D03*
X76059166Y-31968827D03*
X26795314Y-19313274D03*
X39341146Y-50012214D03*
D62*
X47758209Y-69352008D03*
D61*
X63373541Y-40625216D03*
X57675959Y-47482139D03*
X30466642Y-56591388D03*
X35500000Y-53000000D03*
X48000000Y-57771554D03*
X17728743Y-16693754D03*
%TO.N,Net-(Q7-G)*%
X58000000Y-72500000D03*
X24591365Y-53213391D03*
X64550000Y-72275000D03*
%TO.N,RP2350_GPIO_20*%
X52289111Y-53100000D03*
X51000000Y-57500000D03*
%TO.N,RP2350_GPIO_14*%
X42842537Y-54900000D03*
X61000000Y-49000000D03*
X63000000Y-57699997D03*
X56151150Y-61535238D03*
X60000000Y-37000000D03*
%TO.N,RP2350_GPIO_15*%
X60500000Y-58500000D03*
X45470058Y-55526141D03*
X43500000Y-67500000D03*
X60950000Y-56947060D03*
X67500000Y-51509712D03*
X58347648Y-64347648D03*
X62500000Y-33500000D03*
X45275735Y-57900000D03*
X44590006Y-54634552D03*
%TO.N,+1V1*%
X56000000Y-37404585D03*
X51850000Y-47800000D03*
X47576085Y-51650000D03*
X42500000Y-47562500D03*
X48790005Y-44117598D03*
%TO.N,RP2350_XIN*%
X51000000Y-56699997D03*
X46282628Y-55483537D03*
%TO.N,RP2350_GPIO_11*%
X42000000Y-52600000D03*
X41000000Y-46500000D03*
X37000145Y-44716945D03*
D63*
%TO.N,+5V*%
X70500000Y-64000000D03*
X43417438Y-66200000D03*
X68000000Y-81000000D03*
X68500000Y-65000000D03*
D61*
X85000000Y-20000000D03*
D63*
X81000000Y-84000000D03*
X79500000Y-82500000D03*
X11000000Y-84500000D03*
X41500000Y-66293173D03*
D64*
%TO.N,RP2350_GPIO_9*%
X45000000Y-51000000D03*
D61*
X40786028Y-47562500D03*
D64*
X42220872Y-48782934D03*
D61*
%TO.N,RP2350_GPIO_5*%
X29500000Y-45000000D03*
X35325735Y-45825735D03*
X37100000Y-48000000D03*
X38900000Y-47807179D03*
D64*
%TO.N,RP2350_GPIO_6*%
X42500000Y-52000000D03*
X44899746Y-49779944D03*
D61*
%TO.N,RP2350_GPIO_10*%
X40975734Y-52824264D03*
X42601761Y-51049709D03*
D64*
%TO.N,RP2350_GPIO_7*%
X43090729Y-49409271D03*
D61*
X40227281Y-52107059D03*
D64*
X41076366Y-50411970D03*
D61*
%TO.N,RP2350_GPIO_8*%
X39500000Y-45500000D03*
X40939668Y-49674530D03*
%TO.N,Net-(USB1-CC1)*%
X45500000Y-29500000D03*
X51694181Y-28662774D03*
%TO.N,Net-(USB1-CC2)*%
X48900000Y-29000000D03*
X54500000Y-29500000D03*
D63*
%TO.N,RP2350_GPIO_25_5.5V*%
X26000000Y-15000000D03*
X59008345Y-67816133D03*
X28853113Y-61449829D03*
X28500000Y-33000000D03*
D61*
%TO.N,RP2350_GPIO_4*%
X45000000Y-46500000D03*
X41963251Y-46904292D03*
%TO.N,Net-(C52-Pad1)*%
X70000000Y-39000000D03*
X67841712Y-41382725D03*
%TO.N,RP2350_USB_DP*%
X42390000Y-30000000D03*
X47900001Y-42099999D03*
%TO.N,RP2350_GPIO_26_ADC*%
X50142801Y-48294272D03*
X64000000Y-62000000D03*
X66500000Y-60000000D03*
%TO.N,Net-(RP2350-RUN)*%
X40903655Y-57875000D03*
X50181579Y-55119802D03*
X29500000Y-54000000D03*
D63*
%TO.N,Net-(LED1-DIN)*%
X21500000Y-15000000D03*
D62*
%TO.N,BATT_SW+*%
X59400735Y-55599265D03*
X63500000Y-77500000D03*
X56500000Y-73400000D03*
X60275000Y-51000000D03*
X27000000Y-63000000D03*
X83000000Y-80500000D03*
X55500000Y-74500000D03*
X56279422Y-78050000D03*
X59850000Y-52900000D03*
D61*
X47500000Y-74000000D03*
D62*
X62475000Y-62992158D03*
D61*
%TO.N,RP2350_SWCLK*%
X48284157Y-54919438D03*
X50500000Y-66000000D03*
%TO.N,RP2350_SWDIO*%
X51500000Y-65000000D03*
X49150648Y-54937399D03*
%TO.N,RP2350_GPIO_24*%
X39000000Y-39500000D03*
X52788482Y-48864717D03*
%TO.N,RP2350_GPIO_18*%
X51689111Y-53643891D03*
X24500000Y-27500000D03*
%TO.N,RP2350_QSPI_SD2*%
X42718929Y-40627622D03*
X44600000Y-43917157D03*
%TO.N,RP2350_QSPI_SD0*%
X47318553Y-39181447D03*
X45256847Y-43460477D03*
%TO.N,RP2350_QSPI_SCLK*%
X46055720Y-43502963D03*
X48091620Y-38975605D03*
%TO.N,RP2350_QSPI_SD3*%
X49000000Y-39000000D03*
X46668807Y-42989029D03*
%TO.N,RP2350_GPIO_12*%
X36000000Y-61000000D03*
X59523383Y-62187007D03*
X45500000Y-61400000D03*
X55500000Y-65500000D03*
X56912717Y-58704005D03*
X42462136Y-53333318D03*
X58561961Y-51786569D03*
%TO.N,RP2350_GPIO_13*%
X40000000Y-56000000D03*
X42000000Y-59500000D03*
X67537345Y-49159712D03*
X48500000Y-58500000D03*
X42467856Y-54176128D03*
%TO.N,RP2350_XOUT*%
X47093780Y-55275000D03*
X52000000Y-56000000D03*
%TO.N,RP2350_GPIO_16*%
X57128878Y-56128878D03*
X54134096Y-60634097D03*
X70000000Y-44000000D03*
X51000000Y-55000000D03*
%TO.N,RP2350_GPIO_17*%
X56202235Y-53949238D03*
X51565687Y-54434313D03*
X70000000Y-43000000D03*
X52906083Y-57985216D03*
%TO.N,RP2350_GPIO_19*%
X51333327Y-52500000D03*
X73281250Y-24000000D03*
X60925000Y-43000000D03*
X59400000Y-42500000D03*
%TO.N,RP2350_GPIO_21*%
X52289112Y-50955021D03*
X70500000Y-74500000D03*
X43290691Y-54237311D03*
%TO.N,RP2350_GPIO_22*%
X31000000Y-65000000D03*
X53900000Y-49224611D03*
%TO.N,RP2350_GPIO_25*%
X53500000Y-54500000D03*
X52000000Y-49000000D03*
%TO.N,Net-(RP2350-VREG_LX)*%
X52536027Y-37495000D03*
X49400001Y-43599999D03*
%TO.N,RP2350_USB_DM*%
X61802898Y-29802410D03*
X48492783Y-42692781D03*
%TO.N,ESP32_40M_X0*%
X70000000Y-40000000D03*
X68500000Y-39500000D03*
X62963227Y-39938451D03*
X62957928Y-42042072D03*
%TO.N,Net-(C7-Pad1)*%
X55000000Y-56000000D03*
X57000000Y-51500000D03*
%TO.N,+5V*%
X62392721Y-67392721D03*
%TD*%
%TO.N,+3.3V*%
D65*
X57405902Y-38489611D02*
X53214611Y-38489611D01*
X53214611Y-38489611D02*
X53725000Y-39000000D01*
X53725000Y-39000000D02*
X53725000Y-41500000D01*
X52820000Y-38095000D02*
X53214611Y-38489611D01*
%TO.N,unconnected-(USB1-VBUS-PadA4)*%
D66*
X51800000Y-26000000D02*
X48700000Y-26000000D01*
X52500000Y-26700000D02*
X51800000Y-26000000D01*
X52500000Y-27500000D02*
X52500000Y-26700000D01*
X48700000Y-26000000D02*
X48000000Y-26700000D01*
X48000000Y-26700000D02*
X48000000Y-27500000D01*
%TO.N,+3.3V*%
D65*
X44870058Y-55277612D02*
X46300000Y-53847670D01*
X44870058Y-55668116D02*
X44870058Y-55277612D01*
X43994259Y-55668116D02*
X44870058Y-55668116D01*
X46300000Y-53847670D02*
X46300000Y-52996360D01*
%TO.N,GND*%
X44000000Y-58775000D02*
X43001052Y-58775000D01*
X34500000Y-58500000D02*
X33500000Y-58500000D01*
X38000000Y-56825000D02*
X36969290Y-56825000D01*
X43994259Y-57218116D02*
X43994259Y-58769259D01*
X31500000Y-56600000D02*
X30475254Y-56600000D01*
X38000000Y-58550000D02*
X37007396Y-58550000D01*
X40222698Y-56875000D02*
X41000000Y-56875000D01*
X31500000Y-58275000D02*
X30565772Y-58275000D01*
X34500000Y-56825000D02*
X33550598Y-56825000D01*
%TO.N,+3.3V*%
X38425000Y-54075000D02*
X38425000Y-53000000D01*
X34500000Y-55275000D02*
X38000000Y-55275000D01*
X43994259Y-55668116D02*
X43493116Y-55668116D01*
X44000000Y-60325000D02*
X41050000Y-60325000D01*
X31500000Y-59825000D02*
X32500000Y-58825000D01*
X38000000Y-55275000D02*
X40950000Y-55275000D01*
X31500000Y-55050000D02*
X34275000Y-55050000D01*
X38000000Y-54500000D02*
X38425000Y-54075000D01*
X32500000Y-56050000D02*
X31500000Y-55050000D01*
X38000000Y-55275000D02*
X38000000Y-54500000D01*
X39500000Y-60100000D02*
X38000000Y-60100000D01*
X34500000Y-60050000D02*
X31725000Y-60050000D01*
X43325000Y-55500000D02*
X41175000Y-55500000D01*
X32500000Y-58825000D02*
X32500000Y-56050000D01*
X40000000Y-60600000D02*
X39500000Y-60100000D01*
X38000000Y-60100000D02*
X34550000Y-60100000D01*
X40625000Y-60375000D02*
X40350000Y-60100000D01*
X40350000Y-60100000D02*
X39500000Y-60100000D01*
X43493116Y-55668116D02*
X43325000Y-55500000D01*
%TO.N,GND*%
X41000000Y-58825000D02*
X40056363Y-58825000D01*
%TO.N,BATT_SW+*%
D67*
X63500000Y-76000000D02*
X63500000Y-77500000D01*
X71500000Y-68000000D02*
X63500000Y-76000000D01*
X71500000Y-64000000D02*
X71500000Y-68000000D01*
X80498392Y-48755650D02*
X80498175Y-49055310D01*
X80489829Y-48456090D02*
X80498392Y-48755650D01*
X80498615Y-48446786D02*
X80489829Y-48456090D01*
X80499168Y-47682599D02*
X80498615Y-48446786D01*
X80499609Y-47074137D02*
X80499392Y-47373743D01*
X80508708Y-47065038D02*
X80499609Y-47074137D01*
X80531518Y-46309194D02*
X80508708Y-47065038D01*
X80525034Y-46301994D02*
X80531518Y-46309194D01*
X80540847Y-46000043D02*
X80525034Y-46301994D01*
X80557021Y-45691200D02*
X80549967Y-45697841D01*
X80556482Y-45615221D02*
X80560745Y-45620098D01*
X80576943Y-45310792D02*
X80556482Y-45615221D01*
X80602244Y-44934355D02*
X80597714Y-45001762D01*
X80598051Y-44929412D02*
X80602244Y-44934355D01*
X80623011Y-44625368D02*
X80598051Y-44929412D01*
X80648357Y-44316635D02*
X80643475Y-44320902D01*
X80653882Y-44249332D02*
X80648357Y-44316635D01*
X80649761Y-44244326D02*
X80653882Y-44249332D01*
X80679225Y-43940618D02*
X80649761Y-44244326D01*
X80704187Y-43636558D02*
X80679225Y-43940618D01*
X80715643Y-43565239D02*
X80709131Y-43632364D01*
X80711597Y-43560172D02*
X80715643Y-43565239D01*
X80745549Y-43256981D02*
X80711597Y-43560172D01*
X80775013Y-42953277D02*
X80745549Y-43256981D01*
X80783633Y-42876323D02*
X80787602Y-42881447D01*
X80822071Y-42573634D02*
X80783633Y-42876323D01*
X80856025Y-42270427D02*
X80822071Y-42573634D01*
X80592900Y-45006096D02*
X80576943Y-45310792D01*
X80861089Y-42266383D02*
X80856025Y-42270427D01*
X80865813Y-42193381D02*
X80869702Y-42198558D01*
X80869702Y-42198558D02*
X80861089Y-42266383D01*
X80908719Y-41891311D02*
X80865813Y-42193381D01*
X80947159Y-41588610D02*
X80908719Y-41891311D01*
X80952278Y-41584644D02*
X80947159Y-41588610D01*
X80500000Y-55000000D02*
X71500000Y-64000000D01*
X80962092Y-41515553D02*
X80952278Y-41584644D01*
X80958285Y-41510327D02*
X80962092Y-41515553D01*
X81048558Y-40906811D02*
X81005647Y-41208915D01*
X81064649Y-40833422D02*
X81053727Y-40902927D01*
X80490354Y-47673236D02*
X80499168Y-47682599D01*
X81060925Y-40828148D02*
X81064649Y-40833422D01*
X81112724Y-40527469D02*
X81060925Y-40828148D01*
X81160093Y-40226013D02*
X81112724Y-40527469D01*
X81165313Y-40222211D02*
X81160093Y-40226013D01*
X81173982Y-40145453D02*
X81177620Y-40150770D01*
X81177620Y-40150770D02*
X81165313Y-40222211D01*
X81230210Y-39845504D02*
X81173982Y-40145453D01*
X81282011Y-39544817D02*
X81230210Y-39845504D01*
X81300797Y-39468958D02*
X81287273Y-39541102D01*
X81297245Y-39463600D02*
X81300797Y-39468958D01*
X81357870Y-39164497D02*
X81297245Y-39463600D01*
X80780020Y-42949156D02*
X80775013Y-42953277D01*
X81414090Y-38864593D02*
X81357870Y-39164497D01*
X81419394Y-38860964D02*
X81414090Y-38864593D01*
X80549967Y-45697841D02*
X80540847Y-46000043D01*
X81434545Y-38786214D02*
X81419394Y-38860964D01*
X81431083Y-38780822D02*
X81434545Y-38786214D01*
X81496065Y-38482697D02*
X81431083Y-38780822D01*
X81556698Y-38183557D02*
X81496065Y-38482697D01*
X81562040Y-38180015D02*
X81556698Y-38183557D01*
X81578547Y-38104286D02*
X81562040Y-38180015D01*
X81575173Y-38098859D02*
X81578547Y-38104286D01*
X81644522Y-37801603D02*
X81575173Y-38098859D01*
X81709508Y-37503461D02*
X81644522Y-37801603D01*
X81730030Y-37415564D02*
X81733312Y-37421018D01*
X81803684Y-37119374D02*
X81730030Y-37415564D01*
X81873027Y-36822145D02*
X81803684Y-37119374D01*
X81895198Y-36733061D02*
X81898387Y-36738539D01*
X81973120Y-36438009D02*
X81895198Y-36733061D01*
X82046795Y-36141735D02*
X81973120Y-36438009D01*
X82074451Y-36054318D02*
X82052228Y-36138466D01*
X82071354Y-36048818D02*
X82074451Y-36054318D01*
X82153530Y-35754884D02*
X82071354Y-36048818D01*
X82231487Y-35459698D02*
X82153530Y-35754884D01*
X82257890Y-35365337D02*
X82260893Y-35370854D01*
X82426490Y-34778529D02*
X82344287Y-35072561D01*
X80643475Y-44320902D02*
X80623011Y-44625368D01*
X82458581Y-34685251D02*
X82431965Y-34775447D01*
X82455671Y-34679719D02*
X82458581Y-34685251D01*
X82638154Y-34092343D02*
X82632664Y-34095331D01*
X82666726Y-34000374D02*
X82638154Y-34092343D01*
X82663911Y-33994831D02*
X82666726Y-34000374D01*
X82758644Y-33704509D02*
X82663911Y-33994831D01*
X81053727Y-40902927D02*
X81048558Y-40906811D01*
X82854721Y-33410071D02*
X82849220Y-33412964D01*
X82886410Y-33312955D02*
X82854721Y-33410071D01*
X82883690Y-33307408D02*
X82886410Y-33312955D01*
X81287273Y-39541102D02*
X81282011Y-39544817D01*
X82982489Y-33018508D02*
X82883690Y-33307408D01*
X83077231Y-32728161D02*
X82982489Y-33018508D01*
X83082741Y-32725362D02*
X83077231Y-32728161D01*
X83116640Y-32626238D02*
X83082741Y-32725362D01*
X83315703Y-32044157D02*
X83216868Y-32333160D01*
X83321218Y-32041453D02*
X83315703Y-32044157D01*
X80597714Y-45001762D02*
X80592900Y-45006096D01*
X83358733Y-31936580D02*
X83321218Y-32041453D01*
X82546249Y-34388167D02*
X82455671Y-34679719D01*
X83356201Y-31931029D02*
X83358733Y-31936580D01*
X83463068Y-31644913D02*
X83356201Y-31931029D01*
X81005647Y-41208915D02*
X80958285Y-41510327D01*
X83565950Y-31357310D02*
X83463068Y-31644913D01*
X83571466Y-31354701D02*
X83565950Y-31357310D01*
X83611473Y-31247590D02*
X83571466Y-31354701D01*
X82431965Y-34775447D02*
X82426490Y-34778529D01*
X83609035Y-31242042D02*
X83611473Y-31247590D01*
X81898387Y-36738539D02*
X81878432Y-36818785D01*
X80499392Y-47373743D02*
X80490354Y-47673236D01*
X83874091Y-30549726D02*
X83876435Y-30555265D01*
X80498175Y-49055310D02*
X80500000Y-49057138D01*
X84105190Y-29979469D02*
X84099683Y-29981889D01*
X84149904Y-29858047D02*
X84152156Y-29863576D01*
X82260893Y-35370854D02*
X82236943Y-35456522D01*
X84268511Y-29576458D02*
X84149904Y-29858047D01*
X84383271Y-29293277D02*
X84268511Y-29576458D01*
X81714883Y-37500010D02*
X81709508Y-37503461D01*
X83832266Y-30668708D02*
X83826753Y-30671222D01*
X84438329Y-29162642D02*
X84440489Y-29168159D01*
X81733312Y-37421018D02*
X81714883Y-37500010D01*
X84679373Y-28601018D02*
X84560782Y-28882568D01*
X84684857Y-28598785D02*
X84679373Y-28601018D01*
X84739704Y-28473338D02*
X84684857Y-28598785D01*
X84863811Y-28189482D02*
X84737636Y-28467840D01*
X84986253Y-27909434D02*
X84863811Y-28189482D01*
X84099683Y-29981889D02*
X83988833Y-30266590D01*
X85051962Y-27774396D02*
X84991722Y-27907292D01*
X85179865Y-27492225D02*
X85049984Y-27768919D01*
X85306069Y-27213803D02*
X85179865Y-27492225D01*
X83988833Y-30266590D02*
X83874091Y-30549726D01*
X85311520Y-27211752D02*
X85306069Y-27213803D01*
X85375235Y-27076016D02*
X85311520Y-27211752D01*
X85373346Y-27070562D02*
X85375235Y-27076016D01*
X83876435Y-30555265D02*
X83832266Y-30668708D01*
X85506869Y-26795587D02*
X85373346Y-27070562D01*
X81878432Y-36818785D02*
X81873027Y-36822145D01*
X85636792Y-26518804D02*
X85506869Y-26795587D01*
X85712010Y-26373123D02*
X85642222Y-26516843D01*
X85710209Y-26367694D02*
X85712010Y-26373123D01*
X85847370Y-26094365D02*
X85710209Y-26367694D01*
X84388769Y-29290950D02*
X84383271Y-29293277D01*
X85980910Y-25819355D02*
X85847370Y-26094365D01*
X85986313Y-25817484D02*
X85980910Y-25819355D01*
X80500000Y-49057138D02*
X80500000Y-55000000D01*
X86059948Y-25670748D02*
X85986313Y-25817484D01*
X86198888Y-25393873D02*
X86058234Y-25665349D01*
X86336076Y-25120491D02*
X86198888Y-25393873D01*
X80787602Y-42881447D02*
X80780020Y-42949156D01*
X86341455Y-25118707D02*
X86336076Y-25120491D01*
X86421884Y-24963468D02*
X86341455Y-25118707D01*
X84440489Y-29168159D02*
X84388769Y-29290950D01*
X82236943Y-35456522D02*
X82231487Y-35459698D01*
X86420256Y-24958101D02*
X86421884Y-24963468D01*
X86564421Y-24688358D02*
X86420256Y-24958101D01*
X86705130Y-24416777D02*
X86564421Y-24688358D01*
X86710476Y-24415080D02*
X86705130Y-24416777D01*
X82052228Y-36138466D02*
X82046795Y-36141735D01*
X86795141Y-24256667D02*
X86710476Y-24415080D01*
X84560782Y-28882568D02*
X84438329Y-29162642D01*
X86793596Y-24251332D02*
X86795141Y-24256667D01*
X82632664Y-34095331D02*
X82546249Y-34388167D01*
X86058234Y-25665349D02*
X86059948Y-25670748D01*
X87085387Y-23713597D02*
X86941185Y-23983408D01*
X85642222Y-26516843D02*
X85636792Y-26518804D01*
X87090702Y-23711984D02*
X87085387Y-23713597D01*
X85049984Y-27768919D02*
X85051962Y-27774396D01*
X84152156Y-29863576D02*
X84105190Y-29979469D01*
X80560745Y-45620098D02*
X80557021Y-45691200D01*
X83719875Y-30957365D02*
X83609035Y-31242042D01*
X87182929Y-23544562D02*
X87090702Y-23711984D01*
X84737636Y-28467840D02*
X84739704Y-28473338D01*
X87480064Y-23005163D02*
X87332423Y-23273180D01*
X87500000Y-22977797D02*
X87485342Y-23003635D01*
X87500000Y-21000000D02*
X87500000Y-22977797D01*
X87485342Y-23003635D02*
X87480064Y-23005163D01*
X82849220Y-33412964D02*
X82758644Y-33704509D01*
X81734712Y-15234712D02*
X87500000Y-21000000D01*
X87332423Y-23273180D02*
X87181467Y-23539265D01*
X83216868Y-32333160D02*
X83114014Y-32620687D01*
X84991722Y-27907292D02*
X84986253Y-27909434D01*
X82344287Y-35072561D02*
X82257890Y-35365337D01*
X87181467Y-23539265D02*
X87182929Y-23544562D01*
X86941185Y-23983408D02*
X86793596Y-24251332D01*
X79981577Y-15234712D02*
X81734712Y-15234712D01*
X83114014Y-32620687D02*
X83116640Y-32626238D01*
X83826753Y-30671222D02*
X83719875Y-30957365D01*
X80709131Y-43632364D02*
X80704187Y-43636558D01*
X19500000Y-19500000D02*
X17500000Y-19500000D01*
X21000000Y-18000000D02*
X19500000Y-19500000D01*
X27500000Y-18000000D02*
X21000000Y-18000000D01*
X26217668Y-49877694D02*
X22500000Y-46160026D01*
X28500000Y-29500000D02*
X28500000Y-19000000D01*
X22500000Y-46160026D02*
X22500000Y-35500000D01*
X26217668Y-62217668D02*
X26217668Y-49877694D01*
X22500000Y-35500000D02*
X28500000Y-29500000D01*
X27000000Y-63000000D02*
X26217668Y-62217668D01*
X28500000Y-19000000D02*
X27500000Y-18000000D01*
%TO.N,+3.3V*%
D65*
X51500000Y-46000000D02*
X51200000Y-46000000D01*
X52000000Y-46500000D02*
X51500000Y-46000000D01*
X51200000Y-46000000D02*
X50950000Y-46250000D01*
X47253640Y-51050000D02*
X46300000Y-52003640D01*
X47500000Y-45600000D02*
X47500000Y-46650000D01*
X49500000Y-47150000D02*
X49500000Y-49000000D01*
X45500000Y-50450000D02*
X45500000Y-47050000D01*
X49000000Y-46650000D02*
X49425000Y-47075000D01*
X45900000Y-46650000D02*
X47500000Y-46650000D01*
X50950000Y-46650000D02*
X49850000Y-46650000D01*
X49850000Y-46650000D02*
X49425000Y-47075000D01*
X45500000Y-47050000D02*
X45900000Y-46650000D01*
X44546360Y-50250000D02*
X44746360Y-50450000D01*
X50950000Y-49050000D02*
X49550000Y-49050000D01*
X50950000Y-46250000D02*
X50950000Y-46650000D01*
X44746360Y-50450000D02*
X45500000Y-50450000D01*
X49100000Y-45600000D02*
X49100000Y-46550000D01*
X44050000Y-50250000D02*
X44546360Y-50250000D01*
X47500000Y-46650000D02*
X49000000Y-46650000D01*
X46300000Y-52003640D02*
X46300000Y-52500000D01*
X49500000Y-49000000D02*
X49500000Y-51050000D01*
X49500000Y-51050000D02*
X47253640Y-51050000D01*
X47100000Y-45600000D02*
X47500000Y-45600000D01*
%TO.N,BATT_SW+*%
D67*
X29954118Y-81225211D02*
X36265465Y-74913864D01*
%TO.N,Net-(D3-A)*%
X16950000Y-75050000D02*
X19062500Y-75050000D01*
X13460000Y-78540000D02*
X16950000Y-75050000D01*
X13460000Y-78540000D02*
X13460000Y-89500000D01*
%TO.N,+5V*%
D66*
X26800992Y-86588046D02*
X21813046Y-86588046D01*
X21813046Y-86588046D02*
X20725000Y-85500000D01*
X27671378Y-86167576D02*
X26800992Y-86588046D01*
%TO.N,BATT_SW+*%
D67*
X54950000Y-72550000D02*
X54950000Y-71500000D01*
X52586136Y-74913864D02*
X54950000Y-72550000D01*
X36265465Y-74913864D02*
X52586136Y-74913864D01*
X54950000Y-71525000D02*
X54950000Y-71500000D01*
X52475000Y-74000000D02*
X54950000Y-71525000D01*
X47500000Y-74000000D02*
X52475000Y-74000000D01*
X16950000Y-79050000D02*
X17050000Y-79050000D01*
X16000000Y-80000000D02*
X16950000Y-79050000D01*
X16000000Y-89500000D02*
X16000000Y-80000000D01*
X17050000Y-79050000D02*
X19062500Y-79050000D01*
%TO.N,Net-(D1-A)*%
D65*
X17125000Y-23324240D02*
X17125000Y-22950000D01*
X17400380Y-23599620D02*
X17125000Y-23324240D01*
%TO.N,GND*%
X43960000Y-65480062D02*
X43965615Y-65485677D01*
X43960000Y-64000000D02*
X43960000Y-65480062D01*
%TO.N,Net-(JP1-SIG)*%
X74386694Y-43790159D02*
X74386694Y-47353306D01*
X73096535Y-42500000D02*
X74386694Y-43790159D01*
X74386694Y-47353306D02*
X73500000Y-48240000D01*
X73000000Y-42500000D02*
X73096535Y-42500000D01*
%TO.N,GND*%
X76021576Y-49760000D02*
X76027306Y-49765730D01*
X74970000Y-49760000D02*
X76021576Y-49760000D01*
%TO.N,Net-(D2-A)*%
D67*
X75981577Y-15234713D02*
X75981577Y-15234712D01*
X80493750Y-19746886D02*
X75981577Y-15234713D01*
%TO.N,Net-(U3-SW)*%
D66*
X57650000Y-53500000D02*
X58250000Y-53500000D01*
X56500000Y-54650000D02*
X57650000Y-53500000D01*
X56500000Y-55909227D02*
X56500000Y-54650000D01*
X52599011Y-59810216D02*
X56500000Y-55909227D01*
%TO.N,BATT_SW+*%
X59750000Y-53500000D02*
X59750000Y-53000000D01*
D67*
X59474308Y-51800692D02*
X60275000Y-51000000D01*
X59474308Y-52724308D02*
X59474308Y-51800692D01*
X59650000Y-52900000D02*
X59474308Y-52724308D01*
X59850000Y-52900000D02*
X59650000Y-52900000D01*
X60500000Y-52900000D02*
X59850000Y-52900000D01*
%TO.N,RP2350_GPIO_25_5.5V*%
D66*
X59405742Y-67919258D02*
X60825000Y-66500000D01*
X59111470Y-67919258D02*
X59405742Y-67919258D01*
X59008345Y-67816133D02*
X59111470Y-67919258D01*
X23500000Y-44750000D02*
X27000000Y-48250000D01*
X27000000Y-48250000D02*
X27000000Y-59596716D01*
X23500000Y-38000000D02*
X23500000Y-44750000D01*
X28500000Y-33000000D02*
X23500000Y-38000000D01*
X27000000Y-59596716D02*
X28853113Y-61449829D01*
%TO.N,+3.3V*%
D65*
X45225000Y-34500000D02*
X46000000Y-35275000D01*
X60439611Y-37714611D02*
X58180902Y-37714611D01*
X57725000Y-61050000D02*
X54775000Y-64000000D01*
X39692446Y-49500000D02*
X39407406Y-49214960D01*
X50300000Y-52547830D02*
X50626085Y-52873915D01*
X45900000Y-46500000D02*
X45900000Y-46650000D01*
X42000000Y-44237500D02*
X41750000Y-44237500D01*
X60275000Y-45480055D02*
X60272916Y-45482139D01*
X33271205Y-43777934D02*
X33271205Y-43472135D01*
D66*
X64318750Y-50681250D02*
X63825000Y-50187500D01*
X69095605Y-49245605D02*
X69095605Y-50534712D01*
D65*
X44050000Y-46250000D02*
X44050000Y-45800000D01*
X61500000Y-62000000D02*
X60755000Y-62000000D01*
D66*
X69095605Y-51758013D02*
X67387850Y-53465768D01*
D65*
X57405902Y-42940334D02*
X57405902Y-41489611D01*
X59225000Y-35000000D02*
X59225000Y-36670513D01*
X36950000Y-45516340D02*
X36948969Y-45515309D01*
X51087500Y-38095000D02*
X52820000Y-38095000D01*
X62825000Y-42975000D02*
X62754905Y-42975000D01*
D66*
X63825000Y-50187500D02*
X63825000Y-47875000D01*
D65*
X39717306Y-51225000D02*
X39711585Y-51230721D01*
X61719669Y-61780331D02*
X61500000Y-62000000D01*
X52128835Y-35794681D02*
X52128835Y-37053665D01*
X57808519Y-43342951D02*
X57405902Y-42940334D01*
X57405902Y-41489611D02*
X57405902Y-38489611D01*
X59476198Y-61050000D02*
X60426198Y-62000000D01*
X52128835Y-37053665D02*
X51087500Y-38095000D01*
X38475000Y-43493384D02*
X38475000Y-43944201D01*
X40250000Y-51225000D02*
X39717306Y-51225000D01*
X58265449Y-46000000D02*
X58266819Y-45998630D01*
X49425000Y-47075000D02*
X49500000Y-47150000D01*
X34601169Y-36942422D02*
X34601169Y-37979523D01*
X59175000Y-34725000D02*
X59175000Y-31500000D01*
X48675000Y-34500000D02*
X49969681Y-35794681D01*
X34500000Y-50225000D02*
X35225000Y-50225000D01*
X49100000Y-46550000D02*
X49000000Y-46650000D01*
X58180902Y-37714611D02*
X57405902Y-38489611D01*
X69450498Y-52690768D02*
X68162850Y-52690768D01*
X27995906Y-42495906D02*
X28000000Y-42500000D01*
D66*
X69095605Y-50534712D02*
X69095605Y-51758013D01*
D65*
X69737850Y-55381043D02*
X69737850Y-52978120D01*
X63000000Y-58500000D02*
X66618893Y-58500000D01*
X42262500Y-44500000D02*
X42000000Y-44237500D01*
X44050000Y-45800000D02*
X42750000Y-44500000D01*
X57405902Y-38489611D02*
X57053791Y-38137500D01*
X33271205Y-43472135D02*
X33000000Y-43200930D01*
D66*
X67103268Y-53465768D02*
X64637500Y-51000000D01*
D65*
X40175000Y-53500000D02*
X39998349Y-53500000D01*
X40000000Y-60900000D02*
X40000000Y-60600000D01*
X39891327Y-53824738D02*
X39891327Y-53392978D01*
X38475000Y-43944201D02*
X38300000Y-44119201D01*
X39498349Y-53000000D02*
X39501087Y-53002738D01*
D66*
X67025000Y-47175000D02*
X69095605Y-49245605D01*
X62754905Y-42975000D02*
X62279905Y-42500000D01*
D65*
X58245000Y-61050000D02*
X57725000Y-61050000D01*
X36725000Y-49500000D02*
X36725000Y-50443153D01*
X49969681Y-35794681D02*
X52128835Y-35794681D01*
D66*
X67025000Y-46675000D02*
X67025000Y-47175000D01*
D65*
X39891327Y-53392978D02*
X39501087Y-53002738D01*
X58245000Y-61050000D02*
X59476198Y-61050000D01*
D68*
X57485000Y-46000000D02*
X58265449Y-46000000D01*
D65*
X68162850Y-52690768D02*
X67387850Y-53465768D01*
X36950000Y-46493384D02*
X36950000Y-45516340D01*
X27017668Y-42495906D02*
X27995906Y-42495906D01*
X69737850Y-52978120D02*
X69450498Y-52690768D01*
X47900000Y-35275000D02*
X48675000Y-34500000D01*
X35225000Y-50225000D02*
X35500000Y-50500000D01*
X34601169Y-37979523D02*
X34630257Y-38008611D01*
X32085183Y-43200000D02*
X32086113Y-43200930D01*
D68*
X60275000Y-44500000D02*
X60275000Y-45480055D01*
D65*
X46000000Y-35275000D02*
X47900000Y-35275000D01*
X31230000Y-43200000D02*
X32085183Y-43200000D01*
X36725000Y-50443153D02*
X36732092Y-50450245D01*
X40080000Y-49500000D02*
X39692446Y-49500000D01*
X38425000Y-53000000D02*
X39498349Y-53000000D01*
D66*
X62825000Y-42975000D02*
X63325000Y-42975000D01*
D65*
X64637500Y-51000000D02*
X64318750Y-50681250D01*
X66618893Y-58500000D02*
X69737850Y-55381043D01*
X42750000Y-44500000D02*
X42262500Y-44500000D01*
X59225000Y-36670513D02*
X58180902Y-37714611D01*
X49550000Y-49050000D02*
X49500000Y-49000000D01*
%TO.N,GND*%
D66*
X83005331Y-22494669D02*
X83500000Y-22000000D01*
D65*
X64150000Y-40600000D02*
X63398757Y-40600000D01*
X40725000Y-68500000D02*
X40725000Y-69545364D01*
D67*
X53050000Y-71500000D02*
X52246931Y-71500000D01*
D65*
X41250000Y-48830000D02*
X40750000Y-48830000D01*
X74731250Y-21000000D02*
X74731250Y-19658675D01*
D67*
X58225000Y-50500000D02*
X58225000Y-49471031D01*
D65*
X58225000Y-49471031D02*
X58218153Y-49464184D01*
X55275000Y-41500000D02*
X55275000Y-42481424D01*
X72775000Y-44000000D02*
X73748006Y-44000000D01*
D67*
X50170863Y-68500000D02*
X51500000Y-68500000D01*
D65*
X65325000Y-66542959D02*
X65321489Y-66546470D01*
X53678835Y-34745006D02*
X53664702Y-34730873D01*
X67765450Y-56500000D02*
X67767907Y-56502457D01*
X27500000Y-45825000D02*
X27500000Y-46828079D01*
D67*
X50500000Y-69500000D02*
X51500000Y-68500000D01*
D65*
X53250000Y-29213666D02*
X53245647Y-29218019D01*
X73748006Y-44000000D02*
X73786694Y-44038688D01*
X24591365Y-54713391D02*
X24591365Y-55512444D01*
X55275000Y-46982759D02*
X55266537Y-46974296D01*
D66*
X66140130Y-64000000D02*
X66140130Y-63909870D01*
D67*
X22101161Y-78911339D02*
X22562500Y-78450000D01*
D65*
X40025000Y-50000000D02*
X40025000Y-50500000D01*
D67*
X76562500Y-76450000D02*
X76562500Y-77405855D01*
D65*
X67767835Y-38909040D02*
X67748088Y-38928787D01*
X40737500Y-44500000D02*
X40500000Y-44500000D01*
X66414740Y-64914740D02*
X66414740Y-64803413D01*
X53500000Y-49923454D02*
X53503827Y-49919627D01*
X43912500Y-41905000D02*
X43912500Y-42705338D01*
D66*
X66414740Y-64803413D02*
X67050000Y-64168153D01*
D65*
X58050000Y-58218026D02*
X58056008Y-58224034D01*
X40725000Y-69545364D02*
X40718697Y-69551667D01*
X60775000Y-35885859D02*
X60777737Y-35888596D01*
X40056363Y-58825000D02*
X40051033Y-58830330D01*
X36407134Y-34925000D02*
X36400933Y-34918799D01*
X68075000Y-34575000D02*
X68925000Y-34575000D01*
X24591365Y-55512444D02*
X24594266Y-55515345D01*
X42563331Y-45500000D02*
X42964388Y-45901057D01*
X46900000Y-27500000D02*
X46900000Y-28500000D01*
X60725000Y-41000000D02*
X60725000Y-40103669D01*
X22275000Y-85500000D02*
X22275000Y-84380529D01*
X63398757Y-40600000D02*
X63373541Y-40625216D01*
X36969290Y-56825000D02*
X36925127Y-56780837D01*
X39565000Y-25000000D02*
X39565000Y-26021445D01*
X34500000Y-51775000D02*
X34500000Y-53000000D01*
X57623529Y-62000000D02*
X57095429Y-62528100D01*
X49900000Y-45103640D02*
X49900000Y-45600000D01*
X44825000Y-28500000D02*
X46900000Y-28500000D01*
D67*
X52500000Y-78550000D02*
X54450000Y-78550000D01*
D65*
X62275000Y-38966939D02*
X62279905Y-38971844D01*
X29770000Y-37800000D02*
X28866715Y-37800000D01*
X65275000Y-63000000D02*
X65275000Y-64008215D01*
X38275000Y-49500000D02*
X38275000Y-48725000D01*
X53275000Y-33449981D02*
X53242748Y-33482233D01*
X50299999Y-44499996D02*
X50300003Y-44500000D01*
X38466138Y-40482198D02*
X38466138Y-41503765D01*
X58500000Y-28500000D02*
X57325000Y-28500000D01*
X50300003Y-44703637D02*
X49900000Y-45103640D01*
X27500000Y-46828079D02*
X27489969Y-46838110D01*
X38275000Y-48725000D02*
X38500000Y-48500000D01*
X40025000Y-50000000D02*
X39353360Y-50000000D01*
X40500000Y-44500000D02*
X39500000Y-43500000D01*
X38500000Y-46493384D02*
X38500000Y-45500000D01*
X53275000Y-32500000D02*
X53275000Y-33449981D01*
X73950000Y-40500000D02*
X72725000Y-40500000D01*
X39353360Y-50000000D02*
X39341146Y-50012214D01*
X27280062Y-38846484D02*
X27280062Y-37677968D01*
X33550598Y-56825000D02*
X33532269Y-56806671D01*
X68925000Y-34575000D02*
X69000000Y-34500000D01*
X58150000Y-62000000D02*
X57623529Y-62000000D01*
D67*
X51000000Y-72000000D02*
X50000000Y-72000000D01*
X78618750Y-24005510D02*
X78618750Y-22950000D01*
D65*
X50000000Y-57821554D02*
X49050000Y-57821554D01*
X65325000Y-65500000D02*
X65325000Y-66542959D01*
D66*
X71072768Y-77572768D02*
X71000000Y-77500000D01*
D65*
X62362500Y-51950000D02*
X61373945Y-51950000D01*
X53225000Y-64000000D02*
X53225000Y-62889158D01*
X76085000Y-31942993D02*
X76059166Y-31968827D01*
X29872060Y-79550000D02*
X29884603Y-79537457D01*
X38466138Y-41503765D02*
X38457019Y-41512884D01*
X46775000Y-34500000D02*
X46775000Y-33405127D01*
X47971411Y-61046554D02*
X47982052Y-61057195D01*
X53250000Y-27926118D02*
X53250000Y-29213666D01*
X38318663Y-67000000D02*
X38346129Y-66972534D01*
X47000000Y-61046554D02*
X47971411Y-61046554D01*
X37000000Y-67000000D02*
X38318663Y-67000000D01*
X34601169Y-35392422D02*
X34601169Y-34402120D01*
X30900907Y-46482823D02*
X30900907Y-45412832D01*
X28887500Y-79550000D02*
X29872060Y-79550000D01*
X32750907Y-45427811D02*
X32749952Y-45426856D01*
D67*
X51500000Y-68500000D02*
X52460000Y-68500000D01*
D65*
X34601169Y-34402120D02*
X34609780Y-34393509D01*
D67*
X52550000Y-72000000D02*
X53050000Y-71500000D01*
D65*
X49050000Y-57821554D02*
X49000000Y-57771554D01*
X67518854Y-58500000D02*
X67511481Y-58492627D01*
X39493384Y-43493384D02*
X39500000Y-43500000D01*
X58955902Y-39359388D02*
X58947326Y-39367964D01*
X74731250Y-19658675D02*
X74720419Y-19647844D01*
X22437500Y-20328293D02*
X22432795Y-20323588D01*
D67*
X50170863Y-68500000D02*
X48610217Y-68500000D01*
D65*
X78735000Y-31811801D02*
X78720061Y-31826740D01*
D67*
X22437500Y-21550000D02*
X22437500Y-20328293D01*
D65*
X61373945Y-51950000D02*
X61369873Y-51954072D01*
X42280000Y-45500000D02*
X42280000Y-45000000D01*
D66*
X82994669Y-22494669D02*
X83005331Y-22494669D01*
D65*
X30900907Y-45412832D02*
X30905594Y-45408145D01*
X43001052Y-58775000D02*
X42996102Y-58770050D01*
X41725000Y-33000000D02*
X40626299Y-33000000D01*
X76549583Y-77418772D02*
X76549583Y-77500000D01*
X62275000Y-38000000D02*
X62275000Y-38966939D01*
X53225000Y-62889158D02*
X53214195Y-62878353D01*
X40000000Y-57000000D02*
X40132749Y-56867251D01*
X26825000Y-20500000D02*
X26825000Y-19342960D01*
X58725000Y-47500000D02*
X57693820Y-47500000D01*
X67767835Y-38180723D02*
X67767835Y-38909040D01*
X57693820Y-47500000D02*
X57675959Y-47482139D01*
D66*
X78000000Y-84500000D02*
X76500000Y-84500000D01*
D65*
X30475254Y-56600000D02*
X30466642Y-56591388D01*
X28866715Y-37800000D02*
X28860587Y-37793872D01*
X76562500Y-77405855D02*
X76549583Y-77418772D01*
X43912500Y-42705338D02*
X43878353Y-42739485D01*
X37007396Y-58550000D02*
X37002628Y-58554768D01*
X58955902Y-38489611D02*
X58955902Y-39359388D01*
X60725000Y-40103669D02*
X60712646Y-40091315D01*
D66*
X67050000Y-64168153D02*
X67050000Y-63000000D01*
D65*
X67725000Y-66500000D02*
X67725000Y-67500000D01*
D67*
X50000000Y-72000000D02*
X48500000Y-70500000D01*
D65*
X27280062Y-37677968D02*
X27284717Y-37673313D01*
X37425000Y-34925000D02*
X36407134Y-34925000D01*
X76085000Y-30825000D02*
X76085000Y-31942993D01*
X50300003Y-44500000D02*
X50300003Y-44703637D01*
X32750907Y-46482823D02*
X32750907Y-45427811D01*
X53225000Y-45000000D02*
X52237138Y-45000000D01*
X78735000Y-30750000D02*
X78735000Y-31811801D01*
X46900000Y-29389355D02*
X46748412Y-29540943D01*
X66825000Y-56500000D02*
X67765450Y-56500000D01*
D67*
X22101161Y-79688086D02*
X22101161Y-78911339D01*
X51500000Y-72000000D02*
X52550000Y-72000000D01*
X78983198Y-24369958D02*
X78618750Y-24005510D01*
D65*
X58250000Y-52550003D02*
X58199997Y-52500000D01*
X68550000Y-58500000D02*
X67518854Y-58500000D01*
X49202829Y-61046554D02*
X49187636Y-61031361D01*
X42280000Y-45500000D02*
X42563331Y-45500000D01*
X58955902Y-40608029D02*
X58955938Y-40607993D01*
X47996554Y-57775000D02*
X48000000Y-57771554D01*
X55275000Y-48000000D02*
X55275000Y-46982759D01*
X58250000Y-53000000D02*
X58250000Y-52550003D01*
X40214949Y-56867251D02*
X40222698Y-56875000D01*
X60775000Y-35000000D02*
X60775000Y-35885859D01*
D67*
X48610217Y-68500000D02*
X47758209Y-69352008D01*
D65*
X50000000Y-61046554D02*
X49202829Y-61046554D01*
D66*
X83500000Y-22000000D02*
X83500000Y-21500000D01*
D65*
X55424848Y-53760367D02*
X55424848Y-53575152D01*
X46775000Y-33405127D02*
X46770364Y-33400491D01*
X58955902Y-41489611D02*
X58955902Y-40608029D01*
X40626299Y-33000000D02*
X40620558Y-32994259D01*
X47047703Y-57775000D02*
X47996554Y-57775000D01*
X46900000Y-28500000D02*
X46900000Y-29389355D01*
D66*
X72388073Y-77572768D02*
X71072768Y-77572768D01*
D65*
X72030000Y-49760000D02*
X70970000Y-49760000D01*
X53678835Y-35794681D02*
X53678835Y-34745006D01*
X52237138Y-45000000D02*
X52228244Y-44991106D01*
X55424848Y-53575152D02*
X55700000Y-53300000D01*
X66642343Y-38400000D02*
X66671674Y-38429331D01*
X53500000Y-51150000D02*
X53500000Y-49923454D01*
X30565772Y-58275000D02*
X30501087Y-58210315D01*
X65275000Y-64008215D02*
X65256425Y-64026790D01*
D66*
X66140130Y-63909870D02*
X67050000Y-63000000D01*
D65*
X36525000Y-53000000D02*
X35500000Y-53000000D01*
D67*
X51388907Y-72000000D02*
X50000000Y-70611093D01*
X49224338Y-69446525D02*
X50170863Y-68500000D01*
X52246931Y-71500000D02*
X51375039Y-70628108D01*
D65*
X40132749Y-56867251D02*
X40214949Y-56867251D01*
D67*
X58050000Y-57000000D02*
X58050000Y-58218026D01*
D65*
X65850000Y-38400000D02*
X66642343Y-38400000D01*
%TO.N,Net-(Q7-G)*%
X57896736Y-72396736D02*
X58000000Y-72500000D01*
X57896736Y-71431135D02*
X57896736Y-72396736D01*
X65325000Y-71500000D02*
X64550000Y-72275000D01*
%TO.N,BATT+*%
D67*
X50500000Y-78550000D02*
X52050000Y-77000000D01*
X59796736Y-71431135D02*
X63606135Y-71431135D01*
X52050000Y-77000000D02*
X54560661Y-77000000D01*
X54560661Y-77000000D02*
X59796736Y-71763925D01*
X59796736Y-71763925D02*
X59796736Y-71431135D01*
X63606135Y-71431135D02*
X63675000Y-71500000D01*
%TO.N,Net-(R3-Pad2)*%
D65*
X40175000Y-41000000D02*
X40175000Y-38475000D01*
X40175000Y-38475000D02*
X41575000Y-37075000D01*
%TO.N,Net-(C62-Pad1)*%
X25467668Y-42495906D02*
X25467668Y-38934090D01*
%TO.N,Net-(ESP32-LNA_IN)*%
X61525000Y-37526304D02*
X62051304Y-37000000D01*
X62125000Y-43675000D02*
X61525000Y-43075000D01*
X62051304Y-37000000D02*
X69760000Y-37000000D01*
X61525000Y-43075000D02*
X61525000Y-37526304D01*
X71225000Y-44000000D02*
X71225000Y-43000000D01*
X71725000Y-38965000D02*
X71725000Y-42500000D01*
X71225000Y-43000000D02*
X71725000Y-42500000D01*
X69760000Y-37000000D02*
X71725000Y-38965000D01*
%TO.N,Net-(Q4-G)*%
D67*
X74038073Y-77572768D02*
X74038073Y-74538073D01*
X74000000Y-74500000D02*
X76512500Y-74500000D01*
%TO.N,RP2350_GPIO_20*%
D65*
X51000000Y-57500000D02*
X51257059Y-57757059D01*
X45110000Y-63390000D02*
X45110000Y-65890000D01*
X51257059Y-62091470D02*
X50748529Y-62600000D01*
X51257059Y-57757059D02*
X51257059Y-62091470D01*
X52289111Y-53100000D02*
X52289111Y-51789111D01*
X50748529Y-62600000D02*
X45900000Y-62600000D01*
X42484314Y-67667157D02*
X36120343Y-67667157D01*
X28887500Y-74900000D02*
X28887500Y-76550000D01*
X43251471Y-66900000D02*
X42484314Y-67667157D01*
X51950000Y-51450000D02*
X50950000Y-51450000D01*
X45900000Y-62600000D02*
X45110000Y-63390000D01*
X52289111Y-51789111D02*
X51950000Y-51450000D01*
X45110000Y-65890000D02*
X44100000Y-66900000D01*
X44100000Y-66900000D02*
X43251471Y-66900000D01*
X36120343Y-67667157D02*
X28887500Y-74900000D01*
%TO.N,Net-(Q3-G)*%
D67*
X27237500Y-76550000D02*
X27237500Y-79550000D01*
X22562500Y-76550000D02*
X27237500Y-76550000D01*
%TO.N,Net-(D4-A)*%
X84735000Y-76235000D02*
X83000000Y-74500000D01*
X78437500Y-75500000D02*
X82000000Y-75500000D01*
X82000000Y-75500000D02*
X83000000Y-74500000D01*
X84735000Y-89500000D02*
X84735000Y-76235000D01*
%TO.N,RP2350_GPIO_14*%
D65*
X69037850Y-53465768D02*
X68262850Y-54240768D01*
X61425000Y-46960614D02*
X61710614Y-46675000D01*
X69600000Y-35400000D02*
X69600000Y-30990000D01*
X69600000Y-30990000D02*
X71910000Y-28680000D01*
X79285000Y-29750000D02*
X73010000Y-29750000D01*
X65162651Y-57699997D02*
X63000000Y-57699997D01*
X43900000Y-54600000D02*
X43900000Y-54100000D01*
X61000000Y-49000000D02*
X61767807Y-48232193D01*
X63325000Y-49289386D02*
X61767807Y-47732193D01*
X61710614Y-46675000D02*
X62125000Y-46675000D01*
X44100000Y-53900000D02*
X44665686Y-53900000D01*
X45062046Y-53600000D02*
X45500000Y-53162045D01*
X65875000Y-55790552D02*
X65875000Y-56987648D01*
X63325000Y-53240552D02*
X63325000Y-49289386D01*
X61425000Y-47389386D02*
X61425000Y-46960614D01*
X43900000Y-54100000D02*
X44100000Y-53900000D01*
X80285000Y-30750000D02*
X79285000Y-29750000D01*
X65875000Y-56987648D02*
X65162651Y-57699997D01*
X43600000Y-54900000D02*
X43900000Y-54600000D01*
X68400000Y-36600000D02*
X69600000Y-35400000D01*
X60400000Y-36600000D02*
X68400000Y-36600000D01*
X68262850Y-54240768D02*
X64325216Y-54240768D01*
X45500000Y-52996360D02*
X45500000Y-52500000D01*
X64325216Y-54240768D02*
X63325000Y-53240552D01*
X44665686Y-53900000D02*
X44965686Y-53600000D01*
X60000000Y-37000000D02*
X60400000Y-36600000D01*
X45500000Y-53162045D02*
X45500000Y-52996360D01*
X61767807Y-47732193D02*
X61425000Y-47389386D01*
X42842537Y-54900000D02*
X43600000Y-54900000D01*
X44965686Y-53600000D02*
X45062046Y-53600000D01*
X61767807Y-48232193D02*
X61767807Y-47732193D01*
X64325216Y-54240768D02*
X65875000Y-55790552D01*
X73010000Y-29750000D02*
X71935000Y-28675000D01*
%TO.N,unconnected-(SW1-Pad4)*%
X23200000Y-55538168D02*
X23202018Y-55540186D01*
%TO.N,RP2350_GPIO_15*%
X67500000Y-51509712D02*
X67658253Y-51509712D01*
X63925000Y-32425000D02*
X61750000Y-32425000D01*
X44593178Y-54634552D02*
X45900000Y-53327730D01*
X67858253Y-49759712D02*
X66325398Y-49759712D01*
X61750000Y-32425000D02*
X60825000Y-31500000D01*
X43500000Y-67500000D02*
X43275000Y-67500000D01*
X65825000Y-49259314D02*
X65825000Y-47875000D01*
X44590006Y-54634552D02*
X44593178Y-54634552D01*
X68145605Y-51022360D02*
X68145605Y-50047064D01*
X67658253Y-51509712D02*
X68145605Y-51022360D01*
X68145605Y-50047064D02*
X67858253Y-49759712D01*
X45900000Y-53327730D02*
X45900000Y-52500000D01*
X43275000Y-67500000D02*
X42275000Y-68500000D01*
X63575000Y-32425000D02*
X62500000Y-33500000D01*
X66325398Y-49759712D02*
X65825000Y-49259314D01*
%TO.N,+1V1*%
X51850000Y-47814717D02*
X51843545Y-47821172D01*
X51446360Y-48650000D02*
X50950000Y-48650000D01*
X58000000Y-36237500D02*
X58000000Y-34325000D01*
X49953446Y-56225000D02*
X46547703Y-56225000D01*
X56000000Y-37404585D02*
X56404585Y-37000000D01*
X48700000Y-44828567D02*
X48700000Y-45600000D01*
X44050000Y-48250000D02*
X43553640Y-48250000D01*
X56404585Y-37000000D02*
X57237500Y-37000000D01*
X47500000Y-51726085D02*
X47500000Y-52500000D01*
X51850000Y-47800000D02*
X51850000Y-47814717D01*
X52500000Y-31725000D02*
X51725000Y-32500000D01*
X42866140Y-47562500D02*
X42500000Y-47562500D01*
X48790005Y-44117598D02*
X48790005Y-44738562D01*
X47500000Y-54832691D02*
X47500000Y-52500000D01*
X48790005Y-44738562D02*
X48700000Y-44828567D01*
X58000000Y-34325000D02*
X56275000Y-32600000D01*
X55400000Y-31725000D02*
X52500000Y-31725000D01*
X47693780Y-55578923D02*
X47693780Y-55026471D01*
X47047703Y-56225000D02*
X47693780Y-55578923D01*
X47693780Y-55026471D02*
X47500000Y-54832691D01*
X51843545Y-48252815D02*
X51446360Y-48650000D01*
X43553640Y-48250000D02*
X42866140Y-47562500D01*
X56275000Y-32600000D02*
X55400000Y-31725000D01*
X46547703Y-56225000D02*
X46000000Y-56772703D01*
X56193918Y-32535296D02*
X56172770Y-32556444D01*
X51843545Y-47821172D02*
X51843545Y-48252815D01*
X46000000Y-58496554D02*
X47000000Y-59496554D01*
X47000000Y-59496554D02*
X50000000Y-59496554D01*
X47576085Y-51650000D02*
X47500000Y-51726085D01*
X57237500Y-37000000D02*
X58000000Y-36237500D01*
X46000000Y-56772703D02*
X46000000Y-58496554D01*
%TO.N,RP2350_XIN*%
X51000000Y-56500000D02*
X51400000Y-56100000D01*
X46693780Y-54083673D02*
X46700000Y-54077453D01*
X54700000Y-50565256D02*
X54700000Y-51650000D01*
X52900000Y-54251471D02*
X53251471Y-53900000D01*
X53500000Y-53900000D02*
X53500000Y-52850000D01*
X52900000Y-54600000D02*
X52900000Y-54251471D01*
X51000000Y-56699997D02*
X51000000Y-56500000D01*
X53725000Y-48000000D02*
X55500000Y-49775000D01*
X52275000Y-55225000D02*
X52900000Y-54600000D01*
X46282628Y-55483537D02*
X46282628Y-55237623D01*
X51751471Y-55400000D02*
X52087352Y-55400000D01*
X46693780Y-54826471D02*
X46693780Y-54083673D01*
X52087352Y-55400000D02*
X52262352Y-55225000D01*
X53251471Y-53900000D02*
X53500000Y-53900000D01*
X52262352Y-55225000D02*
X52275000Y-55225000D01*
X55500000Y-50250000D02*
X55015256Y-50250000D01*
X46700000Y-54077453D02*
X46700000Y-52500000D01*
X51400000Y-56100000D02*
X51400000Y-55751471D01*
X46282628Y-55237623D02*
X46693780Y-54826471D01*
X54700000Y-51650000D02*
X53500000Y-52850000D01*
X55500000Y-49775000D02*
X55500000Y-50250000D01*
X55015256Y-50250000D02*
X54700000Y-50565256D01*
X51400000Y-55751471D02*
X51751471Y-55400000D01*
%TO.N,RP2350_GPIO_11*%
X42000000Y-52600000D02*
X42650003Y-52600000D01*
X42650003Y-52600000D02*
X42719671Y-52530332D01*
X35000000Y-43856729D02*
X34921205Y-43777934D01*
X35302076Y-44716945D02*
X35000000Y-44414869D01*
X35000000Y-44414869D02*
X35000000Y-43856729D01*
X42719671Y-52530332D02*
X43369668Y-52530332D01*
X37000145Y-44716945D02*
X35302076Y-44716945D01*
X41250000Y-46250000D02*
X41000000Y-46500000D01*
X43369668Y-52530332D02*
X44050000Y-51850000D01*
X41250000Y-45762500D02*
X41250000Y-46250000D01*
%TO.N,Net-(JP1-SIG)*%
X73000000Y-42500000D02*
X73500000Y-42500000D01*
X75500000Y-40500000D02*
X75965000Y-40500000D01*
X73500000Y-42500000D02*
X75500000Y-40500000D01*
X72695000Y-42500000D02*
X73000000Y-42500000D01*
%TO.N,Net-(BUZZER2-+)*%
X29700000Y-66575000D02*
X31975000Y-66575000D01*
X31975000Y-66575000D02*
X32400000Y-67000000D01*
%TO.N,Net-(C40-Pad1)*%
X36916138Y-40482198D02*
X36916138Y-43484522D01*
%TO.N,+5V*%
D66*
X77500000Y-52384314D02*
X77500000Y-36000000D01*
D65*
X79550000Y-82550000D02*
X79500000Y-82500000D01*
D66*
X51605894Y-80225310D02*
X51597774Y-80217564D01*
X11500000Y-91000000D02*
X11000000Y-90500000D01*
X18153765Y-91000000D02*
X11500000Y-91000000D01*
X51070665Y-80229992D02*
X50236490Y-80249660D01*
X43390631Y-66293173D02*
X41500000Y-66293173D01*
X85000000Y-20000000D02*
X85000000Y-21450000D01*
X68950000Y-61065422D02*
X68950000Y-63000000D01*
X71500000Y-63000000D02*
X74275000Y-60225000D01*
X20725000Y-85500000D02*
X20725000Y-88428765D01*
X52969550Y-80241570D02*
X52961630Y-80233553D01*
X50228192Y-80242199D02*
X49968900Y-80255969D01*
X68500000Y-65000000D02*
X68950000Y-64550000D01*
X59515216Y-59810216D02*
X60705000Y-61000000D01*
X53797362Y-80265397D02*
X53791022Y-80271038D01*
X74275000Y-60225000D02*
X74275000Y-55609314D01*
X53914526Y-80272229D02*
X53797362Y-80265397D01*
X51338269Y-80223682D02*
X51078649Y-80222104D01*
X66125000Y-81500000D02*
X64897229Y-80272229D01*
X49709317Y-80262089D02*
X49701615Y-80270163D01*
X49968900Y-80255969D02*
X49709317Y-80262089D01*
X11000000Y-90500000D02*
X11000000Y-84500000D01*
X66950000Y-61000000D02*
X68950000Y-63000000D01*
X52961630Y-80233553D02*
X52702067Y-80231975D01*
X60705000Y-61000000D02*
X66950000Y-61000000D01*
X71000000Y-62000000D02*
X71775000Y-61225000D01*
X20725000Y-88428765D02*
X18153765Y-91000000D01*
X52434431Y-80230347D02*
X51605894Y-80225310D01*
X51597774Y-80217564D02*
X51338269Y-80223682D01*
X49701615Y-80270163D02*
X49662709Y-80272229D01*
X71775000Y-60500000D02*
X71450000Y-60500000D01*
X59149265Y-54649265D02*
X58500000Y-54000000D01*
X53791022Y-80271038D02*
X52969550Y-80241570D01*
X80050000Y-84000000D02*
X79550000Y-84500000D01*
D65*
X43417438Y-66200000D02*
X43417438Y-66266366D01*
D66*
X81500000Y-25050000D02*
X85050000Y-21500000D01*
X68950000Y-63000000D02*
X69950000Y-62000000D01*
X66984578Y-59100000D02*
X66934578Y-59150000D01*
X61675000Y-56000000D02*
X61144973Y-56000000D01*
X52442680Y-80222670D02*
X52434431Y-80230347D01*
X50236490Y-80249660D02*
X50228192Y-80242199D01*
X49662709Y-80272229D02*
X33566725Y-80272229D01*
X77500000Y-36000000D02*
X81500000Y-32000000D01*
X68950000Y-64550000D02*
X68950000Y-63000000D01*
X58500000Y-54000000D02*
X58250000Y-54000000D01*
D65*
X43417438Y-66266366D02*
X43390631Y-66293173D01*
D66*
X52702067Y-80231975D02*
X52442680Y-80222670D01*
X62650000Y-59150000D02*
X61675000Y-58175000D01*
X81500000Y-32000000D02*
X81500000Y-25050000D01*
X51078649Y-80222104D02*
X51070665Y-80229992D01*
X69950000Y-62000000D02*
X71000000Y-62000000D01*
D65*
X69275000Y-63325000D02*
X69275000Y-66500000D01*
D66*
X61675000Y-56000000D02*
X61675000Y-58175000D01*
X74275000Y-55609314D02*
X77500000Y-52384314D01*
X70500000Y-64000000D02*
X69950000Y-64000000D01*
X33566725Y-80272229D02*
X27671378Y-86167576D01*
X71775000Y-61225000D02*
X71775000Y-60500000D01*
X66934578Y-59150000D02*
X62650000Y-59150000D01*
D65*
X20725000Y-85500000D02*
X20725000Y-85225000D01*
D66*
X59794238Y-54649265D02*
X59149265Y-54649265D01*
D65*
X68950000Y-63000000D02*
X69275000Y-63325000D01*
D66*
X69950000Y-64000000D02*
X68950000Y-63000000D01*
X79550000Y-84500000D02*
X79550000Y-82550000D01*
X67500000Y-81500000D02*
X66125000Y-81500000D01*
X61144973Y-56000000D02*
X59794238Y-54649265D01*
X81000000Y-84000000D02*
X80050000Y-84000000D01*
X68950000Y-63000000D02*
X71500000Y-63000000D01*
X55399011Y-59810216D02*
X59515216Y-59810216D01*
X64897229Y-80272229D02*
X53914526Y-80272229D01*
X68000000Y-81000000D02*
X67500000Y-81500000D01*
X66984578Y-59100000D02*
X68950000Y-61065422D01*
%TO.N,RP2350_GPIO_9*%
D65*
X40400000Y-45837500D02*
X40400000Y-47176472D01*
X42173806Y-48830000D02*
X42220872Y-48782934D01*
X41750000Y-48830000D02*
X42173806Y-48830000D01*
X44950000Y-51050000D02*
X44050000Y-51050000D01*
X40400000Y-47176472D02*
X40786028Y-47562500D01*
X40737500Y-45500000D02*
X40400000Y-45837500D01*
X42212938Y-48775000D02*
X42220872Y-48782934D01*
X45000000Y-51000000D02*
X44950000Y-51050000D01*
%TO.N,RP2350_GPIO_5*%
X43553640Y-49050000D02*
X42666140Y-48162500D01*
X38900000Y-47807179D02*
X39227179Y-47807179D01*
X39227179Y-47807179D02*
X40250000Y-48830000D01*
X35325735Y-45825735D02*
X35325735Y-46225735D01*
X40382500Y-48162500D02*
X40250000Y-48295000D01*
X35325735Y-46225735D02*
X37100000Y-48000000D01*
X27500000Y-44175000D02*
X28675000Y-44175000D01*
X44050000Y-49050000D02*
X43553640Y-49050000D01*
X42666140Y-48162500D02*
X40382500Y-48162500D01*
X40250000Y-48295000D02*
X40250000Y-48830000D01*
X28675000Y-44175000D02*
X29500000Y-45000000D01*
%TO.N,RP2350_GPIO_6*%
X40937500Y-52000000D02*
X42500000Y-52000000D01*
X44569802Y-49450000D02*
X44050000Y-49450000D01*
X44899746Y-49779944D02*
X44569802Y-49450000D01*
X40750000Y-51812500D02*
X40937500Y-52000000D01*
X40750000Y-51225000D02*
X40750000Y-51812500D01*
%TO.N,RP2350_GPIO_10*%
X43000000Y-51447948D02*
X43000000Y-51450000D01*
X41920000Y-50500000D02*
X42052052Y-50500000D01*
X41541327Y-53389857D02*
X40975734Y-52824264D01*
X41541327Y-53824738D02*
X41541327Y-53389857D01*
X42052052Y-50500000D02*
X42601761Y-51049709D01*
X42601761Y-51049709D02*
X43000000Y-51447948D01*
X43000000Y-51450000D02*
X44050000Y-51450000D01*
%TO.N,RP2350_GPIO_7*%
X37700000Y-48851304D02*
X37475000Y-49076304D01*
X37700000Y-43044688D02*
X37700000Y-48851304D01*
X39201836Y-52107059D02*
X40227281Y-52107059D01*
X37475000Y-49076304D02*
X37475000Y-50380223D01*
X41250000Y-44237500D02*
X39730884Y-42718384D01*
X41462728Y-50000000D02*
X41975000Y-50000000D01*
X39730884Y-42718384D02*
X38026304Y-42718384D01*
X41076366Y-50386362D02*
X41462728Y-50000000D01*
X43531458Y-49850000D02*
X44050000Y-49850000D01*
X37475000Y-50380223D02*
X39201836Y-52107059D01*
X38026304Y-42718384D02*
X37700000Y-43044688D01*
X41076366Y-50411970D02*
X41076366Y-50386362D01*
X43090729Y-49409271D02*
X43531458Y-49850000D01*
%TO.N,RP2350_GPIO_8*%
X41920000Y-49500000D02*
X41114198Y-49500000D01*
X43553640Y-50650000D02*
X44050000Y-50650000D01*
X40000000Y-45000000D02*
X40737500Y-45000000D01*
X41114198Y-49500000D02*
X40939668Y-49674530D01*
X39500000Y-45500000D02*
X40000000Y-45000000D01*
X41920000Y-49500000D02*
X42403640Y-49500000D01*
X42403640Y-49500000D02*
X43553640Y-50650000D01*
%TO.N,Net-(C26-Pad2)*%
X45920000Y-26740000D02*
X43792500Y-26740000D01*
X54580000Y-26740000D02*
X54580000Y-22560000D01*
X42052500Y-25000000D02*
X41215000Y-25000000D01*
X45920000Y-22807500D02*
X42890000Y-25837500D01*
X45920000Y-22560000D02*
X45920000Y-22807500D01*
X43792500Y-26740000D02*
X42890000Y-25837500D01*
X54580000Y-22560000D02*
X45920000Y-22560000D01*
X42890000Y-25837500D02*
X42052500Y-25000000D01*
%TO.N,Net-(USB1-CC1)*%
X45500000Y-29500000D02*
X44175000Y-29500000D01*
X51500000Y-28483013D02*
X51500000Y-27500000D01*
X51694181Y-28662774D02*
X51679761Y-28662774D01*
X44175000Y-29500000D02*
X43175000Y-28500000D01*
X51679761Y-28662774D02*
X51500000Y-28483013D01*
%TO.N,Net-(USB1-DP1)*%
X39565000Y-28500000D02*
X39565000Y-29837500D01*
X40327500Y-30600000D02*
X48290000Y-30600000D01*
X49500000Y-26600000D02*
X49550000Y-26550000D01*
X50450000Y-26550000D02*
X50500000Y-26600000D01*
X39565000Y-29837500D02*
X40327500Y-30600000D01*
X49500000Y-27500000D02*
X49500000Y-26600000D01*
X48290000Y-30600000D02*
X49500000Y-29390000D01*
X49550000Y-26550000D02*
X50450000Y-26550000D01*
X50500000Y-26600000D02*
X50500000Y-27500000D01*
X49500000Y-29390000D02*
X49500000Y-27500000D01*
%TO.N,Net-(USB1-DN1)*%
X50050000Y-28450000D02*
X50950000Y-28450000D01*
X59456981Y-30218019D02*
X60175000Y-29500000D01*
X51000000Y-28999213D02*
X52218806Y-30218019D01*
X51000000Y-27500000D02*
X51000000Y-28999213D01*
X51000000Y-28400000D02*
X51000000Y-27500000D01*
X50950000Y-28450000D02*
X51000000Y-28400000D01*
X52218806Y-30218019D02*
X59456981Y-30218019D01*
X60175000Y-29500000D02*
X60175000Y-28500000D01*
X50000000Y-28400000D02*
X50050000Y-28450000D01*
X50000000Y-27500000D02*
X50000000Y-28400000D01*
%TO.N,Net-(USB1-CC2)*%
X54675000Y-29500000D02*
X55675000Y-28500000D01*
X48500000Y-28600000D02*
X48900000Y-29000000D01*
X54500000Y-29500000D02*
X54675000Y-29500000D01*
X48500000Y-27500000D02*
X48500000Y-28600000D01*
%TO.N,Net-(STATUS1-DIN)*%
X31230000Y-38055000D02*
X33675000Y-40500000D01*
%TO.N,Net-(Q1-G)*%
D67*
X22437500Y-23450000D02*
X25125000Y-23450000D01*
D65*
X25125000Y-23450000D02*
X25175000Y-23500000D01*
D67*
X25175000Y-20500000D02*
X25175000Y-23500000D01*
%TO.N,Net-(D1-A)*%
X17500000Y-23500000D02*
X19562500Y-23500000D01*
X19562500Y-23500000D02*
X20562500Y-22500000D01*
X12235000Y-10500000D02*
X12235000Y-18235000D01*
X12235000Y-18235000D02*
X17500000Y-23500000D01*
%TO.N,Net-(U4-B)*%
D65*
X59175000Y-66500000D02*
X59175000Y-64530000D01*
X59175000Y-64530000D02*
X60755000Y-62950000D01*
%TO.N,RP2350_GPIO_25_5.5V*%
D66*
X26000000Y-15000000D02*
X24150000Y-15000000D01*
%TO.N,RP2350_GPIO_4*%
D65*
X41963251Y-46904292D02*
X41991043Y-46876500D01*
X44546360Y-48650000D02*
X45000000Y-48196360D01*
X41750000Y-45882457D02*
X41750000Y-45762500D01*
X45000000Y-48196360D02*
X45000000Y-46500000D01*
X41991043Y-46123500D02*
X41750000Y-45882457D01*
X41991043Y-46876500D02*
X41991043Y-46123500D01*
X44050000Y-48650000D02*
X44546360Y-48650000D01*
%TO.N,Net-(C52-Pad1)*%
X68537112Y-37400000D02*
X69317835Y-38180723D01*
X64150000Y-38400000D02*
X65150000Y-37400000D01*
X70000000Y-38862888D02*
X69317835Y-38180723D01*
X65150000Y-37400000D02*
X68537112Y-37400000D01*
%TO.N,RP2350_USB_DP*%
X47696360Y-44900000D02*
X47900000Y-45103640D01*
X41215000Y-28500000D02*
X41215000Y-28825000D01*
X47100000Y-43406365D02*
X47100000Y-44600000D01*
X47900001Y-42099999D02*
X47900001Y-42599999D01*
X47400000Y-44900000D02*
X47696360Y-44900000D01*
X47100000Y-44600000D02*
X47400000Y-44900000D01*
X41215000Y-28825000D02*
X42390000Y-30000000D01*
X47268807Y-43237558D02*
X47100000Y-43406365D01*
X47900000Y-45103640D02*
X47900000Y-45600000D01*
X47268807Y-43231193D02*
X47268807Y-43237558D01*
X47900001Y-42599999D02*
X47268807Y-43231193D01*
%TO.N,RP2350_GPIO_26_ADC*%
X63725000Y-63000000D02*
X63725000Y-65450000D01*
X64000000Y-62000000D02*
X64000000Y-62725000D01*
X50142801Y-48294272D02*
X50187073Y-48250000D01*
X65325000Y-60000000D02*
X66500000Y-60000000D01*
X50187073Y-48250000D02*
X50950000Y-48250000D01*
%TO.N,Net-(RP2350-RUN)*%
X28707735Y-49255019D02*
X28800000Y-49347284D01*
X50181579Y-55119802D02*
X48700000Y-53638222D01*
X48700000Y-53638222D02*
X48700000Y-52500000D01*
X29350907Y-46482823D02*
X28707735Y-47125995D01*
X28707735Y-47125995D02*
X28707735Y-49255019D01*
X28800000Y-51950000D02*
X29425000Y-52575000D01*
X29500000Y-54000000D02*
X29500000Y-52650000D01*
X28800000Y-49347284D02*
X28800000Y-51950000D01*
%TO.N,Net-(LED1-DIN)*%
D66*
X21500000Y-15000000D02*
X22500000Y-15000000D01*
%TO.N,BATT_SW+*%
D67*
X17500000Y-19500000D02*
X14775000Y-16775000D01*
X56279422Y-78050000D02*
X56279422Y-78674705D01*
X81065365Y-79434635D02*
X82000000Y-78500000D01*
X62565687Y-63082845D02*
X62565687Y-66159093D01*
D65*
X17000000Y-79000000D02*
X17050000Y-79050000D01*
D67*
X56500000Y-73400000D02*
X56500000Y-73050000D01*
X55500000Y-74500000D02*
X55500000Y-72050000D01*
X57039352Y-79434635D02*
X81065365Y-79434635D01*
X63675000Y-60000000D02*
X62500000Y-60000000D01*
D65*
X60275000Y-51000000D02*
X59775000Y-50500000D01*
D67*
X62500000Y-60000000D02*
X61750000Y-59250000D01*
X83000000Y-80500000D02*
X83000000Y-78500000D01*
X60189339Y-59250000D02*
X59450062Y-58510723D01*
X29954118Y-81225211D02*
X21237711Y-81225211D01*
X56279422Y-78674705D02*
X57039352Y-79434635D01*
X21237711Y-81225211D02*
X19062500Y-79050000D01*
X59450062Y-57499938D02*
X59950000Y-57000000D01*
D69*
X54950000Y-71500000D02*
X54950000Y-69090000D01*
D65*
X79981577Y-15234712D02*
X79981577Y-15018423D01*
D67*
X14775000Y-16775000D02*
X14775000Y-10500000D01*
X82000000Y-78500000D02*
X83000000Y-78500000D01*
X62362500Y-52900000D02*
X60500000Y-52900000D01*
X59400735Y-55599265D02*
X59950000Y-56148530D01*
X59773645Y-68951135D02*
X58846736Y-68951135D01*
X82000000Y-13000000D02*
X84517208Y-13000000D01*
X62362500Y-51000000D02*
X60275000Y-51000000D01*
X62475000Y-62992158D02*
X62565687Y-63082845D01*
X55500000Y-72050000D02*
X54950000Y-71500000D01*
D69*
X58846736Y-68951135D02*
X55991135Y-68951135D01*
D67*
X59450062Y-58510723D02*
X59450062Y-57499938D01*
X59950000Y-56148530D02*
X59950000Y-57000000D01*
X62565687Y-66159093D02*
X59773645Y-68951135D01*
D69*
X55991135Y-68951135D02*
X55540000Y-68500000D01*
D67*
X61750000Y-59250000D02*
X60189339Y-59250000D01*
X56500000Y-73050000D02*
X54950000Y-71500000D01*
D69*
X54950000Y-69090000D02*
X55540000Y-68500000D01*
D67*
X79981577Y-15018423D02*
X82000000Y-13000000D01*
X84517208Y-13000000D02*
X87017208Y-10500000D01*
%TO.N,RP2350_SWCLK*%
D65*
X48500000Y-66000000D02*
X50500000Y-66000000D01*
X48284157Y-54919438D02*
X47900000Y-54535281D01*
X47900000Y-54535281D02*
X47900000Y-52500000D01*
X46500000Y-64000000D02*
X48500000Y-66000000D01*
%TO.N,RP2350_SWDIO*%
X49040000Y-64000000D02*
X50040000Y-65000000D01*
X49150648Y-54937399D02*
X48300000Y-54086751D01*
X50040000Y-65000000D02*
X51500000Y-65000000D01*
X48300000Y-54086751D02*
X48300000Y-52500000D01*
%TO.N,Net-(D2-A)*%
D67*
X80716289Y-10500000D02*
X84477208Y-10500000D01*
D65*
X84477208Y-10500000D02*
X84477208Y-11022792D01*
X75981577Y-15018423D02*
X75981577Y-15234712D01*
X84477208Y-10500000D02*
X84477208Y-10739081D01*
D67*
X75981577Y-15234712D02*
X80716289Y-10500000D01*
X80493750Y-22000000D02*
X80493750Y-19746886D01*
%TO.N,RP2350_GPIO_24*%
D65*
X51998529Y-49850000D02*
X50950000Y-49850000D01*
X52788482Y-48864717D02*
X52788482Y-49060047D01*
X36325000Y-39500000D02*
X39000000Y-39500000D01*
X52788482Y-49060047D02*
X51998529Y-49850000D01*
X35325000Y-40500000D02*
X36325000Y-39500000D01*
%TO.N,Net-(U3-FB)*%
X61325000Y-54000000D02*
X63325000Y-56000000D01*
X65175000Y-56500000D02*
X63825000Y-56500000D01*
X59750000Y-54000000D02*
X61325000Y-54000000D01*
X63825000Y-56500000D02*
X63325000Y-56000000D01*
%TO.N,RP2350_GPIO_18*%
X50526430Y-53622790D02*
X49900000Y-52996360D01*
X49900000Y-52996360D02*
X49900000Y-52500000D01*
X26825000Y-25175000D02*
X24500000Y-27500000D01*
X51668010Y-53622790D02*
X50526430Y-53622790D01*
X26825000Y-23500000D02*
X26825000Y-25175000D01*
X51689111Y-53643891D02*
X51668010Y-53622790D01*
%TO.N,Net-(C44-Pad1)*%
D66*
X70450000Y-58500000D02*
X70450000Y-60275000D01*
X70450000Y-60275000D02*
X70225000Y-60500000D01*
%TO.N,RP2350_QSPI_SS*%
D65*
X41825000Y-39370001D02*
X43100001Y-38095000D01*
X43100001Y-38095000D02*
X43912500Y-38095000D01*
X41825000Y-42725000D02*
X41825000Y-41000000D01*
X41825000Y-41000000D02*
X41825000Y-39370001D01*
X44700000Y-45600000D02*
X41825000Y-42725000D01*
%TO.N,RP2350_QSPI_SD1*%
X44000000Y-43500000D02*
X44000000Y-44334314D01*
X44000000Y-44334314D02*
X44565686Y-44900000D01*
X44565686Y-44900000D02*
X44896360Y-44900000D01*
X44724999Y-39365000D02*
X45025000Y-39665001D01*
X44896360Y-44900000D02*
X45100000Y-45103640D01*
X43912500Y-39365000D02*
X44724999Y-39365000D01*
X45025000Y-39665001D02*
X45025000Y-42475000D01*
X45025000Y-42475000D02*
X44000000Y-43500000D01*
X45100000Y-45103640D02*
X45100000Y-45600000D01*
%TO.N,RP2350_QSPI_SD2*%
X45500000Y-44817157D02*
X45500000Y-45600000D01*
X42726307Y-40635000D02*
X42718929Y-40627622D01*
X44600000Y-43917157D02*
X45500000Y-44817157D01*
X43912500Y-40635000D02*
X42726307Y-40635000D01*
%TO.N,RP2350_QSPI_SD0*%
X45256847Y-43956847D02*
X45900000Y-44600000D01*
X51087500Y-41905000D02*
X50042106Y-41905000D01*
X45900000Y-44600000D02*
X45900000Y-45600000D01*
X50042106Y-41905000D02*
X47318553Y-39181447D01*
X45256847Y-43460477D02*
X45256847Y-43956847D01*
%TO.N,RP2350_QSPI_SCLK*%
X46055720Y-44190034D02*
X46300000Y-44434315D01*
X46055720Y-43502963D02*
X46055720Y-44190034D01*
X46300000Y-45103640D02*
X46300000Y-45600000D01*
X51087500Y-40635000D02*
X49751015Y-40635000D01*
X49751015Y-40635000D02*
X48091620Y-38975605D01*
X46300000Y-44434315D02*
X46300000Y-45103640D01*
%TO.N,RP2350_QSPI_SD3*%
X51087500Y-39365000D02*
X49365000Y-39365000D01*
X46700000Y-43020222D02*
X46668807Y-42989029D01*
X46700000Y-45600000D02*
X46700000Y-43020222D01*
X49365000Y-39365000D02*
X49000000Y-39000000D01*
%TO.N,RP2350_GPIO_12*%
X36500000Y-61500000D02*
X36000000Y-61000000D01*
X59000000Y-50051304D02*
X59000000Y-51348530D01*
X62125000Y-46175000D02*
X61644928Y-46175000D01*
X61025000Y-48026304D02*
X59000000Y-50051304D01*
X42462136Y-53333318D02*
X42795454Y-53000000D01*
X61025000Y-46794928D02*
X61025000Y-48026304D01*
X45400000Y-61500000D02*
X36500000Y-61500000D01*
X61644928Y-46175000D02*
X61025000Y-46794928D01*
X42795454Y-53000000D02*
X44200000Y-53000000D01*
X44200000Y-53000000D02*
X44700000Y-52500000D01*
X59000000Y-51348530D02*
X58561961Y-51786569D01*
X45500000Y-61400000D02*
X45400000Y-61500000D01*
%TO.N,RP2350_GPIO_13*%
X43143984Y-53500000D02*
X44500000Y-53500000D01*
X42467856Y-54176128D02*
X43143984Y-53500000D01*
X41473696Y-56075000D02*
X40075000Y-56075000D01*
X45100000Y-52996360D02*
X45100000Y-52500000D01*
X44896360Y-53200000D02*
X45100000Y-52996360D01*
X41775000Y-59275000D02*
X41775000Y-56376304D01*
X44800000Y-53200000D02*
X44896360Y-53200000D01*
X44500000Y-53500000D02*
X44800000Y-53200000D01*
X40075000Y-56075000D02*
X40000000Y-56000000D01*
X41775000Y-56376304D02*
X41473696Y-56075000D01*
X66325000Y-47947367D02*
X67537345Y-49159712D01*
X42000000Y-59500000D02*
X41775000Y-59275000D01*
%TO.N,RP2350_XOUT*%
X52675000Y-56000000D02*
X52000000Y-56000000D01*
X47093780Y-54249359D02*
X47100000Y-54243138D01*
X47093780Y-55275000D02*
X47093780Y-54249359D01*
X47100000Y-54243138D02*
X47100000Y-52500000D01*
%TO.N,RP2350_GPIO_16*%
X65458493Y-42122879D02*
X65325000Y-42256372D01*
X49100000Y-52500000D02*
X49100000Y-53472536D01*
X50147267Y-54519802D02*
X50519802Y-54519802D01*
X65325000Y-42256372D02*
X65325000Y-42975000D01*
X68500000Y-44000000D02*
X66622879Y-42122879D01*
X50519802Y-54519802D02*
X51000000Y-55000000D01*
X70000000Y-44000000D02*
X68500000Y-44000000D01*
X66622879Y-42122879D02*
X65458493Y-42122879D01*
X49100000Y-53472536D02*
X50147267Y-54519802D01*
%TO.N,RP2350_GPIO_17*%
X66900000Y-41600000D02*
X66900000Y-40809024D01*
X64825000Y-42190686D02*
X65415686Y-41600000D01*
X68080413Y-40507983D02*
X69028227Y-41455797D01*
X69028227Y-41455797D02*
X69028227Y-42028227D01*
X50360744Y-54022790D02*
X51154164Y-54022790D01*
X69028227Y-42028227D02*
X70000000Y-43000000D01*
X49500000Y-53162046D02*
X50360744Y-54022790D01*
X67201041Y-40507983D02*
X68080413Y-40507983D01*
X66900000Y-40809024D02*
X67201041Y-40507983D01*
X51154164Y-54022790D02*
X51565687Y-54434313D01*
X65415686Y-41600000D02*
X66900000Y-41600000D01*
X49500000Y-52500000D02*
X49500000Y-53162046D01*
X64825000Y-42975000D02*
X64825000Y-42190686D01*
%TO.N,RP2350_GPIO_19*%
X59900000Y-43000000D02*
X59400000Y-42500000D01*
X60925000Y-43000000D02*
X59900000Y-43000000D01*
X50950000Y-52050000D02*
X50950000Y-51850000D01*
X51333327Y-52500000D02*
X51333327Y-52433327D01*
X51333327Y-52433327D02*
X50950000Y-52050000D01*
X73281250Y-24000000D02*
X74731250Y-24000000D01*
%TO.N,RP2350_GPIO_21*%
X70500000Y-74500000D02*
X72350000Y-74500000D01*
X52194133Y-51050000D02*
X52289112Y-50955021D01*
X50950000Y-51050000D02*
X52194133Y-51050000D01*
%TO.N,RP2350_GPIO_22*%
X52040583Y-50355021D02*
X51745604Y-50650000D01*
X51745604Y-50650000D02*
X50950000Y-50650000D01*
X31000000Y-65000000D02*
X29775000Y-65000000D01*
X53350313Y-49224612D02*
X52219904Y-50355021D01*
X53350313Y-49224612D02*
X53900000Y-49224611D01*
X52219904Y-50355021D02*
X52040583Y-50355021D01*
%TO.N,RP2350_GPIO_25*%
X54025000Y-64473696D02*
X54025000Y-62525000D01*
X53751461Y-62251461D02*
X52805512Y-62251461D01*
X52000000Y-49000000D02*
X51550000Y-49450000D01*
X54326304Y-64775000D02*
X54025000Y-64473696D01*
X51674011Y-58188637D02*
X53500000Y-56362648D01*
X51550000Y-49450000D02*
X50950000Y-49450000D01*
X54025000Y-62525000D02*
X53751461Y-62251461D01*
X58245000Y-62950000D02*
X56420000Y-64775000D01*
X56420000Y-64775000D02*
X54326304Y-64775000D01*
X53500000Y-56362648D02*
X53500000Y-54500000D01*
X51674011Y-61119960D02*
X51674011Y-58188637D01*
X52805512Y-62251461D02*
X51674011Y-61119960D01*
%TO.N,Net-(RP2350-VREG_AVDD)*%
X44614289Y-37470000D02*
X43275000Y-36130711D01*
X51500000Y-44500000D02*
X51500000Y-44355711D01*
X51628244Y-44871757D02*
X51628244Y-44628244D01*
X45025000Y-37736424D02*
X44758576Y-37470000D01*
X44758576Y-37470000D02*
X44614289Y-37470000D01*
X48625491Y-32800491D02*
X50325000Y-34500000D01*
X51628244Y-44628244D02*
X51500000Y-44500000D01*
X50900000Y-45600000D02*
X51628244Y-44871757D01*
X50300000Y-45600000D02*
X50900000Y-45600000D01*
X51500000Y-44355711D02*
X45025000Y-37880711D01*
X45025000Y-37880711D02*
X45025000Y-37736424D01*
X43474509Y-32800491D02*
X48625491Y-32800491D01*
X43275000Y-36130711D02*
X43275000Y-33000000D01*
%TO.N,Net-(RP2350-VREG_LX)*%
X56275000Y-35400000D02*
X54180000Y-37495000D01*
X49500000Y-43699998D02*
X49500000Y-45600000D01*
X54180000Y-37495000D02*
X52536027Y-37495000D01*
X49400001Y-43599999D02*
X49500000Y-43699998D01*
%TO.N,RP2350_USB_DM*%
X48032843Y-44208965D02*
X48032843Y-43152721D01*
X48300000Y-44476122D02*
X48032843Y-44208965D01*
X48300000Y-45600000D02*
X48300000Y-44476122D01*
X48032843Y-43152721D02*
X48492783Y-42692781D01*
X61802898Y-29802410D02*
X61802898Y-28646292D01*
%TO.N,ESP32_VDD_3P3*%
X62125000Y-44175000D02*
X62125000Y-44675000D01*
X56515000Y-45485000D02*
X58275000Y-43725000D01*
X59500000Y-46725000D02*
X60275000Y-47500000D01*
X56515000Y-46000000D02*
X57240000Y-46725000D01*
X61260614Y-43725000D02*
X61710614Y-44175000D01*
X58275000Y-43725000D02*
X61260614Y-43725000D01*
X56515000Y-46000000D02*
X56515000Y-45485000D01*
X57240000Y-46725000D02*
X59500000Y-46725000D01*
X61710614Y-44175000D02*
X62125000Y-44175000D01*
%TO.N,ESP32_40M_X0*%
X63301678Y-39600000D02*
X62963227Y-39938451D01*
X67925404Y-39600000D02*
X63301678Y-39600000D01*
X68025404Y-39500000D02*
X67925404Y-39600000D01*
X63825000Y-42560614D02*
X63825000Y-42975000D01*
X62957928Y-42042072D02*
X63306458Y-42042072D01*
X70000000Y-40000000D02*
X70000000Y-41173710D01*
X63306458Y-42042072D02*
X63825000Y-42560614D01*
X68500000Y-39500000D02*
X68025404Y-39500000D01*
%TO.N,Net-(C7-Pad1)*%
X56025000Y-47526304D02*
X56025000Y-50825000D01*
X55866537Y-47367841D02*
X56025000Y-47526304D01*
X54325000Y-56000000D02*
X55000000Y-56000000D01*
X54775000Y-45000000D02*
X55866537Y-46091537D01*
X57000000Y-51500000D02*
X56050000Y-51500000D01*
X55866537Y-46091537D02*
X55866537Y-47367841D01*
%TO.N,Net-(R8-Pad2)*%
X34400907Y-49024093D02*
X34400907Y-46482823D01*
X31575000Y-52575000D02*
X31575000Y-51850000D01*
X31575000Y-51850000D02*
X34400907Y-49024093D01*
%TO.N,Net-(Q2-G)*%
D67*
X76381250Y-21000000D02*
X76381250Y-24000000D01*
X78618750Y-21050000D02*
X76431250Y-21050000D01*
D65*
X76431250Y-21050000D02*
X76381250Y-21000000D01*
%TO.N,Net-(ESP32-GPIO8)*%
X66534712Y-50534712D02*
X65325000Y-49325000D01*
X67445605Y-50534712D02*
X66534712Y-50534712D01*
X65325000Y-49325000D02*
X65325000Y-47875000D01*
%TO.N,ESP32_40M_X1*%
X65850000Y-40600000D02*
X64832193Y-41617807D01*
X64325000Y-42325000D02*
X64325000Y-42975000D01*
X64832193Y-41617807D02*
X63382193Y-41617807D01*
X63617807Y-41617807D02*
X64325000Y-42325000D01*
X62764386Y-41000000D02*
X62275000Y-41000000D01*
X63382193Y-41617807D02*
X63617807Y-41617807D01*
X63382193Y-41617807D02*
X62764386Y-41000000D01*
%TO.N,Net-(D3-A)*%
D67*
X21512500Y-77500000D02*
X19062500Y-75050000D01*
X24437500Y-77500000D02*
X21512500Y-77500000D01*
%TO.N,+5V*%
D66*
X68950000Y-63000000D02*
X68950000Y-63550000D01*
X65971489Y-66815709D02*
X65394477Y-67392721D01*
X65394477Y-67392721D02*
X62392721Y-67392721D01*
X65971489Y-66528511D02*
X65971489Y-66815709D01*
X68950000Y-63550000D02*
X65971489Y-66528511D01*
%TO.N,BATT_SW+*%
D67*
X61100000Y-59949998D02*
X61100000Y-59900000D01*
%TO.N,+3.3V*%
D65*
X46300000Y-52996360D02*
X46300000Y-52500000D01*
%TD*%
M02*
