%TF.GenerationSoftware,KiCad,Pcbnew,10.0.1*%
%TF.CreationDate,2026-05-03T19:34:38-07:00*%
%TF.ProjectId,LSwarm Drone PCB,4c537761-726d-4204-9472-6f6e65205043,rev?*%
%TF.SameCoordinates,Original*%
%TF.FileFunction,Copper,L4,Bot*%
%TF.FilePolarity,Positive*%
%FSLAX46Y46*%
G04 Gerber Fmt 4.6, Leading zero omitted, Abs format (unit mm)*
G04 Created by KiCad (PCBNEW 10.0.1) date 2026-05-03 19:34:38*
%MOMM*%
%LPD*%
G01*
G04 APERTURE LIST*
G04 Aperture macros list*
%AMRoundRect*
0 Rectangle with rounded corners*
0 $1 Rounding radius*
0 $2 $3 $4 $5 $6 $7 $8 $9 X,Y pos of 4 corners*
0 Add a 4 corners polygon primitive as box body*
4,1,4,$2,$3,$4,$5,$6,$7,$8,$9,$2,$3,0*
0 Add four circle primitives for the rounded corners*
1,1,$1+$1,$2,$3*
1,1,$1+$1,$4,$5*
1,1,$1+$1,$6,$7*
1,1,$1+$1,$8,$9*
0 Add four rect primitives between the rounded corners*
20,1,$1+$1,$2,$3,$4,$5,0*
20,1,$1+$1,$4,$5,$6,$7,0*
20,1,$1+$1,$6,$7,$8,$9,0*
20,1,$1+$1,$8,$9,$2,$3,0*%
G04 Aperture macros list end*
%TA.AperFunction,ComponentPad*%
%ADD10O,1.200000X2.000000*%
%TD*%
%TA.AperFunction,ComponentPad*%
%ADD11O,1.200000X1.800000*%
%TD*%
%TA.AperFunction,ComponentPad*%
%ADD12R,1.700000X1.700000*%
%TD*%
%TA.AperFunction,ComponentPad*%
%ADD13C,1.700000*%
%TD*%
%TA.AperFunction,SMDPad,CuDef*%
%ADD14R,1.700000X0.800000*%
%TD*%
%TA.AperFunction,ComponentPad*%
%ADD15RoundRect,0.250000X-0.350000X-0.625000X0.350000X-0.625000X0.350000X0.625000X-0.350000X0.625000X0*%
%TD*%
%TA.AperFunction,ComponentPad*%
%ADD16O,1.200000X1.750000*%
%TD*%
%TA.AperFunction,ViaPad*%
%ADD17C,0.600000*%
%TD*%
%TA.AperFunction,ViaPad*%
%ADD18C,1.200000*%
%TD*%
%TA.AperFunction,ViaPad*%
%ADD19C,0.800000*%
%TD*%
%TA.AperFunction,ViaPad*%
%ADD20C,0.500000*%
%TD*%
%TA.AperFunction,Conductor*%
%ADD21C,0.200000*%
%TD*%
%TA.AperFunction,Conductor*%
%ADD22C,0.300000*%
%TD*%
%TA.AperFunction,Conductor*%
%ADD23C,0.500000*%
%TD*%
G04 APERTURE END LIST*
D10*
%TO.P,USB1,0,SH_0*%
%TO.N,Net-(C26-Pad2)*%
X54580000Y-26740000D03*
%TO.P,USB1,1,SH_1*%
X45920000Y-26740000D03*
D11*
%TO.P,USB1,2,SH_2*%
X45920000Y-22560000D03*
%TO.P,USB1,3,SH_3*%
X54580000Y-22560000D03*
%TD*%
D12*
%TO.P,J1,1,Pin_1_1*%
%TO.N,+3.3V*%
X41420000Y-64000000D03*
D13*
%TO.P,J1,2,Pin_2_2*%
%TO.N,GND*%
X43960000Y-64000000D03*
%TO.P,J1,3,Pin_3_3*%
%TO.N,RP2350_SWCLK*%
X46500000Y-64000000D03*
%TO.P,J1,4,Pin_4_4*%
%TO.N,RP2350_SWDIO*%
X49040000Y-64000000D03*
%TD*%
D12*
%TO.P,J7,1,Pin_1_1*%
%TO.N,BATT_SW+*%
X87275000Y-89500000D03*
D13*
%TO.P,J7,2,Pin_2_2*%
%TO.N,Net-(D4-A)*%
X84735000Y-89500000D03*
%TD*%
D12*
%TO.P,J4,1,Pin_1_1*%
%TO.N,BATT_SW+*%
X14775000Y-10500000D03*
D13*
%TO.P,J4,2,Pin_2_2*%
%TO.N,Net-(D1-A)*%
X12235000Y-10500000D03*
%TD*%
D12*
%TO.P,J5,1,Pin_1_1*%
%TO.N,BATT_SW+*%
X87017208Y-10500000D03*
D13*
%TO.P,J5,2,Pin_2_2*%
%TO.N,Net-(D2-A)*%
X84477208Y-10500000D03*
%TD*%
D12*
%TO.P,J6,1,Pin_1_1*%
%TO.N,BATT_SW+*%
X16000000Y-89500000D03*
D13*
%TO.P,J6,2,Pin_2_2*%
%TO.N,Net-(D3-A)*%
X13460000Y-89500000D03*
%TD*%
D14*
%TO.P,LED2,1,GND_1*%
%TO.N,GND*%
X87700000Y-15730000D03*
%TO.P,LED2,2,DIN_2*%
%TO.N,Net-(LED1-DOUT)*%
X87700000Y-14270000D03*
%TO.P,LED2,3,VDD_3*%
%TO.N,+5V*%
X82300000Y-14270000D03*
%TO.P,LED2,4,DOUT_4*%
%TO.N,Net-(LED2-DOUT)*%
X82300000Y-15730000D03*
%TD*%
%TO.P,LED4,1,GND_1*%
%TO.N,GND*%
X17700000Y-85730000D03*
%TO.P,LED4,2,DIN_2*%
%TO.N,Net-(LED3-DOUT)*%
X17700000Y-84270000D03*
%TO.P,LED4,3,VDD_3*%
%TO.N,+5V*%
X12300000Y-84270000D03*
%TO.P,LED4,4,DOUT_4*%
%TO.N,unconnected-(LED4-DOUT-Pad4)*%
X12300000Y-85730000D03*
%TD*%
%TO.P,LED3,1,GND_1*%
%TO.N,GND*%
X87700000Y-85730000D03*
%TO.P,LED3,2,DIN_2*%
%TO.N,Net-(LED2-DOUT)*%
X87700000Y-84270000D03*
%TO.P,LED3,3,VDD_3*%
%TO.N,+5V*%
X82300000Y-84270000D03*
%TO.P,LED3,4,DOUT_4*%
%TO.N,Net-(LED3-DOUT)*%
X82300000Y-85730000D03*
%TD*%
%TO.P,LED1,1,GND_1*%
%TO.N,GND*%
X17700000Y-15730000D03*
%TO.P,LED1,2,DIN_2*%
%TO.N,Net-(LED1-DIN)*%
X17700000Y-14270000D03*
%TO.P,LED1,3,VDD_3*%
%TO.N,+5V*%
X12300000Y-14270000D03*
%TO.P,LED1,4,DOUT_4*%
%TO.N,Net-(LED1-DOUT)*%
X12300000Y-15730000D03*
%TD*%
D15*
%TO.P,J3,1,Pin_1_1*%
%TO.N,BATT+*%
X50500000Y-78550000D03*
D16*
%TO.P,J3,2,Pin_2_2*%
%TO.N,GND*%
X52500000Y-78550000D03*
%TD*%
D17*
%TO.N,+3.3V*%
X52000000Y-46500000D03*
D18*
%TO.N,BATT_SW+*%
X61100000Y-59949998D03*
D17*
%TO.N,GND*%
X43965615Y-65485677D03*
X76027306Y-49765730D03*
%TO.N,+3.3V*%
X43750000Y-45750000D03*
X40000000Y-60900000D03*
X57808519Y-43342951D03*
X36732092Y-50450245D03*
X61719669Y-61780331D03*
X38300000Y-44119201D03*
X36948969Y-45515309D03*
X50626085Y-52873915D03*
X35500000Y-50500000D03*
X32086113Y-43200930D03*
X63000000Y-58500000D03*
X62279905Y-42500000D03*
X39711585Y-51230721D03*
X58266819Y-45998630D03*
X28000000Y-42500000D03*
X64318750Y-50681250D03*
X60272916Y-45482139D03*
X45900000Y-46500000D03*
X33000000Y-43200930D03*
X34630257Y-38008611D03*
X39501087Y-53002738D03*
X61851473Y-50200000D03*
X39407406Y-49214960D03*
%TO.N,GND*%
X67748088Y-38928787D03*
D18*
X22101161Y-79688086D03*
D17*
X38346129Y-66972534D03*
X66144811Y-46961931D03*
X58947326Y-39367964D03*
X33500000Y-58500000D03*
X38457019Y-41512884D03*
X34500000Y-53000000D03*
D18*
X54450000Y-78550000D03*
D17*
X37002628Y-58554768D03*
X69000000Y-34500000D03*
X87699691Y-16933828D03*
X70970000Y-49760000D03*
X58500000Y-28500000D03*
X55270364Y-42486060D03*
X24594266Y-55515345D03*
X33532269Y-56806671D03*
X53242748Y-33482233D03*
D18*
X22432795Y-20323588D03*
D19*
X66414740Y-64914740D03*
D17*
X49000000Y-57771554D03*
X73786694Y-44038688D03*
X30905594Y-45408145D03*
X27489969Y-46838110D03*
D18*
X48500000Y-70500000D03*
D17*
X60777737Y-35888596D03*
X41000000Y-48830000D03*
X58199997Y-52500000D03*
X22275000Y-84380529D03*
X17713500Y-86695189D03*
X53245647Y-29218019D03*
X40051033Y-58830330D03*
X74720419Y-19647844D03*
D18*
X50500000Y-69500000D03*
X58218153Y-49464184D03*
D17*
X67511481Y-58492627D03*
X27284717Y-37673313D03*
X40620558Y-32994259D03*
X89075870Y-85769126D03*
D18*
X76549583Y-77500000D03*
D17*
X40000000Y-57000000D03*
X67767907Y-56502457D03*
X55266537Y-46974296D03*
X38500000Y-48500000D03*
D19*
X71000000Y-77500000D03*
D17*
X39500000Y-43500000D03*
D19*
X82994669Y-22494669D03*
D18*
X49224338Y-69446525D03*
D17*
X46770364Y-33400491D03*
X38500000Y-45500000D03*
X58955938Y-40607993D03*
X30501087Y-58210315D03*
X42996102Y-58770050D03*
X53214195Y-62878353D03*
X28860587Y-37793872D03*
X36400933Y-34918799D03*
X66671674Y-38429331D03*
X48900001Y-47680697D03*
X53664702Y-34730873D03*
X78720061Y-31826740D03*
X61369873Y-51954072D03*
X49187636Y-61031361D03*
X65321489Y-66546470D03*
X42964388Y-45901057D03*
X58725000Y-44500000D03*
X36925127Y-56780837D03*
D18*
X50000000Y-70611093D03*
X78983198Y-24369958D03*
D17*
X50299999Y-44499996D03*
X47982052Y-61057195D03*
X65256425Y-64026790D03*
D18*
X58056008Y-58224034D03*
D17*
X55424848Y-53760367D03*
X40718697Y-69551667D03*
X34609780Y-34393509D03*
X60712646Y-40091315D03*
D19*
X66140130Y-64000000D03*
X76500000Y-84500000D03*
D17*
X32749952Y-45426856D03*
X72725000Y-40500000D03*
X39522931Y-26063514D03*
X62279905Y-38971844D03*
X43878353Y-42739485D03*
D18*
X51375039Y-70628108D03*
D17*
X29884603Y-79537457D03*
X67725000Y-67500000D03*
X52228244Y-44991106D03*
X57095429Y-62528100D03*
X53503827Y-49919627D03*
X46748412Y-29540943D03*
X76059166Y-31968827D03*
X26795314Y-19313274D03*
X39341146Y-50012214D03*
D18*
X47758209Y-69352008D03*
D17*
X63373541Y-40625216D03*
X57675959Y-47482139D03*
X30466642Y-56591388D03*
X35500000Y-53000000D03*
X48000000Y-57771554D03*
X17728743Y-16693754D03*
%TO.N,Net-(Q7-G)*%
X58000000Y-72500000D03*
X24591365Y-53213391D03*
X64550000Y-72275000D03*
%TO.N,RP2350_GPIO_20*%
X52289111Y-53100000D03*
X51000000Y-57500000D03*
%TO.N,RP2350_GPIO_14*%
X42842537Y-54900000D03*
X61000000Y-49000000D03*
X63000000Y-57699997D03*
X56151150Y-61535238D03*
X60000000Y-37000000D03*
%TO.N,RP2350_GPIO_15*%
X60500000Y-58500000D03*
X45470058Y-55526141D03*
X43500000Y-67500000D03*
X60950000Y-56947060D03*
X67500000Y-51509712D03*
X58347648Y-64347648D03*
X62500000Y-33500000D03*
X45275735Y-57900000D03*
X44590006Y-54634552D03*
%TO.N,+1V1*%
X56000000Y-37404585D03*
X51850000Y-47800000D03*
X47576085Y-51650000D03*
X42500000Y-47562500D03*
X48790005Y-44117598D03*
%TO.N,RP2350_XIN*%
X51000000Y-56699997D03*
X46282628Y-55483537D03*
%TO.N,RP2350_GPIO_11*%
X42000000Y-52600000D03*
X41000000Y-46500000D03*
X37000145Y-44716945D03*
D19*
%TO.N,+5V*%
X70500000Y-64000000D03*
X43417438Y-66200000D03*
X68000000Y-81000000D03*
X68500000Y-65000000D03*
D17*
X85000000Y-20000000D03*
D19*
X81000000Y-84000000D03*
X79500000Y-82500000D03*
X11000000Y-84500000D03*
X41500000Y-66293173D03*
D20*
%TO.N,RP2350_GPIO_9*%
X45000000Y-51000000D03*
D17*
X40786028Y-47562500D03*
D20*
X42220872Y-48782934D03*
D17*
%TO.N,RP2350_GPIO_5*%
X29500000Y-45000000D03*
X35325735Y-45825735D03*
X37100000Y-48000000D03*
X38900000Y-47807179D03*
D20*
%TO.N,RP2350_GPIO_6*%
X42500000Y-52000000D03*
X44899746Y-49779944D03*
D17*
%TO.N,RP2350_GPIO_10*%
X40975734Y-52824264D03*
X42601761Y-51049709D03*
D20*
%TO.N,RP2350_GPIO_7*%
X43090729Y-49409271D03*
D17*
X40227281Y-52107059D03*
D20*
X41076366Y-50411970D03*
D17*
%TO.N,RP2350_GPIO_8*%
X39500000Y-45500000D03*
X40939668Y-49674530D03*
%TO.N,Net-(USB1-CC1)*%
X45500000Y-29500000D03*
X51694181Y-28662774D03*
%TO.N,Net-(USB1-CC2)*%
X48900000Y-29000000D03*
X54500000Y-29500000D03*
D19*
%TO.N,RP2350_GPIO_25_5.5V*%
X26000000Y-15000000D03*
X59008345Y-67816133D03*
X28853113Y-61449829D03*
X28500000Y-33000000D03*
D17*
%TO.N,RP2350_GPIO_4*%
X45000000Y-46500000D03*
X41963251Y-46904292D03*
%TO.N,Net-(C52-Pad1)*%
X70000000Y-39000000D03*
X67841712Y-41382725D03*
%TO.N,RP2350_USB_DP*%
X42390000Y-30000000D03*
X47900001Y-42099999D03*
%TO.N,RP2350_GPIO_26_ADC*%
X50142801Y-48294272D03*
X64000000Y-62000000D03*
X66500000Y-60000000D03*
%TO.N,Net-(RP2350-RUN)*%
X40903655Y-57875000D03*
X50181579Y-55119802D03*
X29500000Y-54000000D03*
D19*
%TO.N,Net-(LED1-DIN)*%
X21500000Y-15000000D03*
D18*
%TO.N,BATT_SW+*%
X59400735Y-55599265D03*
X63500000Y-77500000D03*
X56500000Y-73400000D03*
X60275000Y-51000000D03*
X27000000Y-63000000D03*
X83000000Y-80500000D03*
X55500000Y-74500000D03*
X56279422Y-78050000D03*
X59850000Y-52900000D03*
D17*
X47500000Y-74000000D03*
D18*
X62475000Y-62992158D03*
D17*
%TO.N,RP2350_SWCLK*%
X48284157Y-54919438D03*
X50500000Y-66000000D03*
%TO.N,RP2350_SWDIO*%
X51500000Y-65000000D03*
X49150648Y-54937399D03*
%TO.N,RP2350_GPIO_24*%
X39000000Y-39500000D03*
X52788482Y-48864717D03*
%TO.N,RP2350_GPIO_18*%
X51689111Y-53643891D03*
X24500000Y-27500000D03*
%TO.N,RP2350_QSPI_SD2*%
X42718929Y-40627622D03*
X44600000Y-43917157D03*
%TO.N,RP2350_QSPI_SD0*%
X47318553Y-39181447D03*
X45256847Y-43460477D03*
%TO.N,RP2350_QSPI_SCLK*%
X46055720Y-43502963D03*
X48091620Y-38975605D03*
%TO.N,RP2350_QSPI_SD3*%
X49000000Y-39000000D03*
X46668807Y-42989029D03*
%TO.N,RP2350_GPIO_12*%
X36000000Y-61000000D03*
X59523383Y-62187007D03*
X45500000Y-61400000D03*
X55500000Y-65500000D03*
X56912717Y-58704005D03*
X42462136Y-53333318D03*
X58561961Y-51786569D03*
%TO.N,RP2350_GPIO_13*%
X40000000Y-56000000D03*
X42000000Y-59500000D03*
X67537345Y-49159712D03*
X48500000Y-58500000D03*
X42467856Y-54176128D03*
%TO.N,RP2350_XOUT*%
X47093780Y-55275000D03*
X52000000Y-56000000D03*
%TO.N,RP2350_GPIO_16*%
X57128878Y-56128878D03*
X54134096Y-60634097D03*
X70000000Y-44000000D03*
X51000000Y-55000000D03*
%TO.N,RP2350_GPIO_17*%
X56202235Y-53949238D03*
X51565687Y-54434313D03*
X70000000Y-43000000D03*
X52906083Y-57985216D03*
%TO.N,RP2350_GPIO_19*%
X51333327Y-52500000D03*
X73281250Y-24000000D03*
X60925000Y-43000000D03*
X59400000Y-42500000D03*
%TO.N,RP2350_GPIO_21*%
X52289112Y-50955021D03*
X70500000Y-74500000D03*
X43290691Y-54237311D03*
%TO.N,RP2350_GPIO_22*%
X31000000Y-65000000D03*
X53900000Y-49224611D03*
%TO.N,RP2350_GPIO_25*%
X53500000Y-54500000D03*
X52000000Y-49000000D03*
%TO.N,Net-(RP2350-VREG_LX)*%
X52536027Y-37495000D03*
X49400001Y-43599999D03*
%TO.N,RP2350_USB_DM*%
X61802898Y-29802410D03*
X48492783Y-42692781D03*
%TO.N,ESP32_40M_X0*%
X70000000Y-40000000D03*
X68500000Y-39500000D03*
X62963227Y-39938451D03*
X62957928Y-42042072D03*
%TO.N,Net-(C7-Pad1)*%
X55000000Y-56000000D03*
X57000000Y-51500000D03*
%TO.N,+5V*%
X62392721Y-67392721D03*
%TD*%
%TO.N,+3.3V*%
D21*
X41718908Y-62618908D02*
X40000000Y-60900000D01*
X41718908Y-63701092D02*
X41718908Y-62618908D01*
%TO.N,RP2350_GPIO_25_5.5V*%
D22*
X58674478Y-68150000D02*
X59008345Y-67816133D01*
X35553284Y-68150000D02*
X58674478Y-68150000D01*
X28853113Y-61449829D02*
X35553284Y-68150000D01*
%TO.N,Net-(LED3-DOUT)*%
X75500000Y-80000000D02*
X81230000Y-85730000D01*
X33000000Y-80000000D02*
X75500000Y-80000000D01*
X81230000Y-85730000D02*
X81850000Y-85730000D01*
X30000000Y-83000000D02*
X33000000Y-80000000D01*
X18970000Y-83000000D02*
X30000000Y-83000000D01*
X17700000Y-84270000D02*
X18970000Y-83000000D01*
%TO.N,RP2350_GPIO_13*%
D21*
X48585216Y-58585216D02*
X48500000Y-58500000D01*
X53263313Y-58585216D02*
X48585216Y-58585216D01*
X56348529Y-55500000D02*
X53263313Y-58585216D01*
X58000000Y-55500000D02*
X56348529Y-55500000D01*
X59000000Y-56500000D02*
X58000000Y-55500000D01*
X59000000Y-60225601D02*
X59000000Y-56500000D01*
X60123383Y-61348984D02*
X59000000Y-60225601D01*
X60123383Y-63123383D02*
X60123383Y-61348984D01*
X61000000Y-64000000D02*
X60123383Y-63123383D01*
X67100000Y-59751471D02*
X67100000Y-60248529D01*
X63348529Y-64000000D02*
X61000000Y-64000000D01*
X66748529Y-53109712D02*
X66748529Y-59400000D01*
X68100000Y-51758241D02*
X66748529Y-53109712D01*
X66748529Y-59400000D02*
X67100000Y-59751471D01*
X68100000Y-49722367D02*
X68100000Y-51758241D01*
X67100000Y-60248529D02*
X63348529Y-64000000D01*
X67537345Y-49159712D02*
X68100000Y-49722367D01*
%TO.N,Net-(LED2-DOUT)*%
D22*
X88000000Y-83970000D02*
X87700000Y-84270000D01*
X88000000Y-75455263D02*
X88000000Y-83970000D01*
X87959664Y-75379891D02*
X88000000Y-75455263D01*
X87962008Y-75372151D02*
X87959664Y-75379891D01*
X87360731Y-74201262D02*
X87368569Y-74204011D01*
X87247164Y-73965033D02*
X87360731Y-74201262D01*
X87128441Y-73731336D02*
X87247164Y-73965033D01*
X86575500Y-72581513D02*
X86583477Y-72584514D01*
X86467344Y-72342946D02*
X86575500Y-72581513D01*
X86356678Y-72098845D02*
X86353858Y-72106887D01*
X85844884Y-70984563D02*
X85852988Y-70987826D01*
X85742346Y-70743775D02*
X85844884Y-70984563D01*
X85634255Y-70505353D02*
X85742346Y-70743775D01*
X85637332Y-70497173D02*
X85634255Y-70505353D01*
X85175544Y-69412770D02*
X85637332Y-70497173D01*
X85167323Y-69409232D02*
X85175544Y-69412770D01*
X84968075Y-68925577D02*
X85070559Y-69166236D01*
X84541353Y-67854366D02*
X84549676Y-67858189D01*
X84353849Y-67366427D02*
X84450555Y-67609276D01*
X83965604Y-66318836D02*
X83974013Y-66322953D01*
X83880947Y-66071742D02*
X83965604Y-66318836D01*
X83790201Y-65826793D02*
X83880947Y-66071742D01*
X83794109Y-65818284D02*
X83790201Y-65826793D01*
X84971418Y-68917274D02*
X84968075Y-68925577D01*
X83447272Y-64805949D02*
X83794109Y-65818284D01*
X83360444Y-64552518D02*
X83438793Y-64801529D01*
X82968265Y-63306086D02*
X83280047Y-64296998D01*
X82959735Y-63301356D02*
X82968265Y-63306086D01*
X82887873Y-63050581D02*
X82959735Y-63301356D01*
X82809577Y-62801739D02*
X82887873Y-63050581D01*
X82814086Y-62793090D02*
X82809577Y-62801739D01*
X82527332Y-61817245D02*
X82535894Y-61822291D01*
X82462114Y-61564822D02*
X82527332Y-61817245D01*
X82390296Y-61314201D02*
X82462114Y-61564822D01*
X82395116Y-61305509D02*
X82390296Y-61314201D01*
X82149149Y-60353510D02*
X82395116Y-61305509D01*
X82140575Y-60348143D02*
X82149149Y-60353510D01*
X82082154Y-60094210D02*
X82140575Y-60348143D01*
X82016977Y-59841945D02*
X82082154Y-60094210D01*
X81807111Y-58898699D02*
X82022113Y-59833231D01*
X83275842Y-64305585D02*
X83360444Y-64552518D01*
X81798548Y-58893010D02*
X81807111Y-58898699D01*
X81747070Y-58637722D02*
X81798548Y-58893010D01*
X81688686Y-58383948D02*
X81747070Y-58637722D01*
X81694140Y-58375234D02*
X81688686Y-58383948D01*
X81500418Y-57450823D02*
X81508949Y-57456836D01*
X81404572Y-56939213D02*
X81456021Y-57194357D01*
X86353858Y-72106887D02*
X86467344Y-72342946D01*
X81253922Y-56026908D02*
X81410348Y-56930520D01*
X83974013Y-66322953D02*
X84357470Y-67358014D01*
X81245448Y-56020573D02*
X81253922Y-56026908D01*
X81169971Y-55498099D02*
X81163876Y-55506747D01*
X81041376Y-54607917D02*
X81169971Y-55498099D01*
X81003098Y-54342943D02*
X81032981Y-54601263D01*
X85852988Y-70987826D02*
X86356678Y-72098845D01*
X80965918Y-54085573D02*
X81003098Y-54342943D01*
X80972332Y-54076994D02*
X80965918Y-54085573D01*
X80870748Y-53198880D02*
X80972332Y-54076994D01*
X80816838Y-52666240D02*
X80810112Y-52674726D01*
X80741561Y-51798822D02*
X80816838Y-52666240D01*
X80733398Y-51791551D02*
X80741561Y-51798822D01*
X80862458Y-53191914D02*
X80870748Y-53198880D01*
X80718415Y-51532117D02*
X80733398Y-51791551D01*
X80695950Y-51273251D02*
X80718415Y-51532117D01*
X80702982Y-51264883D02*
X80695950Y-51273251D01*
X80637991Y-50139534D02*
X80645414Y-50399217D01*
X80623014Y-49880200D02*
X80637991Y-50139534D01*
X80630343Y-49871973D02*
X80623014Y-49880200D01*
X80606041Y-49021809D02*
X80630343Y-49871973D01*
X80598205Y-49013962D02*
X80606041Y-49021809D01*
X80598393Y-48754249D02*
X80598205Y-49013962D01*
X80590972Y-48494637D02*
X80598393Y-48754249D01*
X80599197Y-47642964D02*
X80598587Y-48486574D01*
X80591559Y-47634850D02*
X80599197Y-47642964D01*
X80607465Y-47107756D02*
X80599579Y-47115631D01*
X80632683Y-46272100D02*
X80607465Y-47107756D01*
X80627064Y-46265860D02*
X80632683Y-46272100D01*
X80640768Y-46004192D02*
X80627064Y-46265860D01*
X80648672Y-45742261D02*
X80640768Y-46004192D01*
X80654786Y-45736505D02*
X80648672Y-45742261D01*
X80662730Y-45584826D02*
X80654786Y-45736505D01*
X80659035Y-45580599D02*
X80662730Y-45584826D01*
X80676770Y-45316723D02*
X80659035Y-45580599D01*
X80690598Y-45052690D02*
X80676770Y-45316723D01*
X80839984Y-52932945D02*
X80862458Y-53191914D01*
X80704739Y-44900597D02*
X80694769Y-45048934D01*
X82022113Y-59833231D02*
X82016977Y-59841945D01*
X80701104Y-44896312D02*
X80704739Y-44900597D01*
X80740472Y-44368936D02*
X80722741Y-44632752D01*
X80744702Y-44365239D02*
X80740472Y-44368936D01*
X80756864Y-44217093D02*
X80744702Y-44365239D01*
X80753293Y-44212755D02*
X80756864Y-44217093D01*
X80778827Y-43949555D02*
X80753293Y-44212755D01*
X80804747Y-43682387D02*
X80800462Y-43686022D01*
X80819091Y-43534529D02*
X80804747Y-43682387D01*
X81456021Y-57194357D02*
X81500418Y-57450823D01*
X80815585Y-43530138D02*
X80819091Y-43534529D01*
X80845005Y-43267417D02*
X80815585Y-43530138D01*
X80870545Y-43004160D02*
X80845005Y-43267417D01*
X80874886Y-43000587D02*
X80870545Y-43004160D01*
X80891495Y-42852271D02*
X80874886Y-43000587D01*
X80921369Y-42585496D02*
X80888055Y-42847830D01*
X80955184Y-42319214D02*
X80950795Y-42322719D01*
X80694769Y-45048934D02*
X80690598Y-45052690D01*
X86583477Y-72584514D02*
X87131017Y-73723439D01*
X80974016Y-42170922D02*
X80955184Y-42319214D01*
X80970644Y-42166434D02*
X80974016Y-42170922D01*
X80722741Y-44632752D02*
X80701104Y-44896312D01*
X81007840Y-41904566D02*
X80970644Y-42166434D01*
X81041145Y-41642299D02*
X81007840Y-41904566D01*
X80810112Y-52674726D02*
X80839984Y-52932945D01*
X81045580Y-41638863D02*
X81041145Y-41642299D01*
X81066801Y-41489460D02*
X81045580Y-41638863D01*
X80800462Y-43686022D02*
X80778827Y-43949555D01*
X81063502Y-41484931D02*
X81066801Y-41489460D01*
X81141739Y-40961884D02*
X81104550Y-41223700D01*
X80950795Y-42322719D02*
X80921369Y-42585496D01*
X81146219Y-40958518D02*
X81141739Y-40961884D01*
X81169733Y-40808877D02*
X81146219Y-40958518D01*
X80599391Y-47375313D02*
X80591559Y-47634850D01*
X81166505Y-40804306D02*
X81169733Y-40808877D01*
X81211404Y-40543681D02*
X81166505Y-40804306D01*
X81104550Y-41223700D02*
X81063502Y-41484931D01*
X81252452Y-40282455D02*
X81211404Y-40543681D01*
X84450555Y-67609276D02*
X84541353Y-67854366D01*
X81256975Y-40279161D02*
X81252452Y-40282455D01*
X84549676Y-67858189D02*
X84971418Y-68917274D01*
X81279902Y-40123167D02*
X81283055Y-40127775D01*
X81328633Y-39863209D02*
X81279902Y-40123167D01*
X81373527Y-39602615D02*
X81328633Y-39863209D01*
X80888055Y-42847830D02*
X80891495Y-42852271D01*
X81403480Y-39442870D02*
X81406558Y-39447514D01*
X81456022Y-39183649D02*
X81403480Y-39442870D01*
X81504746Y-38923729D02*
X81456022Y-39183649D01*
X81509343Y-38920583D02*
X81504746Y-38923729D01*
X81540611Y-38766320D02*
X81509343Y-38920583D01*
X81537611Y-38761648D02*
X81540611Y-38766320D01*
X83280047Y-64296998D02*
X83275842Y-64305585D01*
X81646477Y-38244019D02*
X81593926Y-38503282D01*
X81651106Y-38240950D02*
X81646477Y-38244019D01*
X81410348Y-56930520D02*
X81404572Y-56939213D01*
X81684893Y-38085944D02*
X81651106Y-38240950D01*
X80598587Y-48486574D02*
X80590972Y-48494637D01*
X81742066Y-37823641D02*
X81681969Y-38081241D01*
X81837071Y-37399501D02*
X81839914Y-37404227D01*
X81900896Y-37142837D02*
X81837071Y-37399501D01*
X81961001Y-36885203D02*
X81900896Y-37142837D01*
X87131017Y-73723439D02*
X87128441Y-73731336D01*
X82005223Y-36723295D02*
X81965686Y-36882290D01*
X82070007Y-36462776D02*
X82002459Y-36718547D01*
X82178813Y-36035851D02*
X82181497Y-36040619D01*
X80645414Y-50399217D02*
X80653425Y-50406783D01*
X81798392Y-37565229D02*
X81742066Y-37823641D01*
X82138552Y-36203231D02*
X82133844Y-36206064D01*
X82322324Y-35522528D02*
X82317596Y-35525280D01*
X82368127Y-35358695D02*
X82322324Y-35522528D01*
X82365524Y-35353913D02*
X82368127Y-35358695D01*
X82535894Y-61822291D02*
X82814086Y-62793090D01*
X82440415Y-35100127D02*
X82365524Y-35353913D01*
X81839914Y-37404227D02*
X81803051Y-37562238D01*
X81283055Y-40127775D02*
X81256975Y-40279161D01*
X83438793Y-64801529D02*
X83447272Y-64805949D01*
X82002459Y-36718547D02*
X82005223Y-36723295D01*
X82511645Y-34845346D02*
X82440415Y-35100127D01*
X82181497Y-36040619D02*
X82138552Y-36203231D01*
X82516389Y-34842675D02*
X82511645Y-34845346D01*
X82563457Y-34669832D02*
X82565979Y-34674628D01*
X82317596Y-35525280D02*
X82250048Y-35781052D01*
X82716852Y-34163361D02*
X82641976Y-34417096D01*
X84357470Y-67358014D02*
X84353849Y-67366427D01*
X82774267Y-33991277D02*
X82721609Y-34160772D01*
X82771827Y-33986474D02*
X82774267Y-33991277D01*
X82853920Y-33734892D02*
X82771827Y-33986474D01*
X85070559Y-69166236D02*
X85167323Y-69409232D01*
X82937196Y-33479681D02*
X82932428Y-33482189D01*
X82250048Y-35781052D02*
X82178813Y-36035851D01*
X81208252Y-55763090D02*
X81245448Y-56020573D01*
X82994070Y-33305383D02*
X82937196Y-33479681D01*
X81406558Y-39447514D02*
X81378087Y-39599395D01*
X82991713Y-33300575D02*
X82994070Y-33305383D01*
X83077340Y-33050192D02*
X82991713Y-33300575D01*
X83159449Y-32798560D02*
X83077340Y-33050192D01*
X83164224Y-32796134D02*
X83159449Y-32798560D01*
X81163876Y-55506747D02*
X81208252Y-55763090D01*
X83224398Y-32620179D02*
X83164224Y-32796134D01*
X80599579Y-47115631D02*
X80599391Y-47375313D01*
X81965686Y-36882290D02*
X81961001Y-36885203D01*
X83222122Y-32615368D02*
X83224398Y-32620179D01*
X83311268Y-32366163D02*
X83222122Y-32615368D01*
X81032981Y-54601263D02*
X81041376Y-54607917D01*
X83396920Y-32115708D02*
X83311268Y-32366163D01*
X83401699Y-32113365D02*
X83396920Y-32115708D01*
X81803051Y-37562238D02*
X81798392Y-37565229D01*
X83466567Y-31932029D02*
X83401699Y-32113365D01*
X80653425Y-50406783D02*
X80702982Y-51264883D01*
X81508949Y-57456836D02*
X81694140Y-58375234D01*
X83464372Y-31927217D02*
X83466567Y-31932029D01*
X82565979Y-34674628D02*
X82516389Y-34842675D01*
X83557012Y-31679192D02*
X83464372Y-31927217D01*
X82133844Y-36206064D02*
X82070007Y-36462776D01*
X81681969Y-38081241D02*
X81684893Y-38085944D01*
X83646156Y-31429993D02*
X83557012Y-31679192D01*
X83719363Y-31244532D02*
X83650935Y-31427732D01*
X83717250Y-31239725D02*
X83719363Y-31244532D01*
X83723548Y-31223548D02*
X83717250Y-31239725D01*
X82932428Y-33482189D02*
X82853920Y-33734892D01*
X78000000Y-25500000D02*
X83723548Y-31223548D01*
X78000000Y-20030000D02*
X78000000Y-25500000D01*
X82721609Y-34160772D02*
X82716852Y-34163361D01*
X87368569Y-74204011D02*
X87962008Y-75372151D01*
X82641976Y-34417096D02*
X82563457Y-34669832D01*
X82300000Y-15730000D02*
X78000000Y-20030000D01*
X83650935Y-31427732D02*
X83646156Y-31429993D01*
X81593926Y-38503282D02*
X81537611Y-38761648D01*
X81378087Y-39599395D02*
X81373527Y-39602615D01*
%TO.N,Net-(LED1-DOUT)*%
X86930000Y-13500000D02*
X87000000Y-13570000D01*
X81220000Y-13500000D02*
X86930000Y-13500000D01*
X79720000Y-15000000D02*
X81220000Y-13500000D01*
X71341480Y-15000000D02*
X79720000Y-15000000D01*
X64841480Y-21500000D02*
X71341480Y-15000000D01*
X45000000Y-21000000D02*
X56500000Y-21000000D01*
X44550000Y-21450000D02*
X45000000Y-21000000D01*
X56500000Y-21000000D02*
X57000000Y-21500000D01*
X18020000Y-21450000D02*
X44550000Y-21450000D01*
X12300000Y-15730000D02*
X18020000Y-21450000D01*
X57000000Y-21500000D02*
X64841480Y-21500000D01*
%TO.N,Net-(LED1-DIN)*%
X17700000Y-14270000D02*
X20770000Y-14270000D01*
X20770000Y-14270000D02*
X21500000Y-15000000D01*
%TO.N,BATT_SW+*%
D23*
X86000000Y-83500000D02*
X83000000Y-80500000D01*
X86000000Y-88225000D02*
X86000000Y-83500000D01*
X86550000Y-88775000D02*
X86000000Y-88225000D01*
%TO.N,+3.3V*%
D21*
X58266819Y-45266819D02*
X58266819Y-45998630D01*
X59500000Y-49000000D02*
X60700000Y-50200000D01*
X49000000Y-48500000D02*
X51000000Y-46500000D01*
X60272916Y-45709223D02*
X59500000Y-46482139D01*
X59500000Y-46482139D02*
X59500000Y-49000000D01*
X60700000Y-50200000D02*
X61851473Y-50200000D01*
X57808519Y-44808519D02*
X58266819Y-45266819D01*
X57808519Y-43342951D02*
X57808519Y-44808519D01*
X50626085Y-52873915D02*
X49000000Y-51247830D01*
X51000000Y-46500000D02*
X52000000Y-46500000D01*
X49000000Y-51247830D02*
X49000000Y-48500000D01*
X60272916Y-45482139D02*
X60272916Y-45709223D01*
%TO.N,GND*%
X87700000Y-16933519D02*
X87699691Y-16933828D01*
X87700000Y-15730000D02*
X87700000Y-16933519D01*
X17700000Y-85730000D02*
X17700000Y-86681689D01*
X89036744Y-85730000D02*
X89075870Y-85769126D01*
X17700000Y-86681689D02*
X17713500Y-86695189D01*
X17700000Y-15730000D02*
X17700000Y-16665011D01*
X87700000Y-85730000D02*
X89036744Y-85730000D01*
X17700000Y-16665011D02*
X17728743Y-16693754D01*
%TO.N,Net-(Q7-G)*%
X24591365Y-53591365D02*
X28000000Y-57000000D01*
X58000000Y-72500000D02*
X64325000Y-72500000D01*
X34000000Y-72500000D02*
X58000000Y-72500000D01*
X28000000Y-57000000D02*
X28000000Y-66500000D01*
X64325000Y-72500000D02*
X64550000Y-72275000D01*
X24591365Y-53213391D02*
X24591365Y-53591365D01*
X28000000Y-66500000D02*
X34000000Y-72500000D01*
%TO.N,RP2350_GPIO_20*%
X52288675Y-53789547D02*
X52288675Y-55440146D01*
X52288675Y-55440146D02*
X52600000Y-55751471D01*
X52600000Y-55751471D02*
X52600000Y-56248529D01*
X52289111Y-53100000D02*
X52289111Y-53789111D01*
X51348529Y-57500000D02*
X51000000Y-57500000D01*
X52600000Y-56248529D02*
X51348529Y-57500000D01*
X52289111Y-53789111D02*
X52288675Y-53789547D01*
%TO.N,RP2350_GPIO_14*%
X50144699Y-63478353D02*
X54870176Y-63478353D01*
X45875735Y-58148529D02*
X45675735Y-58348529D01*
X56151150Y-62197379D02*
X56151150Y-61535238D01*
X45675735Y-58348529D02*
X45675735Y-58675735D01*
X45524264Y-57300000D02*
X45875735Y-57651471D01*
X61000000Y-45360694D02*
X61000000Y-49000000D01*
X42808464Y-54934073D02*
X42808464Y-55808464D01*
X48582052Y-61305724D02*
X48443888Y-61443888D01*
X48582052Y-61582052D02*
X48582052Y-61915706D01*
X48230581Y-60457195D02*
X48582052Y-60808666D01*
X60000000Y-37000000D02*
X60000000Y-44360694D01*
X47733523Y-60457195D02*
X48230581Y-60457195D01*
X45875735Y-57651471D02*
X45875735Y-58148529D01*
X47595359Y-60595359D02*
X47733523Y-60457195D01*
X48582052Y-60808666D02*
X48582052Y-61305724D01*
X45675735Y-58675735D02*
X47595359Y-60595359D01*
X44675735Y-57651471D02*
X45027206Y-57300000D01*
X48582052Y-61915706D02*
X50144699Y-63478353D01*
X44675735Y-57675735D02*
X44675735Y-57651471D01*
X48443888Y-61443888D02*
X48582052Y-61582052D01*
X42842537Y-54900000D02*
X42808464Y-54934073D01*
X42808464Y-55808464D02*
X44675735Y-57675735D01*
X54870176Y-63478353D02*
X56151150Y-62197379D01*
X60000000Y-44360694D02*
X61000000Y-45360694D01*
X45027206Y-57300000D02*
X45524264Y-57300000D01*
%TO.N,RP2350_GPIO_15*%
X61679905Y-49179905D02*
X64009712Y-51509712D01*
X45275735Y-60439141D02*
X45275735Y-57900000D01*
X58347648Y-64347648D02*
X55195296Y-67500000D01*
X61642891Y-57639951D02*
X60950000Y-56947060D01*
X42717438Y-66717438D02*
X42717438Y-62997438D01*
X61500000Y-58500000D02*
X61642891Y-58357109D01*
X61642891Y-58357109D02*
X61642891Y-57639951D01*
X61679905Y-34320095D02*
X61679905Y-49179905D01*
X62500000Y-33500000D02*
X61679905Y-34320095D01*
X43500000Y-67500000D02*
X42717438Y-66717438D01*
X45470058Y-55514604D02*
X44590006Y-54634552D01*
X60500000Y-58500000D02*
X61500000Y-58500000D01*
X55195296Y-67500000D02*
X43500000Y-67500000D01*
X45470058Y-55526141D02*
X45470058Y-55514604D01*
X42717438Y-62997438D02*
X45275735Y-60439141D01*
X64009712Y-51509712D02*
X67500000Y-51509712D01*
%TO.N,+1V1*%
X52223087Y-47664717D02*
X53000000Y-46887804D01*
X53000000Y-46500000D02*
X52400000Y-45900000D01*
X50500000Y-46000000D02*
X49084307Y-44584307D01*
X52400000Y-45900000D02*
X50600000Y-45900000D01*
X53000000Y-46887804D02*
X53000000Y-46500000D01*
X56000000Y-37404585D02*
X56000000Y-37848529D01*
X49084307Y-44411900D02*
X48790005Y-44117598D01*
X49648530Y-44199999D02*
X48872406Y-44199999D01*
X49084307Y-44584307D02*
X49084307Y-44411900D01*
X48872406Y-44199999D02*
X48790005Y-44117598D01*
X51985283Y-47664717D02*
X52223087Y-47664717D01*
X50600000Y-45900000D02*
X50500000Y-46000000D01*
X56000000Y-37848529D02*
X49648530Y-44199999D01*
X51850000Y-47800000D02*
X51985283Y-47664717D01*
%TO.N,RP2350_XIN*%
X46299026Y-55647555D02*
X47751471Y-57100000D01*
X50900003Y-56699997D02*
X51000000Y-56699997D01*
X46299026Y-55499935D02*
X46299026Y-55647555D01*
X46282628Y-55483537D02*
X46299026Y-55499935D01*
X50500000Y-57100000D02*
X50900003Y-56699997D01*
X47751471Y-57100000D02*
X50500000Y-57100000D01*
%TO.N,RP2350_GPIO_11*%
X40007406Y-50678013D02*
X40007406Y-47492594D01*
X40311585Y-51311585D02*
X40311585Y-50982192D01*
X42000000Y-52600000D02*
X41950000Y-52550000D01*
X37000145Y-44716945D02*
X37002401Y-44719201D01*
X37002401Y-44719201D02*
X39719201Y-44719201D01*
X40311585Y-50982192D02*
X40007406Y-50678013D01*
X41550000Y-52550000D02*
X40311585Y-51311585D01*
X41000000Y-46000000D02*
X41000000Y-46500000D01*
X40007406Y-47492594D02*
X41000000Y-46500000D01*
X39719201Y-44719201D02*
X41000000Y-46000000D01*
X41950000Y-52550000D02*
X41550000Y-52550000D01*
%TO.N,+5V*%
X11000000Y-84500000D02*
X12070000Y-84500000D01*
D22*
X82690000Y-14270000D02*
X85000000Y-16580000D01*
X35293173Y-66293173D02*
X28450000Y-59450000D01*
X11200000Y-16480000D02*
X11100000Y-16480000D01*
X70500000Y-64000000D02*
X71000000Y-64500000D01*
X11100000Y-16480000D02*
X11100000Y-14980000D01*
X71000000Y-64500000D02*
X71000000Y-74000000D01*
X71000000Y-74000000D02*
X79500000Y-82500000D01*
X82300000Y-84270000D02*
X81270000Y-84270000D01*
X11100000Y-14980000D02*
X11200000Y-14980000D01*
X85000000Y-16580000D02*
X85000000Y-20000000D01*
X41500000Y-66293173D02*
X35293173Y-66293173D01*
X28450000Y-59450000D02*
X28450000Y-56813604D01*
X26500000Y-31780000D02*
X11200000Y-16480000D01*
X26500000Y-54863604D02*
X26500000Y-31780000D01*
X28450000Y-56813604D02*
X26500000Y-54863604D01*
X81270000Y-84270000D02*
X81000000Y-84000000D01*
X11200000Y-14980000D02*
X11910000Y-14270000D01*
%TO.N,RP2350_GPIO_9*%
D21*
X45060752Y-48782934D02*
X45550000Y-49272182D01*
X40786028Y-47562500D02*
X41000438Y-47562500D01*
X45550000Y-50450000D02*
X45000000Y-51000000D01*
X45550000Y-49272182D02*
X45550000Y-50450000D01*
X41000438Y-47562500D02*
X42220872Y-48782934D01*
X42220872Y-48782934D02*
X45060752Y-48782934D01*
%TO.N,RP2350_GPIO_5*%
X29500000Y-45000000D02*
X30526856Y-46026856D01*
X30526856Y-46026856D02*
X35124614Y-46026856D01*
X37292821Y-47807179D02*
X38900000Y-47807179D01*
X37100000Y-48000000D02*
X37292821Y-47807179D01*
X35124614Y-46026856D02*
X35325735Y-45825735D01*
%TO.N,RP2350_GPIO_6*%
X44899746Y-49779944D02*
X44720056Y-49779944D01*
X44720056Y-49779944D02*
X42500000Y-52000000D01*
%TO.N,RP2350_GPIO_7*%
X41076366Y-50411970D02*
X41076366Y-50386362D01*
X41076366Y-50386362D02*
X41462728Y-50000000D01*
X41462728Y-50000000D02*
X42500000Y-50000000D01*
X42500000Y-50000000D02*
X43090729Y-49409271D01*
%TO.N,Net-(USB1-CC1)*%
X51694181Y-28662774D02*
X51679761Y-28662774D01*
X51416987Y-28400000D02*
X46600000Y-28400000D01*
X46600000Y-28400000D02*
X45500000Y-29500000D01*
X51679761Y-28662774D02*
X51416987Y-28400000D01*
%TO.N,Net-(USB1-CC2)*%
X54181981Y-29818019D02*
X54500000Y-29500000D01*
X49718019Y-29818019D02*
X54181981Y-29818019D01*
X48900000Y-29000000D02*
X49718019Y-29818019D01*
%TO.N,RP2350_GPIO_4*%
X42028243Y-46904292D02*
X42123951Y-47000000D01*
X42021459Y-46962500D02*
X41963251Y-46904292D01*
X45000000Y-46500000D02*
X43000000Y-46500000D01*
X41963251Y-46904292D02*
X42028243Y-46904292D01*
X42251471Y-46962500D02*
X42021459Y-46962500D01*
X42462500Y-46962500D02*
X42251471Y-46962500D01*
X42537500Y-46962500D02*
X42462500Y-46962500D01*
X43000000Y-46500000D02*
X42537500Y-46962500D01*
%TO.N,RP2350_USB_DP*%
X48000000Y-41065686D02*
X49600000Y-39465686D01*
X43000000Y-30500000D02*
X42500000Y-30000000D01*
X49600000Y-39465686D02*
X49600000Y-31600000D01*
X47900001Y-42099999D02*
X48000000Y-42000000D01*
X49600000Y-31600000D02*
X48500000Y-30500000D01*
X48000000Y-42000000D02*
X48000000Y-41065686D01*
X48500000Y-30500000D02*
X43000000Y-30500000D01*
%TO.N,RP2350_GPIO_26_ADC*%
X50142801Y-48294272D02*
X50348529Y-48500000D01*
X52248529Y-48400000D02*
X52383812Y-48264717D01*
X62400000Y-56974266D02*
X62400000Y-60400000D01*
X53272294Y-48500000D02*
X54848529Y-48500000D01*
X58448526Y-53100000D02*
X58487130Y-53061396D01*
X51651471Y-48500000D02*
X51751471Y-48400000D01*
X54848529Y-48500000D02*
X57599997Y-51251468D01*
X51751471Y-48400000D02*
X52248529Y-48400000D01*
X53037011Y-48264717D02*
X53272294Y-48500000D01*
X57599997Y-52251471D02*
X57599997Y-52748529D01*
X57638601Y-52212867D02*
X57599997Y-52251471D01*
X66500000Y-60000000D02*
X64500000Y-62000000D01*
X64500000Y-62000000D02*
X64000000Y-62000000D01*
X57599997Y-52748529D02*
X57951468Y-53100000D01*
X57599997Y-51251468D02*
X57599997Y-52174263D01*
X52383812Y-48264717D02*
X53037011Y-48264717D01*
X58487130Y-53061396D02*
X62400000Y-56974266D01*
X57951468Y-53100000D02*
X58448526Y-53100000D01*
X62400000Y-60400000D02*
X64000000Y-62000000D01*
X57599997Y-52174263D02*
X57638601Y-52212867D01*
X50348529Y-48500000D02*
X51651471Y-48500000D01*
%TO.N,Net-(RP2350-RUN)*%
X40903655Y-57875000D02*
X33375000Y-57875000D01*
X33375000Y-57875000D02*
X29500000Y-54000000D01*
%TO.N,BATT_SW+*%
D23*
X47500000Y-74000000D02*
X30500000Y-74000000D01*
X56800000Y-73400000D02*
X56500000Y-73400000D01*
D21*
X62475000Y-62992158D02*
X62475000Y-62656374D01*
D23*
X30500000Y-74000000D02*
X27000000Y-70500000D01*
X55504735Y-74504735D02*
X55500000Y-74500000D01*
D21*
X87275000Y-89500000D02*
X86550000Y-88775000D01*
D23*
X56279422Y-78050000D02*
X55504735Y-77275313D01*
X60900000Y-77500000D02*
X56800000Y-73400000D01*
X55504735Y-77275313D02*
X55504735Y-74504735D01*
X27000000Y-70500000D02*
X27000000Y-63000000D01*
D21*
X62475000Y-62656374D02*
X62600000Y-62531374D01*
D23*
X63500000Y-77500000D02*
X60900000Y-77500000D01*
%TO.N,RP2350_QSPI_SD2*%
D21*
X44600000Y-42400000D02*
X42827622Y-40627622D01*
X44600000Y-43917157D02*
X44600000Y-42400000D01*
X42827622Y-40627622D02*
X42718929Y-40627622D01*
%TO.N,RP2350_QSPI_SD0*%
X45500000Y-43217324D02*
X45500000Y-41000000D01*
X45256847Y-43460477D02*
X45500000Y-43217324D01*
X45500000Y-41000000D02*
X47318553Y-39181447D01*
%TO.N,RP2350_QSPI_SCLK*%
X46055720Y-43502963D02*
X46055720Y-41444280D01*
X48091620Y-39408380D02*
X48091620Y-38975605D01*
X46055720Y-41444280D02*
X48091620Y-39408380D01*
%TO.N,RP2350_QSPI_SD3*%
X49000000Y-39500000D02*
X49000000Y-39000000D01*
X46668807Y-42989029D02*
X46668807Y-41831193D01*
X46668807Y-41831193D02*
X49000000Y-39500000D01*
%TO.N,RP2350_GPIO_12*%
X55400000Y-65600000D02*
X50948529Y-65600000D01*
X47733523Y-62475011D02*
X46658512Y-61400000D01*
X46658512Y-61400000D02*
X45500000Y-61400000D01*
X47733523Y-64319869D02*
X47733523Y-62475011D01*
X55500000Y-65500000D02*
X55400000Y-65600000D01*
X48563654Y-65150000D02*
X47733523Y-64319869D01*
X50948529Y-65600000D02*
X50498529Y-65150000D01*
X59523383Y-61314670D02*
X59523383Y-62187007D01*
X50498529Y-65150000D02*
X48563654Y-65150000D01*
X56912717Y-58704005D02*
X59523383Y-61314670D01*
%TO.N,RP2350_GPIO_13*%
X41540214Y-54459786D02*
X40000000Y-56000000D01*
X42184198Y-54459786D02*
X41540214Y-54459786D01*
X42467856Y-54176128D02*
X42184198Y-54459786D01*
%TO.N,RP2350_XOUT*%
X47373893Y-55555113D02*
X47093780Y-55275000D01*
X48955113Y-55555113D02*
X47373893Y-55555113D01*
X49400000Y-56000000D02*
X48955113Y-55555113D01*
X52000000Y-56000000D02*
X49400000Y-56000000D01*
%TO.N,RP2350_GPIO_16*%
X54134096Y-60634097D02*
X57400000Y-57368193D01*
X57400000Y-57368193D02*
X57400000Y-56400000D01*
X57400000Y-56400000D02*
X57128878Y-56128878D01*
%TO.N,RP2350_GPIO_17*%
X52906083Y-57985216D02*
X52906083Y-57245388D01*
X52906083Y-57245388D02*
X56202235Y-53949238D01*
%TO.N,RP2350_GPIO_21*%
X53651470Y-61000000D02*
X53885567Y-61234097D01*
X49436165Y-60431361D02*
X49787636Y-60782832D01*
X55839889Y-61000000D02*
X56171415Y-60668474D01*
X49431361Y-60431361D02*
X49436165Y-60431361D01*
X49787636Y-60787636D02*
X50000000Y-61000000D01*
X43287608Y-54287608D02*
X49431361Y-60431361D01*
X54616722Y-61000000D02*
X55839889Y-61000000D01*
X54382625Y-61234097D02*
X54616722Y-61000000D01*
X56171415Y-60668474D02*
X56668473Y-60668474D01*
X43287608Y-54280487D02*
X43287608Y-54287608D01*
X50000000Y-61000000D02*
X53651470Y-61000000D01*
X49787636Y-60782832D02*
X49787636Y-60787636D01*
X43290691Y-54237311D02*
X43290691Y-54277404D01*
X56668473Y-60668474D02*
X70500000Y-74500000D01*
X53885567Y-61234097D02*
X54382625Y-61234097D01*
X43290691Y-54277404D02*
X43287608Y-54280487D01*
%TO.N,RP2350_GPIO_25*%
X52889111Y-53889111D02*
X53500000Y-54500000D01*
X52000000Y-49000000D02*
X52889111Y-49889111D01*
X52889111Y-49889111D02*
X52889111Y-53889111D01*
%TO.N,Net-(RP2350-VREG_LX)*%
X49400001Y-43599999D02*
X49500000Y-43500000D01*
X49500000Y-43500000D02*
X49500000Y-41500000D01*
X49500000Y-41500000D02*
X52536027Y-38463973D01*
X52536027Y-38463973D02*
X52536027Y-37495000D01*
%TO.N,RP2350_USB_DM*%
X48500001Y-42685563D02*
X48500001Y-41131371D01*
X51936027Y-31563973D02*
X53000000Y-30500000D01*
X61105308Y-30500000D02*
X61802898Y-29802410D01*
X51936027Y-37695345D02*
X51936027Y-31563973D01*
X48492783Y-42692781D02*
X48500001Y-42685563D01*
X53000000Y-30500000D02*
X61105308Y-30500000D01*
X48500001Y-41131371D02*
X51936027Y-37695345D01*
%TO.N,ESP32_40M_X0*%
X62963227Y-39938451D02*
X62773541Y-40128137D01*
X62773541Y-41857685D02*
X62957928Y-42042072D01*
X62773541Y-40128137D02*
X62773541Y-41857685D01*
X69000000Y-40000000D02*
X70000000Y-40000000D01*
X68500000Y-39500000D02*
X69000000Y-40000000D01*
%TO.N,Net-(C7-Pad1)*%
X57000000Y-54000000D02*
X57000000Y-51500000D01*
X55000000Y-56000000D02*
X57000000Y-54000000D01*
%TO.N,Net-(LED1-DOUT)*%
D22*
X87000000Y-13570000D02*
X87700000Y-14270000D01*
%TO.N,+5V*%
X43417438Y-66200000D02*
X43579424Y-66200000D01*
X43579424Y-66200000D02*
X44029424Y-66650000D01*
X44029424Y-66650000D02*
X55408900Y-66650000D01*
X55408900Y-66650000D02*
X57697648Y-64361252D01*
X57697648Y-64361252D02*
X57697648Y-64078409D01*
X57697648Y-64078409D02*
X58078409Y-63697648D01*
X58697648Y-63697648D02*
X62392721Y-67392721D01*
X58078409Y-63697648D02*
X58697648Y-63697648D01*
%TO.N,BATT_SW+*%
D23*
X62600000Y-62460661D02*
X62600000Y-62531374D01*
X62750000Y-61689339D02*
X62750000Y-62310661D01*
X61100000Y-59949998D02*
X61400000Y-60249998D01*
X61400000Y-60249998D02*
X61400000Y-60400000D01*
X62250000Y-61250000D02*
X62310661Y-61250000D01*
X61400000Y-60400000D02*
X62250000Y-61250000D01*
X62310661Y-61250000D02*
X62750000Y-61689339D01*
X62750000Y-62310661D02*
X62600000Y-62460661D01*
%TD*%
M02*
