M48
; DRILL file KiCad 10.0.1 date 2026-05-03T19:35:32
; FORMAT={-:-/ absolute / metric / decimal}
; #@! TF.CreationDate,2026-05-03T19:35:32-07:00
; #@! TF.GenerationSoftware,Kicad,Pcbnew,10.0.1
; #@! TF.FileFunction,Plated,1,4,PTH
FMAT,2
METRIC
; #@! TA.AperFunction,Plated,PTH,ViaDrill
T1C0.300
; #@! TA.AperFunction,Plated,PTH,ViaDrill
T2C0.400
; #@! TA.AperFunction,Plated,PTH,ViaDrill
T3C0.600
; #@! TA.AperFunction,Plated,PTH,ComponentDrill
T4C0.750
; #@! TA.AperFunction,Plated,PTH,ComponentDrill
T5C0.800
; #@! TA.AperFunction,Plated,PTH,ComponentDrill
T6C1.000
%
G90
G05
T1
X17.713Y-86.695
X17.729Y-16.694
X22.275Y-84.381
X24.5Y-27.5
X24.591Y-53.213
X24.594Y-55.515
X26.795Y-19.313
X27.285Y-37.673
X27.49Y-46.838
X28.0Y-42.5
X28.861Y-37.794
X29.5Y-45.0
X29.5Y-54.0
X29.885Y-79.537
X30.467Y-56.591
X30.501Y-58.21
X30.906Y-45.408
X31.0Y-65.0
X32.086Y-43.201
X32.75Y-45.427
X33.0Y-43.201
X33.5Y-58.5
X33.532Y-56.807
X34.5Y-53.0
X34.61Y-34.394
X34.63Y-38.009
X35.326Y-45.826
X35.5Y-50.5
X35.5Y-53.0
X36.0Y-61.0
X36.401Y-34.919
X36.732Y-50.45
X36.925Y-56.781
X36.949Y-45.515
X37.0Y-44.717
X37.003Y-58.555
X37.1Y-48.0
X38.3Y-44.119
X38.346Y-66.973
X38.457Y-41.513
X38.5Y-45.5
X38.5Y-48.5
X38.9Y-47.807
X39.0Y-39.5
X39.341Y-50.012
X39.407Y-49.215
X39.5Y-43.5
X39.5Y-45.5
X39.501Y-53.003
X39.523Y-26.064
X39.712Y-51.231
X40.0Y-56.0
X40.0Y-57.0
X40.0Y-60.9
X40.051Y-58.83
X40.227Y-52.107
X40.621Y-32.994
X40.719Y-69.552
X40.786Y-47.562
X40.904Y-57.875
X40.94Y-49.675
X40.976Y-52.824
X41.0Y-46.5
X41.0Y-48.83
X41.076Y-50.412
X41.963Y-46.904
X42.0Y-52.6
X42.0Y-59.5
X42.221Y-48.783
X42.39Y-30.0
X42.462Y-53.333
X42.468Y-54.176
X42.5Y-47.562
X42.5Y-52.0
X42.602Y-51.05
X42.719Y-40.628
X42.843Y-54.9
X42.964Y-45.901
X42.996Y-58.77
X43.091Y-49.409
X43.291Y-54.237
X43.5Y-67.5
X43.75Y-45.75
X43.878Y-42.739
X43.966Y-65.486
X44.59Y-54.635
X44.6Y-43.917
X44.9Y-49.78
X45.0Y-46.5
X45.0Y-51.0
X45.257Y-43.46
X45.276Y-57.9
X45.47Y-55.526
X45.5Y-29.5
X45.5Y-61.4
X45.9Y-46.5
X46.056Y-43.503
X46.283Y-55.484
X46.669Y-42.989
X46.748Y-29.541
X46.77Y-33.4
X47.094Y-55.275
X47.319Y-39.181
X47.5Y-74.0
X47.576Y-51.65
X47.9Y-42.1
X47.982Y-61.057
X48.0Y-57.772
X48.092Y-38.976
X48.284Y-54.919
X48.493Y-42.693
X48.5Y-58.5
X48.79Y-44.118
X48.9Y-29.0
X48.9Y-47.681
X49.0Y-39.0
X49.0Y-57.772
X49.151Y-54.937
X49.188Y-61.031
X49.4Y-43.6
X50.143Y-48.294
X50.182Y-55.12
X50.3Y-44.5
X50.5Y-66.0
X50.626Y-52.874
X51.0Y-55.0
X51.0Y-56.7
X51.0Y-57.5
X51.333Y-52.5
X51.5Y-65.0
X51.566Y-54.434
X51.689Y-53.644
X51.694Y-28.663
X51.85Y-47.8
X52.0Y-46.5
X52.0Y-49.0
X52.0Y-56.0
X52.228Y-44.991
X52.289Y-53.1
X52.289Y-50.955
X52.536Y-37.495
X52.788Y-48.865
X52.906Y-57.985
X53.214Y-62.878
X53.243Y-33.482
X53.246Y-29.218
X53.5Y-54.5
X53.504Y-49.92
X53.665Y-34.731
X53.9Y-49.225
X54.134Y-60.634
X54.5Y-29.5
X55.0Y-56.0
X55.267Y-46.974
X55.27Y-42.486
X55.425Y-53.76
X55.5Y-65.5
X56.0Y-37.405
X56.151Y-61.535
X56.202Y-53.949
X56.913Y-58.704
X57.0Y-51.5
X57.095Y-62.528
X57.129Y-56.129
X57.676Y-47.482
X57.809Y-43.343
X58.0Y-72.5
X58.2Y-52.5
X58.267Y-45.999
X58.348Y-64.348
X58.5Y-28.5
X58.562Y-51.787
X58.725Y-44.5
X58.947Y-39.368
X58.956Y-40.608
X59.4Y-42.5
X59.523Y-62.187
X60.0Y-37.0
X60.273Y-45.482
X60.5Y-58.5
X60.713Y-40.091
X60.778Y-35.889
X60.925Y-43.0
X60.95Y-56.947
X61.0Y-49.0
X61.37Y-51.954
X61.72Y-61.78
X61.803Y-29.802
X61.851Y-50.2
X62.28Y-38.972
X62.28Y-42.5
X62.393Y-67.393
X62.5Y-33.5
X62.958Y-42.042
X62.963Y-39.938
X63.0Y-57.7
X63.0Y-58.5
X63.374Y-40.625
X64.0Y-62.0
X64.319Y-50.681
X64.55Y-72.275
X65.256Y-64.027
X65.321Y-66.546
X66.145Y-46.962
X66.5Y-60.0
X66.672Y-38.429
X67.5Y-51.51
X67.511Y-58.493
X67.537Y-49.16
X67.725Y-67.5
X67.748Y-38.929
X67.768Y-56.502
X67.842Y-41.383
X68.5Y-39.5
X69.0Y-34.5
X70.0Y-39.0
X70.0Y-40.0
X70.0Y-43.0
X70.0Y-44.0
X70.5Y-74.5
X70.97Y-49.76
X72.725Y-40.5
X73.281Y-24.0
X73.787Y-44.039
X74.72Y-19.648
X76.027Y-49.766
X76.059Y-31.969
X78.72Y-31.827
X85.0Y-20.0
X87.7Y-16.934
X89.076Y-85.769
T2
X11.0Y-84.5
X21.5Y-15.0
X26.0Y-15.0
X28.5Y-33.0
X28.853Y-61.45
X41.5Y-66.293
X43.417Y-66.2
X59.008Y-67.816
X66.14Y-64.0
X66.415Y-64.915
X68.0Y-81.0
X68.5Y-65.0
X70.5Y-64.0
X71.0Y-77.5
X76.5Y-84.5
X79.5Y-82.5
X81.0Y-84.0
X82.995Y-22.495
T3
X22.101Y-79.688
X22.433Y-20.324
X27.0Y-63.0
X47.758Y-69.352
X48.5Y-70.5
X49.224Y-69.447
X50.0Y-70.611
X50.5Y-69.5
X51.375Y-70.628
X54.45Y-78.55
X55.5Y-74.5
X56.279Y-78.05
X56.5Y-73.4
X58.056Y-58.224
X58.218Y-49.464
X59.401Y-55.599
X59.85Y-52.9
X60.275Y-51.0
X61.1Y-59.95
X62.475Y-62.992
X63.5Y-77.5
X76.55Y-77.5
X78.983Y-24.37
X83.0Y-80.5
T4
X50.5Y-78.55
X52.5Y-78.55
T6
X12.235Y-10.5
X13.46Y-89.5
X14.775Y-10.5
X16.0Y-89.5
X41.42Y-64.0
X43.96Y-64.0
X46.5Y-64.0
X49.04Y-64.0
X84.477Y-10.5
X84.735Y-89.5
X87.017Y-10.5
X87.275Y-89.5
T5
X45.92Y-22.86G85X45.92Y-22.26
G05
X45.92Y-27.14G85X45.92Y-26.34
G05
X54.58Y-22.86G85X54.58Y-22.26
G05
X54.58Y-27.14G85X54.58Y-26.34
G05
M30
