%TF.GenerationSoftware,KiCad,Pcbnew,10.0.1*%
%TF.CreationDate,2026-05-03T19:34:39-07:00*%
%TF.ProjectId,LSwarm Drone PCB,4c537761-726d-4204-9472-6f6e65205043,rev?*%
%TF.SameCoordinates,Original*%
%TF.FileFunction,Legend,Bot*%
%TF.FilePolarity,Positive*%
%FSLAX46Y46*%
G04 Gerber Fmt 4.6, Leading zero omitted, Abs format (unit mm)*
G04 Created by KiCad (PCBNEW 10.0.1) date 2026-05-03 19:34:39*
%MOMM*%
%LPD*%
G01*
G04 APERTURE LIST*
%ADD10C,0.150000*%
%ADD11C,0.250000*%
%ADD12C,0.060000*%
%ADD13C,0.000000*%
%ADD14C,0.120000*%
G04 APERTURE END LIST*
D10*
X86119047Y-12954819D02*
X86595237Y-12954819D01*
X86595237Y-12954819D02*
X86595237Y-11954819D01*
X85785713Y-12431009D02*
X85452380Y-12431009D01*
X85309523Y-12954819D02*
X85785713Y-12954819D01*
X85785713Y-12954819D02*
X85785713Y-11954819D01*
X85785713Y-11954819D02*
X85309523Y-11954819D01*
X84880951Y-12954819D02*
X84880951Y-11954819D01*
X84880951Y-11954819D02*
X84642856Y-11954819D01*
X84642856Y-11954819D02*
X84499999Y-12002438D01*
X84499999Y-12002438D02*
X84404761Y-12097676D01*
X84404761Y-12097676D02*
X84357142Y-12192914D01*
X84357142Y-12192914D02*
X84309523Y-12383390D01*
X84309523Y-12383390D02*
X84309523Y-12526247D01*
X84309523Y-12526247D02*
X84357142Y-12716723D01*
X84357142Y-12716723D02*
X84404761Y-12811961D01*
X84404761Y-12811961D02*
X84499999Y-12907200D01*
X84499999Y-12907200D02*
X84642856Y-12954819D01*
X84642856Y-12954819D02*
X84880951Y-12954819D01*
X83928570Y-12050057D02*
X83880951Y-12002438D01*
X83880951Y-12002438D02*
X83785713Y-11954819D01*
X83785713Y-11954819D02*
X83547618Y-11954819D01*
X83547618Y-11954819D02*
X83452380Y-12002438D01*
X83452380Y-12002438D02*
X83404761Y-12050057D01*
X83404761Y-12050057D02*
X83357142Y-12145295D01*
X83357142Y-12145295D02*
X83357142Y-12240533D01*
X83357142Y-12240533D02*
X83404761Y-12383390D01*
X83404761Y-12383390D02*
X83976189Y-12954819D01*
X83976189Y-12954819D02*
X83357142Y-12954819D01*
X91101687Y-15316078D02*
X91196925Y-15268459D01*
X91196925Y-15268459D02*
X91339782Y-15268459D01*
X91339782Y-15268459D02*
X91482639Y-15316078D01*
X91482639Y-15316078D02*
X91577877Y-15411316D01*
X91577877Y-15411316D02*
X91625496Y-15506554D01*
X91625496Y-15506554D02*
X91673115Y-15697030D01*
X91673115Y-15697030D02*
X91673115Y-15839887D01*
X91673115Y-15839887D02*
X91625496Y-16030363D01*
X91625496Y-16030363D02*
X91577877Y-16125601D01*
X91577877Y-16125601D02*
X91482639Y-16220840D01*
X91482639Y-16220840D02*
X91339782Y-16268459D01*
X91339782Y-16268459D02*
X91244544Y-16268459D01*
X91244544Y-16268459D02*
X91101687Y-16220840D01*
X91101687Y-16220840D02*
X91054068Y-16173220D01*
X91054068Y-16173220D02*
X91054068Y-15839887D01*
X91054068Y-15839887D02*
X91244544Y-15839887D01*
X90625496Y-16268459D02*
X90625496Y-15268459D01*
X90625496Y-15268459D02*
X90054068Y-16268459D01*
X90054068Y-16268459D02*
X90054068Y-15268459D01*
X89577877Y-16268459D02*
X89577877Y-15268459D01*
X89577877Y-15268459D02*
X89339782Y-15268459D01*
X89339782Y-15268459D02*
X89196925Y-15316078D01*
X89196925Y-15316078D02*
X89101687Y-15411316D01*
X89101687Y-15411316D02*
X89054068Y-15506554D01*
X89054068Y-15506554D02*
X89006449Y-15697030D01*
X89006449Y-15697030D02*
X89006449Y-15839887D01*
X89006449Y-15839887D02*
X89054068Y-16030363D01*
X89054068Y-16030363D02*
X89101687Y-16125601D01*
X89101687Y-16125601D02*
X89196925Y-16220840D01*
X89196925Y-16220840D02*
X89339782Y-16268459D01*
X89339782Y-16268459D02*
X89577877Y-16268459D01*
X15919047Y-82724819D02*
X16395237Y-82724819D01*
X16395237Y-82724819D02*
X16395237Y-81724819D01*
X15585713Y-82201009D02*
X15252380Y-82201009D01*
X15109523Y-82724819D02*
X15585713Y-82724819D01*
X15585713Y-82724819D02*
X15585713Y-81724819D01*
X15585713Y-81724819D02*
X15109523Y-81724819D01*
X14680951Y-82724819D02*
X14680951Y-81724819D01*
X14680951Y-81724819D02*
X14442856Y-81724819D01*
X14442856Y-81724819D02*
X14299999Y-81772438D01*
X14299999Y-81772438D02*
X14204761Y-81867676D01*
X14204761Y-81867676D02*
X14157142Y-81962914D01*
X14157142Y-81962914D02*
X14109523Y-82153390D01*
X14109523Y-82153390D02*
X14109523Y-82296247D01*
X14109523Y-82296247D02*
X14157142Y-82486723D01*
X14157142Y-82486723D02*
X14204761Y-82581961D01*
X14204761Y-82581961D02*
X14299999Y-82677200D01*
X14299999Y-82677200D02*
X14442856Y-82724819D01*
X14442856Y-82724819D02*
X14680951Y-82724819D01*
X13252380Y-82058152D02*
X13252380Y-82724819D01*
X13490475Y-81677200D02*
X13728570Y-82391485D01*
X13728570Y-82391485D02*
X13109523Y-82391485D01*
X20944028Y-85461479D02*
X21039266Y-85413860D01*
X21039266Y-85413860D02*
X21182123Y-85413860D01*
X21182123Y-85413860D02*
X21324980Y-85461479D01*
X21324980Y-85461479D02*
X21420218Y-85556717D01*
X21420218Y-85556717D02*
X21467837Y-85651955D01*
X21467837Y-85651955D02*
X21515456Y-85842431D01*
X21515456Y-85842431D02*
X21515456Y-85985288D01*
X21515456Y-85985288D02*
X21467837Y-86175764D01*
X21467837Y-86175764D02*
X21420218Y-86271002D01*
X21420218Y-86271002D02*
X21324980Y-86366241D01*
X21324980Y-86366241D02*
X21182123Y-86413860D01*
X21182123Y-86413860D02*
X21086885Y-86413860D01*
X21086885Y-86413860D02*
X20944028Y-86366241D01*
X20944028Y-86366241D02*
X20896409Y-86318621D01*
X20896409Y-86318621D02*
X20896409Y-85985288D01*
X20896409Y-85985288D02*
X21086885Y-85985288D01*
X20467837Y-86413860D02*
X20467837Y-85413860D01*
X20467837Y-85413860D02*
X19896409Y-86413860D01*
X19896409Y-86413860D02*
X19896409Y-85413860D01*
X19420218Y-86413860D02*
X19420218Y-85413860D01*
X19420218Y-85413860D02*
X19182123Y-85413860D01*
X19182123Y-85413860D02*
X19039266Y-85461479D01*
X19039266Y-85461479D02*
X18944028Y-85556717D01*
X18944028Y-85556717D02*
X18896409Y-85651955D01*
X18896409Y-85651955D02*
X18848790Y-85842431D01*
X18848790Y-85842431D02*
X18848790Y-85985288D01*
X18848790Y-85985288D02*
X18896409Y-86175764D01*
X18896409Y-86175764D02*
X18944028Y-86271002D01*
X18944028Y-86271002D02*
X19039266Y-86366241D01*
X19039266Y-86366241D02*
X19182123Y-86413860D01*
X19182123Y-86413860D02*
X19420218Y-86413860D01*
X86119047Y-82954819D02*
X86595237Y-82954819D01*
X86595237Y-82954819D02*
X86595237Y-81954819D01*
X85785713Y-82431009D02*
X85452380Y-82431009D01*
X85309523Y-82954819D02*
X85785713Y-82954819D01*
X85785713Y-82954819D02*
X85785713Y-81954819D01*
X85785713Y-81954819D02*
X85309523Y-81954819D01*
X84880951Y-82954819D02*
X84880951Y-81954819D01*
X84880951Y-81954819D02*
X84642856Y-81954819D01*
X84642856Y-81954819D02*
X84499999Y-82002438D01*
X84499999Y-82002438D02*
X84404761Y-82097676D01*
X84404761Y-82097676D02*
X84357142Y-82192914D01*
X84357142Y-82192914D02*
X84309523Y-82383390D01*
X84309523Y-82383390D02*
X84309523Y-82526247D01*
X84309523Y-82526247D02*
X84357142Y-82716723D01*
X84357142Y-82716723D02*
X84404761Y-82811961D01*
X84404761Y-82811961D02*
X84499999Y-82907200D01*
X84499999Y-82907200D02*
X84642856Y-82954819D01*
X84642856Y-82954819D02*
X84880951Y-82954819D01*
X83976189Y-81954819D02*
X83357142Y-81954819D01*
X83357142Y-81954819D02*
X83690475Y-82335771D01*
X83690475Y-82335771D02*
X83547618Y-82335771D01*
X83547618Y-82335771D02*
X83452380Y-82383390D01*
X83452380Y-82383390D02*
X83404761Y-82431009D01*
X83404761Y-82431009D02*
X83357142Y-82526247D01*
X83357142Y-82526247D02*
X83357142Y-82764342D01*
X83357142Y-82764342D02*
X83404761Y-82859580D01*
X83404761Y-82859580D02*
X83452380Y-82907200D01*
X83452380Y-82907200D02*
X83547618Y-82954819D01*
X83547618Y-82954819D02*
X83833332Y-82954819D01*
X83833332Y-82954819D02*
X83928570Y-82907200D01*
X83928570Y-82907200D02*
X83976189Y-82859580D01*
X90848751Y-85249552D02*
X90943989Y-85201933D01*
X90943989Y-85201933D02*
X91086846Y-85201933D01*
X91086846Y-85201933D02*
X91229703Y-85249552D01*
X91229703Y-85249552D02*
X91324941Y-85344790D01*
X91324941Y-85344790D02*
X91372560Y-85440028D01*
X91372560Y-85440028D02*
X91420179Y-85630504D01*
X91420179Y-85630504D02*
X91420179Y-85773361D01*
X91420179Y-85773361D02*
X91372560Y-85963837D01*
X91372560Y-85963837D02*
X91324941Y-86059075D01*
X91324941Y-86059075D02*
X91229703Y-86154314D01*
X91229703Y-86154314D02*
X91086846Y-86201933D01*
X91086846Y-86201933D02*
X90991608Y-86201933D01*
X90991608Y-86201933D02*
X90848751Y-86154314D01*
X90848751Y-86154314D02*
X90801132Y-86106694D01*
X90801132Y-86106694D02*
X90801132Y-85773361D01*
X90801132Y-85773361D02*
X90991608Y-85773361D01*
X90372560Y-86201933D02*
X90372560Y-85201933D01*
X90372560Y-85201933D02*
X89801132Y-86201933D01*
X89801132Y-86201933D02*
X89801132Y-85201933D01*
X89324941Y-86201933D02*
X89324941Y-85201933D01*
X89324941Y-85201933D02*
X89086846Y-85201933D01*
X89086846Y-85201933D02*
X88943989Y-85249552D01*
X88943989Y-85249552D02*
X88848751Y-85344790D01*
X88848751Y-85344790D02*
X88801132Y-85440028D01*
X88801132Y-85440028D02*
X88753513Y-85630504D01*
X88753513Y-85630504D02*
X88753513Y-85773361D01*
X88753513Y-85773361D02*
X88801132Y-85963837D01*
X88801132Y-85963837D02*
X88848751Y-86059075D01*
X88848751Y-86059075D02*
X88943989Y-86154314D01*
X88943989Y-86154314D02*
X89086846Y-86201933D01*
X89086846Y-86201933D02*
X89324941Y-86201933D01*
X16119047Y-12679819D02*
X16595237Y-12679819D01*
X16595237Y-12679819D02*
X16595237Y-11679819D01*
X15785713Y-12156009D02*
X15452380Y-12156009D01*
X15309523Y-12679819D02*
X15785713Y-12679819D01*
X15785713Y-12679819D02*
X15785713Y-11679819D01*
X15785713Y-11679819D02*
X15309523Y-11679819D01*
X14880951Y-12679819D02*
X14880951Y-11679819D01*
X14880951Y-11679819D02*
X14642856Y-11679819D01*
X14642856Y-11679819D02*
X14499999Y-11727438D01*
X14499999Y-11727438D02*
X14404761Y-11822676D01*
X14404761Y-11822676D02*
X14357142Y-11917914D01*
X14357142Y-11917914D02*
X14309523Y-12108390D01*
X14309523Y-12108390D02*
X14309523Y-12251247D01*
X14309523Y-12251247D02*
X14357142Y-12441723D01*
X14357142Y-12441723D02*
X14404761Y-12536961D01*
X14404761Y-12536961D02*
X14499999Y-12632200D01*
X14499999Y-12632200D02*
X14642856Y-12679819D01*
X14642856Y-12679819D02*
X14880951Y-12679819D01*
X13357142Y-12679819D02*
X13928570Y-12679819D01*
X13642856Y-12679819D02*
X13642856Y-11679819D01*
X13642856Y-11679819D02*
X13738094Y-11822676D01*
X13738094Y-11822676D02*
X13833332Y-11917914D01*
X13833332Y-11917914D02*
X13928570Y-11965533D01*
X20930072Y-15426385D02*
X21025310Y-15378766D01*
X21025310Y-15378766D02*
X21168167Y-15378766D01*
X21168167Y-15378766D02*
X21311024Y-15426385D01*
X21311024Y-15426385D02*
X21406262Y-15521623D01*
X21406262Y-15521623D02*
X21453881Y-15616861D01*
X21453881Y-15616861D02*
X21501500Y-15807337D01*
X21501500Y-15807337D02*
X21501500Y-15950194D01*
X21501500Y-15950194D02*
X21453881Y-16140670D01*
X21453881Y-16140670D02*
X21406262Y-16235908D01*
X21406262Y-16235908D02*
X21311024Y-16331147D01*
X21311024Y-16331147D02*
X21168167Y-16378766D01*
X21168167Y-16378766D02*
X21072929Y-16378766D01*
X21072929Y-16378766D02*
X20930072Y-16331147D01*
X20930072Y-16331147D02*
X20882453Y-16283527D01*
X20882453Y-16283527D02*
X20882453Y-15950194D01*
X20882453Y-15950194D02*
X21072929Y-15950194D01*
X20453881Y-16378766D02*
X20453881Y-15378766D01*
X20453881Y-15378766D02*
X19882453Y-16378766D01*
X19882453Y-16378766D02*
X19882453Y-15378766D01*
X19406262Y-16378766D02*
X19406262Y-15378766D01*
X19406262Y-15378766D02*
X19168167Y-15378766D01*
X19168167Y-15378766D02*
X19025310Y-15426385D01*
X19025310Y-15426385D02*
X18930072Y-15521623D01*
X18930072Y-15521623D02*
X18882453Y-15616861D01*
X18882453Y-15616861D02*
X18834834Y-15807337D01*
X18834834Y-15807337D02*
X18834834Y-15950194D01*
X18834834Y-15950194D02*
X18882453Y-16140670D01*
X18882453Y-16140670D02*
X18930072Y-16235908D01*
X18930072Y-16235908D02*
X19025310Y-16331147D01*
X19025310Y-16331147D02*
X19168167Y-16378766D01*
X19168167Y-16378766D02*
X19406262Y-16378766D01*
X51832620Y-79661702D02*
X51832620Y-80375987D01*
X51832620Y-80375987D02*
X51880239Y-80518844D01*
X51880239Y-80518844D02*
X51975477Y-80614083D01*
X51975477Y-80614083D02*
X52118334Y-80661702D01*
X52118334Y-80661702D02*
X52213572Y-80661702D01*
X51451667Y-79661702D02*
X50832620Y-79661702D01*
X50832620Y-79661702D02*
X51165953Y-80042654D01*
X51165953Y-80042654D02*
X51023096Y-80042654D01*
X51023096Y-80042654D02*
X50927858Y-80090273D01*
X50927858Y-80090273D02*
X50880239Y-80137892D01*
X50880239Y-80137892D02*
X50832620Y-80233130D01*
X50832620Y-80233130D02*
X50832620Y-80471225D01*
X50832620Y-80471225D02*
X50880239Y-80566463D01*
X50880239Y-80566463D02*
X50927858Y-80614083D01*
X50927858Y-80614083D02*
X51023096Y-80661702D01*
X51023096Y-80661702D02*
X51308810Y-80661702D01*
X51308810Y-80661702D02*
X51404048Y-80614083D01*
X51404048Y-80614083D02*
X51451667Y-80566463D01*
%TO.C,LED2*%
D11*
X83150000Y-13400000D02*
X83150000Y-13640000D01*
X83150000Y-14910000D02*
X83150000Y-15090000D01*
X83150000Y-16360000D02*
X83150000Y-16700000D01*
X83150000Y-16700000D02*
X86850000Y-16700000D01*
X86850000Y-13400000D02*
X83150000Y-13400000D01*
X86850000Y-13400000D02*
X86850000Y-13640000D01*
X86850000Y-14910000D02*
X86850000Y-15090000D01*
X86850000Y-16360000D02*
X86850000Y-16700000D01*
D12*
X87970000Y-16400000D02*
G75*
G02*
X87910000Y-16400000I-30000J0D01*
G01*
X87910000Y-16400000D02*
G75*
G02*
X87970000Y-16400000I30000J0D01*
G01*
D13*
G36*
X87412822Y-16777975D02*
G01*
X86904898Y-16777975D01*
X87412822Y-16270025D01*
X87412822Y-16777975D01*
G37*
%TO.C,LED4*%
D11*
X13150000Y-83400000D02*
X13150000Y-83640000D01*
X13150000Y-84910000D02*
X13150000Y-85090000D01*
X13150000Y-86360000D02*
X13150000Y-86700000D01*
X13150000Y-86700000D02*
X16850000Y-86700000D01*
X16850000Y-83400000D02*
X13150000Y-83400000D01*
X16850000Y-83400000D02*
X16850000Y-83640000D01*
X16850000Y-84910000D02*
X16850000Y-85090000D01*
X16850000Y-86360000D02*
X16850000Y-86700000D01*
D12*
X17970000Y-86400000D02*
G75*
G02*
X17910000Y-86400000I-30000J0D01*
G01*
X17910000Y-86400000D02*
G75*
G02*
X17970000Y-86400000I30000J0D01*
G01*
D13*
G36*
X17412822Y-86777975D02*
G01*
X16904898Y-86777975D01*
X17412822Y-86270025D01*
X17412822Y-86777975D01*
G37*
%TO.C,LED3*%
D11*
X83150000Y-83400000D02*
X83150000Y-83640000D01*
X83150000Y-84910000D02*
X83150000Y-85090000D01*
X83150000Y-86360000D02*
X83150000Y-86700000D01*
X83150000Y-86700000D02*
X86850000Y-86700000D01*
X86850000Y-83400000D02*
X83150000Y-83400000D01*
X86850000Y-83400000D02*
X86850000Y-83640000D01*
X86850000Y-84910000D02*
X86850000Y-85090000D01*
X86850000Y-86360000D02*
X86850000Y-86700000D01*
D12*
X87970000Y-86400000D02*
G75*
G02*
X87910000Y-86400000I-30000J0D01*
G01*
X87910000Y-86400000D02*
G75*
G02*
X87970000Y-86400000I30000J0D01*
G01*
D13*
G36*
X87412822Y-86777975D02*
G01*
X86904898Y-86777975D01*
X87412822Y-86270025D01*
X87412822Y-86777975D01*
G37*
%TO.C,LED1*%
D11*
X13150000Y-13400000D02*
X13150000Y-13640000D01*
X13150000Y-14910000D02*
X13150000Y-15090000D01*
X13150000Y-16360000D02*
X13150000Y-16700000D01*
X13150000Y-16700000D02*
X16850000Y-16700000D01*
X16850000Y-13400000D02*
X13150000Y-13400000D01*
X16850000Y-13400000D02*
X16850000Y-13640000D01*
X16850000Y-14910000D02*
X16850000Y-15090000D01*
X16850000Y-16360000D02*
X16850000Y-16700000D01*
D12*
X17970000Y-16400000D02*
G75*
G02*
X17910000Y-16400000I-30000J0D01*
G01*
X17910000Y-16400000D02*
G75*
G02*
X17970000Y-16400000I30000J0D01*
G01*
D13*
G36*
X17412822Y-16777975D02*
G01*
X16904898Y-16777975D01*
X17412822Y-16270025D01*
X17412822Y-16777975D01*
G37*
%TO.C,J3*%
D14*
X48440000Y-72190000D02*
X54560000Y-72190000D01*
X48440000Y-78410000D02*
X49360000Y-78410000D01*
X48440000Y-80010000D02*
X48440000Y-72190000D01*
X49360000Y-78410000D02*
X49360000Y-80010000D01*
X49360000Y-80010000D02*
X48440000Y-80010000D01*
X49640000Y-78410000D02*
X49360000Y-78410000D01*
X49640000Y-78410000D02*
X49640000Y-79625000D01*
X49700000Y-74450000D02*
X49700000Y-72190000D01*
X50200000Y-74450000D02*
X50200000Y-72190000D01*
X51000000Y-72190000D02*
X51000000Y-76550000D01*
X51000000Y-76550000D02*
X52000000Y-76550000D01*
X52000000Y-76550000D02*
X52000000Y-72190000D01*
X53640000Y-78410000D02*
X53360000Y-78410000D01*
X53640000Y-80010000D02*
X53640000Y-78410000D01*
X54560000Y-72190000D02*
X54560000Y-80010000D01*
X54560000Y-78410000D02*
X53640000Y-78410000D01*
X54560000Y-80010000D02*
X53640000Y-80010000D01*
X49200000Y-74450000D02*
X50200000Y-74450000D01*
X50200000Y-76050000D01*
X49200000Y-76050000D01*
X49200000Y-74450000D01*
X52800000Y-74450000D02*
X53800000Y-74450000D01*
X53800000Y-76050000D01*
X52800000Y-76050000D01*
X52800000Y-74450000D01*
%TD*%
M02*
